
  <svg 
  id="Layer_1" 
  data-name="Layer 1" 
  xmlns="http://www.w3.org/2000/svg" 
  viewBox="0 0 240 400">
      <defs>
          <style>
              .head{fill:#1d3f3a;}
              .torso{fill:#522522;}
              .hand{fill:#1d3f3a;}
              .jeans-back{fill: #444444;}
              .jeans-front{fill: #444444;}
              .jeans-dark{fill: #000000;}
              
.sad-l-1 {
    fill: #a03a09;
}

.sad-l-2 {
    fill: #d0cbcc;
}

.sad-l-3 {
    fill: #eeeeef;
}

.sad-l-4 {
    fill: #8f2310;
}

              ..love-e-1 {
    fill: #611a07;
}

.love-e-2 {
    fill: #b6311f;
}

.love-e-3 {
    fill: #ba3804;
}

.love-e-4 {
    fill: #f8e3dd;
}

.love-e-5 {
    fill: #a82a14;
}

.love-e-6 {
    fill: #f6bcb2;
};
              
.fred-1 {
    fill: #3f3469;
}

.fred-2 {
    fill: #322d18;
}

.fred-3 {
    fill: #3e336e;
}

.fred-4 {
    fill: #614e5d;
}

.fred-5 {
    fill: #3e2f68;
}

.fred-6 {
    fill: #040b1c;
}

.fred-7 {
    fill: #362f5d;
}

.fred-8 {
    fill: #493b5d;
}

.fred-9 {
    fill: #352a84;
}

.fred-10 {
    fill: #f1f3f3;
}

.fred-11 {
    fill: #464948;
}

.fred-12 {
    fill: #767877;
}

.fred-13 {
    fill: #030c1b;
}

.fred-14 {
    fill: #403269;
}

.fred-15 {
    fill: #06122d;
}

.fred-16 {
    fill: #3f2e85;
}

.fred-17 {
    fill: #848686;
}

.fred-18 {
    fill: #c5c8c7;
}

              
.tung-1 {
    fill: #321004;
}

.tung-2 {
    fill: #b62713;
}

.tung-3 {
    fill: #e5e7e6;
}

.tung-4 {
    fill: #dedcdd;
}

.tung-5 {
    fill: #d2d4d3;
}

.tung-6 {
    fill: #21120b;
}

.tung-7 {
    fill: #44331d;
}

.tung-8 {
    fill: #7d7f7e;
}

.tung-9 {
    fill: #bdc0bd;
}

.tung-10 {
    fill: #c6c3c3;
}

              
.pain-1 {
    opacity: 0.4;
}

.pain-2 {
    fill: #eeedef;
}

              
.stache-1 {
    fill: #713205;
}

.stache-2 {
    fill: #763c05;
}

.stache-3 {
    fill: #7c370e;
}

.stache-4 {
    fill: #855004;
}

.stache-5 {
    fill: #7b4502;
}

.stache-6 {
    fill: #8e5906;
}

.stache-7 {
    fill: #6e300a;
}

.stache-8 {
    fill: #70300e;
}

.stache-9 {
    fill: #712d13;
}

.stache-10 {
    fill: #eff2ed;
}

.stache-11 {
    fill: #bebdc5;
}

              
.av-1 {
    fill: #c0c9c8;
}

.av-2 {
    fill: #a4aab8;
}

.av-3 {
    fill: #a9b0b9;
}

.av-4 {
    fill: #8f9aa4;
}

.av-5 {
    fill: #031011;
}

.av-6 {
    fill: #0e1214;
}

              
.tired-1 {
    fill: #b6b9ba;
}

.tired-2 {
    fill: #b8bab8;
}

              
.xx-1 {
    fill: #040404;
}

              
.snow-1 {
    fill: #040404;
}

.snow-2 {
    fill: #c81010;
}

.snow-3 {
    fill: #383a37;
}

.snow-4 {
    fill: #353837;
}

.snow-5 {
    fill: #1a7d46;
}

.snow-6 {
    fill: #171716;
}

.snow-7 {
    fill: #efa636;
}

.snow-8 {
    fill: #d2d2d0;
}

.snow-9 {
    fill: #2a2a27;
}

.snow-10 {
    fill: #535451;
}

.snow-11 {
    fill: #5c5e58;
}

.snow-12 {
    fill: #dd050c;
}

.snow-13 {
    fill: #2d7a5b;
}

.snow-14 {
    fill: #298963;
}

.snow-15 {
    fill: #1a623c;
}

.snow-16 {
    fill: #f57906;
}

.snow-17 {
    fill: #272524;
}

.snow-18 {
    fill: #565553;
}

.snow-19 {
    fill: #f2222d;
}

          </style>
      </defs>
      
  <path class="jeans-back"
  d="M229.21,519.06c-.23,2.94,2.56,1,3.26,2.44-2.35.41-4.7,0-7.05,0s-2.65-1.48-2.55-3.54c.4-8.94.29-18,1.26-26.81,1.09-10.1.77-20.22,1.36-30.31,1.56-26.6,1.16-53.3,2.88-79.89.45-7,.76-13.94.79-20.93,0-2.26.41-3.61,3-2.91a3.43,3.43,0,0,0,3.63-.61l12.18.47q9.17,0,18.33,0l13.24.13c4.19.89,8.42.16,12.63.4,1.43.09,2.88-.37,4.28.24-.5,1.92-2,1.14-3,1.1-17.36-.67-34.72-.56-52.09-.51a34.77,34.77,0,0,0-7.27.67,4,4,0,0,0-3.24,3.75,44.92,44.92,0,0,0,.49,16.47c-1.27.31-1,1.45-1,2.36.12,2,.34,4.07.52,6.1.5,1.4-1.22,2.8,0,4.22l0,1.15c-2.08,1.8-2.06,4.54-1.46,6.69.81,2.89.45,5.77.87,8.62.21,1.41,1.76,2.45.83,4.16-1.08,2-.65,4.07,0,6a5.32,5.32,0,0,1-.36,4.3,33.31,33.31,0,0,0-2.84,9.19c-1.11,6.59-1.14,13.44-1.25,20.19-.16,9-.27,17.91-1.12,26.83-.08.76-.21,1.62.52,2.18a5,5,0,0,0,.47,3,5.84,5.84,0,0,1,0,1.78c-2,5.16-.56,10.69-1.5,16-.13.72-.28,1.85.76,1.88s.79-1.09.81-1.84a3.69,3.69,0,0,0-.15-.87.76.76,0,0,1,.38-1c.64-.26.82.3.86.78a32,32,0,0,1-.28,8.91c-.09.44-.48,1.77-1.21.66-1.36-2.08-1.16,0-1.44.58-.59,1.32-.3,2.75-.34,4.13,0,1.8-.4,4,2.46,2.7C227.77,517.54,228.4,518.68,229.21,519.06Z"
  transform="translate(-183 -126)" transform="translate(88 55)" transform="translate(76 55)" />
  
  <path class="jeans-back"
  d="M362.82,481.91c-2.34-1.47-1.49-4.2-2-6.36-1.07-4.63.39-9.42-.55-14.12-.86-4.3.18-8.83-.31-13-1.16-9.8,1.16-19.71-1.26-29.37-.34-1.37.49-2.57.37-3.8-.46-5,1.07-9.95.57-14.91s.33-9.84-1.55-14.49a24.27,24.27,0,0,0,.51-4.36c.06-1.88-.65-2.51-2.25-2.21l-2-.13c0-.59-.14-1.46.51-1.51,3.36-.26,3-3.18,3.17-5.49.21-2.77,0-5.57.08-8.36.09-2.59-.5-4.51-3.14-5-.53-.1-.69-.56-.74-1.09a1,1,0,0,1,.26-.11c5.51-.69,5.65-.69,5.49,5.23-.44,16.39,2.09,32.64,1.65,49-.6,22.28.75,44.5,1.36,66.74C363,479.73,362.87,480.82,362.82,481.91Z"
  transform="translate(-183 -126)" transform="translate(88 55)" transform="translate(76 55)" />
  
  <path class="jeans-front"
  d="M361.89,521.37c-1,.94-2.28.53-3.4.54q-26.21.18-52.42.25a12.64,12.64,0,0,1-1.61-.2c-.29-.47-.73-.49-1.19-.53-4.38-.35-4.61-.62-4.68-5.43,0-3,0-5.95-.08-8.92.14-1.77.33-3.53.41-5.29.23-5.23.42-10.45.62-15.67l1.18-.09,0,1.81a6.58,6.58,0,0,0-.56,3.48q0,11.85,0,23.68c0,4.06,0,4.06,3.85,4h45.8l12,0Z"
  transform="translate(-183 -126)" transform="translate(88 55)" transform="translate(76 55)" />
  
  <path class="jeans-back"
  d="M361.89,521.37l-.06-2.3a3.21,3.21,0,0,0,1.9-4c-1.16-2.92.24-5.75-.52-8.81-1.16-4.59,0-9.62-1.49-14.49-.65-2.06-1.43-2.45-2.73-2.67-2.23-.35-4.49-.44-6.74-.62-.8-.07-1.71.13-1.82-1.19,1.08,0,2.16.39,3.24,0a1.27,1.27,0,0,0,2.19,0c1.46-.17,3,.55,4.39-.52l2.26-.08c1.76.24,2.09,1.75,2.16,3.25.4,9.22.71,18.44,1.13,27.66.1,2.11-.68,3.15-2.51,3.4l-.06.12A1.13,1.13,0,0,1,361.89,521.37Z"
  transform="translate(-183 -126)" transform="translate(88 55)" transform="translate(76 55)" />
  
  <path class="jeans-back"
  d="M309,357.07c.86,0,1.95.5,2.14-1.1,0-.19.07-.39.11-.58l.88,1.23c3.83,1.06,7.72.43,11.58.42L340.5,357a51.37,51.37,0,0,0,12.2-.44c.17.35.34.7.5,1.06-.72,1.13-1.82.7-2.76.7-10.73,0-21.46-.15-32.19.12-3.56.09-7.15,0-10.72.42-.79.1-1.71.28-1.91-1C306.71,357.29,308,357.91,309,357.07Z"
  transform="translate(-183 -126)" transform="translate(88 55)" transform="translate(76 55)" />
  
  <path class="jeans-back" d="M304.59,357.83a4.48,4.48,0,0,1-6.61,0A17.92,17.92,0,0,1,304.59,357.83Z"
  transform="translate(-183 -126)" transform="translate(88 55)" transform="translate(76 55)" />
  
  <path class="jeans-back" d="M362,485.1c-.23-.83,0-1.37.83-1.46C363.07,484.49,362.8,485,362,485.1Z"
  transform="translate(-183 -126)" transform="translate(88 55)" transform="translate(76 55)" />
  <polygon class="jeans-front" points="140.37 165.67 140.44 165.56 140.49 165.73 140.37 165.67" transform="translate(88 55)" transform="translate(76 55)" />
  
  <path class="jeans-dark"
  d="M354.32,379.18l2.05.13c-.25,2.57.06,5.34-2.15,7.21-3.32.69-6.61,1.66-10,1.2a48,48,0,0,0-8.31,0c-9.47.4-18.94-.42-28.43,0-4.85.21-4.93.1-5,5.44,0,.39,0,.79.06,1.19,0,3.2,0,6.41,0,9.61q-.07,9.88-.13,19.77c-.34-.14-.82,1.83-1.05-.11a10.28,10.28,0,0,0-.5-1.67,46.41,46.41,0,0,0,.49-4.68c.06-5.84,0-11.68,0-17.51l0-4.22a2.91,2.91,0,0,0,0-.59v-1.2c.08-5.55-.22-5.93-4.65-6h-.54l-8.23.07-.15,9.53q0,12.89-.05,25.78c-.88,1.75-.36,3.65-.52,5.48l-.65,0c-.11-1.62.58-3.33-.44-4.85,1-8.77.3-17.57.41-26.35v-3a10.57,10.57,0,0,0-.28-3.54c-.7-3.5-1.28-4.18-4.46-3.58s-6.24.32-9.35.44c-6,.23-12.1-.08-18.15-.09-4,0-8,.52-11.87,0-2.81-.35-6.24.85-8.36-2.73a20.58,20.58,0,0,1-1.93-5.5l55.63,0c.34.61.71.62,1.1.05h1.08c.55.71,1.1.71,1.64,0l7.63,0c1.82.53,2.44,1.79,2.26,3.85a8.54,8.54,0,0,0,.25,4.11l.73,0v-8Z"
  transform="translate(-183 -126)" transform="translate(88 55)" transform="translate(76 55)" />
  
  <path class="jeans-front"
  d="M358.08,363.82c.09-2.59-.5-4.51-3.14-5-.53-.1-.69-.56-.74-1.09l-1-.15c-.72,1.13-1.82.7-2.76.7-10.73,0-21.46-.15-32.19.12-3.56.09-7.15,0-10.72.42-.79.1-1.71.28-1.91-1h-1a4.48,4.48,0,0,1-6.61,0l-1.58-.05c-.5,1.92-2,1.14-3,1.1-17.36-.67-34.72-.56-52.09-.51a34.77,34.77,0,0,0-7.27.67,4,4,0,0,0-3.24,3.75,44.86,44.86,0,0,0,.49,16.46l.69.11,55.63,0c.4-.64.76-.59,1.1.05h1.08c.54-.82,1.09-.82,1.64,0l7.63,0c1.05-1.22,2.15-.57,3.24-.1l52-.09c0-.59-.14-1.46.51-1.51,3.36-.26,3-3.18,3.17-5.49C358.21,369.41,358,366.61,358.08,363.82Z"
  transform="translate(-183 -126)" transform="translate(88 55)" transform="translate(76 55)" />
  
  <path class="jeans-front"
  d="M302.33,379.27v8l-.73,0a8.54,8.54,0,0,1-.25-4.11c.18-2.06-.44-3.32-2.26-3.85C300.14,378.15,301.24,378.8,302.33,379.27Z"
  transform="translate(-183 -126)" transform="translate(88 55)" transform="translate(76 55)" />
  
  <path class="jeans-front" d="M291.46,379.34c-.54.73-1.09.73-1.64,0C290.36,378.54,290.91,378.54,291.46,379.34Z"
  transform="translate(-183 -126)" transform="translate(88 55)" transform="translate(76 55)" />
  
  <path class="jeans-front" d="M288.74,379.37c-.39.57-.76.56-1.1-.05C288,378.68,288.4,378.73,288.74,379.37Z"
  transform="translate(-183 -126)" transform="translate(88 55)" transform="translate(76 55)" />
  
  <path class="jeans-dark"
  d="M288.86,466.93a119.92,119.92,0,0,1-.19,18c-.59,0-1.2-.13-1.58.56-3.58-.29-7.07,1.4-10.7.6-4.92-1.08-9.88-.47-14.84-.43-2.78,0-5.74,2.05-8.41-.65-.36-.36-1.26-.26-1.86-.1-4.67,1.26-9.34-.2-14,0-2.7.13-5.07-1.35-7.7-1.46-1,0-1.55-.94-1.39-2.15a14.73,14.73,0,0,1,7.31-2.26c6.87-.14,13.59-1.84,20.53-1.53,5.36.24,10.74.65,16.13.65,3.74,0,7.6.73,11.43.68,2.09,0,3.84.08,3.82,3.25,1.28-4,.49-8,.8-11.89C288.31,469.09,287.62,467.77,288.86,466.93Z"
  transform="translate(-183 -126)" transform="translate(88 55)" transform="translate(76 55)" />
  
  <path class="jeans-front"
  d="M289.83,508.94a133,133,0,0,1-.46-15.46c0-2.89-.41-5.72-.7-8.57-.59,0-1.2-.13-1.58.56.19.79.37,1.59.55,2.39h0c-.18-.8-.36-1.6-.55-2.39-3.58-.29-7.07,1.4-10.7.6-4.92-1.08-9.88-.47-14.84-.43-2.78,0-5.74,2.05-8.41-.65-.36-.36-1.26-.26-1.86-.1-4.67,1.26-9.34-.2-14,0-2.7.13-5.07-1.35-7.7-1.46-1,0-1.55-.94-1.39-2.15-.2-.21-.4-.41-.59-.62l-1.6.6a5,5,0,0,0,.47,3,5.84,5.84,0,0,1,0,1.78c-2,5.16-.56,10.69-1.5,16-.13.72-.28,1.85.76,1.88s.79-1.09.81-1.84a3.69,3.69,0,0,0-.15-.87.76.76,0,0,1,.38-1c.64-.26.82.3.86.78a32,32,0,0,1-.28,8.91c-.09.44-.48,1.77-1.21.66-1.36-2.08-1.16,0-1.44.58-.59,1.32-.3,2.75-.34,4.13,0,1.8-.4,4,2.46,2.7,1-.44,1.61.7,2.42,1.08-.23,2.94,2.56,1,3.26,2.44,12,0,23.92.09,35.88,0,6.79-.06,13.58.38,20.36-.36,1-2.36.46-4.85.6-7.28C289.41,512.2,289,510.49,289.83,508.94Z"
  transform="translate(-183 -126)" transform="translate(88 55)" transform="translate(76 55)" />
  
  <path class="jeans-front"
  d="M363.73,515.08c-1.16-2.92.24-5.75-.52-8.81-1.16-4.59,0-9.62-1.49-14.49-.65-2.06-1.43-2.45-2.73-2.67-2.23-.35-4.49-.44-6.74-.62-.8-.07-1.71.13-1.82-1.19-3.9,0-7.8,0-11.69,0-5.56,0-11.11.14-16.67.51-5.33.35-10.69.17-16,0-1.77-.05-3.53-.85-5.29,0a6.58,6.58,0,0,0-.56,3.48q0,11.85,0,23.68c0,4.06,0,4.06,3.84,4h45.81l12,0A3.21,3.21,0,0,0,363.73,515.08Z"
  transform="translate(-183 -126)" transform="translate(88 55)" transform="translate(76 55)" />
  
  <path class="jeans-dark"
  d="M298.79,462.12c0-8.65-.23-17.31.18-26l.77.78c.11,13.39-.64,26.78.43,40.15a2.51,2.51,0,0,0,.23,3c.83,1,1.27-.51,1.93-.8,1.67-.75,3.37-1.92,5.16-1.57,3.49.69,7.11-.79,10.51.91a.58.58,0,0,0,.53,0c3.48-3.11,7.31-.44,10.93-.56a83,83,0,0,1,15.25.6c2.22.33,4.62-.74,7.1-.55,1.87.15,3.28,1.66,5.12,1.37,1,3.82.74,4.15-2.78,4.19-5.94.07-11.87.21-17.81.48-6.91.31-13.85-.28-20.78-.46-4.31-.12-8.61,1.14-12.94,0-1.65-.43-2,.81-1.9,2.32l-1.18.09c-.25-.82-.51-1.64-.77-2.45a.67.67,0,0,0-.06-1c0-1.11,0-2.22,0-3.32a6.19,6.19,0,0,0,0-4.5q0-6.09,0-12.18c.07,0,.2-.11.19-.12A2.87,2.87,0,0,0,298.79,462.12Z"
  transform="translate(-183 -126)" transform="translate(88 55)" transform="translate(76 55)" />
  
  <path class="jeans-front"
  d="M354.22,386.52c-3.64,4.08-7.81,6.43-13.18,4.89a4,4,0,0,0-1.62-.09c-4.76.67-9.6-.05-14.24-.5-3.19-.31-5.86.77-8.77.89a3,3,0,0,1-1.58-.14c-3.17-1.6-6.41.19-9.6-.26-2.13-.3-1.18,2.76-2.78,3,0-.4-.06-.8-.05-1.19.11-5.34.19-5.23,5-5.44,9.49-.42,19,.4,28.43,0a48,48,0,0,1,8.31,0C347.61,388.18,350.9,387.21,354.22,386.52Z"
  transform="translate(-183 -126)" transform="translate(88 55)" transform="translate(76 55)" />
  
  <path class="jeans-front" d="M287.1,428.58c-.08.44-.13,1-.7.81-.42-.16-.25-.57.05-.84Z"
  transform="translate(-183 -126)" transform="translate(88 55)" transform="translate(76 55)" />
  
  <path class="jeans-front" d="M301.25,395.5a3.3,3.3,0,0,1-.19-.43s.13-.1.19-.16A2.91,2.91,0,0,1,301.25,395.5Z"
  transform="translate(-183 -126)" transform="translate(88 55)" transform="translate(76 55)" />
  
  <path class="jeans-dark"
  d="M298.72,435.41a.27.27,0,0,1-.28-.31c-.71-1.22-.07-2.42.07-3.62.61-.34,1.33-.53,1.62-1.33.19-.56.4-1.12,1.07-.92s.57,1,.68,1.66C302.48,433.79,300.37,434.4,298.72,435.41Z"
  transform="translate(-183 -126)" transform="translate(88 55)" transform="translate(76 55)" />
  
  <path class="jeans-front"
  d="M362.82,483.64v-1.73c-2.34-1.47-1.49-4.2-2-6.36-1.07-4.63.39-9.42-.55-14.12-.86-4.3.18-8.83-.31-13-1.16-9.8,1.16-19.71-1.26-29.37-.34-1.37.49-2.57.37-3.8-.46-5,1.07-9.95.57-14.91s.33-9.84-1.55-14.49a5,5,0,0,0-2.11,2.94,5,5,0,0,1,2.11-2.94,24.27,24.27,0,0,0,.51-4.36c.06-1.88-.65-2.51-2.24-2.21-.25,2.57.06,5.34-2.15,7.21-3.64,4.08-7.81,6.43-13.18,4.89a4,4,0,0,0-1.62-.09c-4.76.67-9.6-.05-14.24-.5-3.19-.31-5.86.77-8.77.89a3,3,0,0,1-1.58-.14c-3.17-1.6-6.41.19-9.6-.26-2.13-.3-1.18,2.76-2.78,3v9.61l-.13,19.77h0c-.34-.13-.82,1.83-1.05-.11a10.28,10.28,0,0,0-.5-1.67,46.41,46.41,0,0,0,.49-4.68c.06-5.84,0-11.68,0-17.51,0-1.41,0-2.82,0-4.22a3.3,3.3,0,0,1-.19-.43s.13-.1.19-.16c0-.4,0-.8,0-1.2.08-5.55-.22-5.93-4.65-6h-.54l-8.23.07-.15,9.53q0,12.89-.05,25.78c-.88,1.75-.36,3.65-.52,5.48-.08.44-.13,1-.7.82-.42-.17-.25-.58.05-.85-.11-1.62.58-3.33-.44-4.85a2.11,2.11,0,0,1-.54.07,2.11,2.11,0,0,0,.54-.07c1-8.77.3-17.57.41-26.35,0-1,0-2,0-3a10.57,10.57,0,0,0-.28-3.54c-.7-3.5-1.28-4.18-4.46-3.58s-6.24.32-9.35.44c-6,.23-12.1-.08-18.15-.09-4,0-8,.52-11.87,0-2.81-.35-6.24.85-8.36-2.73a20.58,20.58,0,0,1-1.93-5.5l-.69-.1c-1.27.31-1,1.45-1,2.36.12,2,.34,4.07.52,6.1h0c.5,1.4-1.22,2.8,0,4.22,0,.38,0,.77,0,1.15-2.08,1.8-2.06,4.54-1.46,6.69.81,2.89.45,5.77.87,8.62.21,1.41,1.76,2.45.83,4.16-1.08,2-.65,4.07,0,6a5.32,5.32,0,0,1-.36,4.3,33.31,33.31,0,0,0-2.84,9.19c-1.11,6.59-1.14,13.44-1.25,20.19-.16,9-.27,17.91-1.12,26.83-.08.76-.21,1.62.52,2.18l1.6-.6q.27-.54.51-1.08-.24.54-.51,1.08c.19.21.39.41.59.62a14.73,14.73,0,0,1,7.31-2.26c6.87-.14,13.59-1.84,20.53-1.53,5.36.24,10.74.65,16.13.65,3.74,0,7.6.73,11.43.68,2.09,0,3.84.08,3.82,3.25,1.28-4,.49-8,.8-11.89.09-1.1-.6-2.42.64-3.26.56-5.55.2-11.12.28-16.68.07-4.38,0-8.76.09-13.14,0-.9-.4-2.58,1.21-2.41,2.67.28,5.36-.28,8,.4-.71-1.22-.07-2.42.07-3.62.61-.34,1.33-.53,1.62-1.33.19-.56.4-1.12,1.07-.92s.57,1,.68,1.66h0c.6,2.9-1.51,3.51-3.16,4.52l.25.74.77.78h0c.11,13.39-.64,26.78.43,40.15a2.51,2.51,0,0,0,.23,3c.83,1,1.27-.51,1.93-.8,1.67-.75,3.37-1.92,5.16-1.57,3.49.69,7.11-.79,10.51.91a.58.58,0,0,0,.53,0c3.48-3.11,7.31-.44,10.93-.56a83,83,0,0,1,15.25.6c2.22.33,4.62-.74,7.1-.55,1.87.15,3.28,1.66,5.12,1.37h0c1,3.82.74,4.15-2.78,4.19-5.94.07-11.87.21-17.81.48-6.91.31-13.85-.28-20.78-.46-4.31-.12-8.61,1.14-12.94,0-1.65-.43-2,.81-1.9,2.32l0,1.81c1.76-.89,3.52-.09,5.29,0,5.34.15,10.7.33,16,0,5.56-.37,11.11-.5,16.67-.51,3.89,0,7.79,0,11.69,0,1.08,0,2.16.39,3.24,0a1.27,1.27,0,0,0,2.19,0c1.46-.17,3,.55,4.39-.52l2.26-.08a1.27,1.27,0,0,0-.52-1.53C361.76,484.27,362,483.73,362.82,483.64Zm-74.64-86.33Zm-1,35.78a3,3,0,0,1-1.15-2.26h0c1.18-.24,1.9.75,2.8,1.25C288.73,433.39,288.57,434.49,287.14,433.09Z"
  transform="translate(-183 -126)" transform="translate(88 55)" transform="translate(76 55)" />
  
  <path class="jeans-dark"
  d="M288.79,432.08c-.06,1.31-.22,2.41-1.65,1a3,3,0,0,1-1.15-2.26C287.17,430.59,287.89,431.58,288.79,432.08Z"
  transform="translate(-183 -126)" transform="translate(88 55)" transform="translate(76 55)" />
  transform="translate(88 55)" transform="translate(76 55)" />
  <path class="jeans-front" d="M298.74,474.82a6.19,6.19,0,0,1,0,4.5A10.35,10.35,0,0,1,298.74,474.82Z"
  transform="translate(-183 -126)" transform="translate(88 55)" transform="translate(76 55)" />
  
  <path class="jeans-front" d="M298.71,482.64a.67.67,0,0,1,.06,1A.7.7,0,0,1,298.71,482.64Z"
  transform="translate(-183 -126)" transform="translate(88 55)" transform="translate(76 55)" />
  
  <path class="jeans-back" d="M298.79,462.12a2.87,2.87,0,0,1,.18.4s-.12.08-.19.12l-.13-.27Z"
  transform="translate(-183 -126)" transform="translate(88 55)" transform="translate(76 55)" />
      
<path class="hand"
d="M237.44,455.9c-2.86-1.55-5.8-3.13-9-3.56a28.19,28.19,0,0,0-4.11-.13c-2.47,0-4.9.18-7.37.14-1.36,0-1.44-.24-2.23.5-.24.21-.39.78-.67,1.06a5.88,5.88,0,0,1-1.08.66,30.07,30.07,0,0,0-7.5,6.68,23.42,23.42,0,0,0-4.39,19.82A6.21,6.21,0,0,0,204,487l0,0c1.87.18,2.72-.38,3.1-2.52.87-4.89.72-9.78.8-14.68,2.08-5.56,5.92-9.18,11.94-9.55,5.59-.35,10,2.15,12.68,7.21a7.62,7.62,0,0,0,1.28,3.74l.15,1.64c-.22.72.14,1.62-.69,2.12-1.07.76-.69,1.91-.79,2.93-2.78,3.91-3.27,8.47-3.67,13-.17,2,.58,3.51,2.79,2.14,7.59-4.68,11.26-13.82,10.36-21.93-.53-4.75-3.3-8.44-5.06-12.61a1.45,1.45,0,0,1-1.18.27,2.15,2.15,0,0,0,.55-.27"
transform="translate(-195.96 -230)" transform="translate(88 55)" transform="translate(76 55)" />
<path class="torso"
d="M379.43,452.3l.12.64.07.35L402,450.13a6.31,6.31,0,0,1,1.31-3.26,9.72,9.72,0,0,1,1.67-1.66,2.33,2.33,0,0,0,.61-2.44c-2.33-11.35-3.67-23-7.24-33.95-5-15.43-14.72-28.7-23.08-42.52a10.37,10.37,0,0,0-9.1-5,23.47,23.47,0,0,0-8.84-.09c-1.3-1-1.4-2.52-1.82-3.88-.65-2.13-1.89-3.36-4.21-3.27l-.88-.86c-1-1-2.34-.56-3.52-.57-5.9-.07-11.79-.07-17.69-.09-.14-.23-.28-.46-.43-.69q0-20.49,0-41c0-1.31.45-2.75-.61-3.92-.27-1-.22-2.15-1.86-2.29-3.43-.28-6.81-1.14-10.29-.71h0c-1-1.07-2.34-.57-3.54-.66-6.49-.5-12.92.69-19.39.7-4.73,0-5.31.7-5.29,5.53,0,13.45,0,26.9.26,40.34,0,2.23-.45,2.93-2.56,2.89-5.73-.1-11.47,0-17.2-.21-4.38-.17-6.44.93-7.68,5.2-.62,2.11-1.71,2.66-3.8,2.52a19.14,19.14,0,0,0-10.47,2.22,22.48,22.48,0,0,0-5.58,6.54c-.58,1-1.17,1.84-2.42,1.91-2.43,4.71-4.93,9.38-7.27,14.13-3.56,7.21-8.39,13.76-11,21.45-3.88,11.4-5.17,23.43-8.54,34.95-.51,1.75-.44,3.65.91,4.92a7.6,7.6,0,0,1,2.06,4.8,5.85,5.85,0,0,1-.09.83,12.62,12.62,0,0,0,2.93-.25,20.06,20.06,0,0,1,3.1.06,44.59,44.59,0,0,0,5.17,0,10.2,10.2,0,0,1,3.17.12c.69.18,1.33.51,2,.73.47.14,1,.23,1.43.35a19.75,19.75,0,0,1,5.05,2.22l.09-.76a3.81,3.81,0,0,1-.19-1l4.54-2,.45-.94.15.25q5.51-31.77,11-63.52a15.14,15.14,0,0,0,1.26-5.49c0-1.71,1.12-5.18,1.89-4.66l-13.29,73.72-.6,1.43a1.73,1.73,0,0,1,.28,2.34l.22.11.24-.07-.45,5.44c1.32.77,2.56,1.85,4.28,1.17,2.14,1.67,4.59.61,6.85.62,15.68.06,31.35,0,47,0v.06h15.17c.59.13,1.29.06,1.52.85a1.79,1.79,0,0,1,2.78.2h.87c3.22-1.26,6.49-.73,9.76-.26.71-.29,1.36-.88,2.22-.47,2.75-.19,5.51-.43,8.12.78,1.34-1.15,2.94-1,4.54-1,5.14,0,10.28-.05,15.42-.08H364l3,.25c.78,1,1.9.47,2.87.64l1.63-.57c0-.26,0-.52,0-.78,1,.48,1.2-.15,1.38-.95a15,15,0,0,0-.08-5.79c0-1.47.59-3.28-.06-4.35-2.31-3.84-.56-8.29-2.23-12.14.34-7.16-1.91-13.93-3.3-20.8-2.91-14.46-6-28.88-8.31-43.46q.87,1.28,1.8,2.55c2.16,13.72,5,27.3,7.63,40.91,1.33,6.87,3.51,13.64,3.17,20.8,2.58,3.56,1.95,8.07,3.27,12l.37-.59c1,1.35,2.49,1.7,4.09,1.91C379.32,451.73,379.37,452,379.43,452.3Z"
transform="translate(-195.96 -230)" transform="translate(88 55)" transform="translate(76 55)" />
<path class="hand"
d="M416.54,467.53c-2.12-4.82-4.86-9.49-10.64-11a3.57,3.57,0,0,0-2.33-1.39,12.48,12.48,0,0,1-1-4.89l-22.29,3.16c.06.29.1.52.1.52.06.31.37,1.92.53,2.72a7.84,7.84,0,0,1,.76,2.17,17.26,17.26,0,0,1,.17,2.29h-.53l-4.62,10.77c-.06,1.89-.12,3.77-.17,5.65s-.06,3.88.14,5.78a6.7,6.7,0,0,0,5.46,6c2.88.6,5.49-.65,3.93-2.9.42-2-.7-3.91-.38-5.87a5.3,5.3,0,0,1-.23-.67c0-.51,0-1,.08-1.54a2.28,2.28,0,0,0-.69,0,22.47,22.47,0,0,1,.11-6.65c.67-1.51,1.35-3,2-4.55,1.53-2,3.91-2.91,5.76-4.5a51.77,51.77,0,0,1,6.31-.45c7,.37,12.78,8,11.25,16.12-1,2.81.3,8.92,2.27,10.59.76-2.13,3-3,3.94-5.21A19.5,19.5,0,0,0,416.54,467.53Zm-38.21,13.19c0-.14.05-.27.08-.41.06.24.12.49.19.73Zm5.83-8.92h0l.17.11ZM405,457.12h0c.08-.12.17-.23.26-.35Z"
  transform="translate(-195.96 -230)" transform="translate(88 55)" transform="translate(76 55)" />
      
  <path 
  class="head" 
  d="M310.62,362.36s4-.12,5.95.64a13.58,13.58,0,0,1,4,2.55,3.13,3.13,0,0,1,.94,2.51,41,41,0,0,1-.17,5.86c-.24,1.64.06,1.83,1.75,2.12a28.67,28.67,0,0,1,14.76,6.73,18.38,18.38,0,0,1,6,14.17c.06,12.47.21,24.95-.12,37.41-.2,7.61-3.65,12.67-11,15.8a14,14,0,0,1-3.4,1.14.89.89,0,0,0-.83,1.07c.05,2.24.06,4.47.05,6.71a.83.83,0,0,0,.69.92c.51.18,1.23.38,1.21,1.14s-.77.86-1.29,1.07c-1.9.77-4,.75-6,1-2.24.3-4.47.67-6.72.87-1.54.13-3.09.12-4.64.31-2.41.28-4.86.13-7.28.32-3.14.24-6.28-.06-9.41-.07a93.09,93.09,0,0,1-10.93-.78c-2.72-.34-5.47-.51-8.19-.89a8.52,8.52,0,0,1-3.43-1.19c-.82-.51-.78-1.17.13-1.36,2-.4,2.3-1.65,2.16-3.39a45.47,45.47,0,0,1,0-4.67c0-.69-.12-1-.91-1.22-4.78-1.27-8.93-3.54-11.7-7.85a15.75,15.75,0,0,1-2.75-8.64c0-6-.09-12,.11-18,.22-6.64.07-13.27.13-19.9a20.61,20.61,0,0,1,3.78-12,19.06,19.06,0,0,1,8.89-6.58,40.41,40.41,0,0,1,9.26-2.68c.89-.13.8-.81.82-1.35.07-1.72.14-3.44.05-5.15a5,5,0,0,1,2.89-5.19c1.51-.77,3-1.75,4.75-1.76C289.85,362.46,310.62,362.36,310.62,362.36Z" 
  transform="translate(-190 -340)"transform="translate(88 55)" transform="translate(76 55)" />
      
<path class="snow-1"
                d="M110.2,129.3c-2.8-1.4-6.45-.71-9.65-1.66,3-7.56,6.84-14.66,7.85-22.65l-.06.12a49.59,49.59,0,0,0,0-30.48l.07.16c-.91-6.34-2.34-12.5-6.63-17.67a1.73,1.73,0,0,1-1-2.38c-1.72-6-5.54-11.05-7.52-16.9l-.36-.43.29-.48c-.58-5.8-3-10.26-9.52-11.29-3.81-.61-3.74-3.11-4-5.87-.34-3.72,1.4-7.8-1.81-11.09l.11.15C75.12,5.55,74,0,67.61,1.12l-3,0a4.49,4.49,0,0,0-6.08.17L44,1.42c-4.58,1.38-6.34,5.08-8,8.92-3,2.13-1.88,5.32-1.95,8.07-.1,3.8-.41,6.47-5.13,8.15a11.12,11.12,0,0,0-7.68,12.11,11.36,11.36,0,0,1-3.43,9.85,26.4,26.4,0,0,0-6,9.21c-2.76,7.86-8,15.18-6.42,24.11-.07,2-.15,3.9-.22,5.86-2.39,3.24-2.37,6.86-1.71,10.55,1.58,9,3.81,17.61,9.82,25,2.62,3.23,3.44,6.49-3.14,5.54-2.18-.31-4.62-.48-6.3,1.59l.11-.06L0,145.71c5.21-7,12.84-6.31,20.35-6,2-.25,3.88-.63,5.36-2.07a97,97,0,0,0,4-16.49c-7.68-2.79-10.83-8.91-12.57-16-4.9-20-1.26-38,13.43-53.46.62-2.8,8.78-2.93,3-7.83-1.82-1.55-3.78-2.67-1.94-5.16,1.47-2,3.31-3.89,6.2-2.91,2.52.85,4.78,1.55,6.49-1.18a9.78,9.78,0,0,0,1-4.07q-.06-6.18-.07-12.35c0-5.34,2.41-7.07,7.59-5.32,3,1,5.59,1.77,8.6.17,5.53-2.95,7.34.71,8.12,4.88s.32,8.69.31,13A9.09,9.09,0,0,0,71.4,36c2.1,1.79,3.77-.11,5.56-.63,2.4-.7,3.92.42,5.12,2.13s1.8,4-.39,5.16c-6.49,3.57-2.37,5.26,1.17,7.07a9.34,9.34,0,0,1,3.21,3c1.27,1.8,2.1,3.87,3.45,5.61,11.27,14.52,12.74,30.54,8.1,47.58-1.85,6.79-4.48,12.89-12.21,15.21-1.8,6.28,2.58,11.07,4.29,16.49a11.17,11.17,0,0,0,6.38,2.7,17.85,17.85,0,0,1,14.12,1.87Z" transform="translate(55 -10)" />
            <path class="snow-2"
                d="M90.43,137.3c-13.88.12-27.76.48-41.64.25-5.35-.09-7.69.91-7.43,6.68.49,11.18.23,22.39.28,33.6-5.66,5-11.82,3.14-18,1.27-1.76-13.9-2.7-27.79.75-41.61,1.27-5.44.42-11.5,5-16l56.27.07C87.54,126.74,90.28,131.66,90.43,137.3Z" transform="translate(55 -10)" />
            <path class="snow-3"
                d="M87.36,51.05c-19-8.93-38.2-9.17-57.57-1.14a21.21,21.21,0,0,1,1.95-2.07,38.66,38.66,0,0,1,3.37-2.16c-3.31-.77-6.69,0-7-4.23-.4-4.81,3.85-5.9,6.16-8.32,2.07-2.16,4.57-.74,6.15,1.73.67,1,1.75.47,2.65,0,6.79-3.46,14.43,1.07,21.49-2.26,2.32-1.09,5.23,2.27,7.84,3.67,3.73-4,7.26-6.63,11.58-.34,3.68,5.37,2.72,8.19-4.17,9.67C82.06,47.86,86,47.82,87.36,51.05Z" transform="translate(55 -10)" />
            <path class="snow-4"
                d="M43.48,30.41c-.1-4.59.31-9.27-.47-13.75s2.89-5.26,5-7.17,4.16-.39,5.9,1.24c1.95,1.82,3.83,2.69,6.57.79,5.66-3.94,10.81-1.7,11.44,5.12.41,4.54-.12,9.16-.23,13.75-2.37.65-3.68-1.06-5.26-2.16-1.82-1.64-3.44-1.35-4.9.48a6.81,6.81,0,0,1-1.68,1.11c-2.1.68-4.06,0-6-.6a11.84,11.84,0,0,1-1.77-.81c-1-.55-2-1.4-3.24-.55C47.07,28.75,46.2,31.4,43.48,30.41Z" transform="translate(55 -10)" />
            <path class="snow-5"
                d="M43.48,30.41l4.3-4.17c1.63.33,3.16,1,4.82,1.21.44.05.88.11,1.32.19,1.82,1.26,3.46,3.27,6,1.28a11.44,11.44,0,0,1,.17-1.31c2.51-.72,5-1.35,7.52,0l4.08,2.81c.21,2,.42,4,.64,5.93-1.18.29-3.1,1.16-3.43.77-3.21-3.78-5.17-2.7-9.61-.57-4.13,2-10.76-.88-16.29-1.61C43.17,33.41,43.33,31.91,43.48,30.41Z" transform="translate(55 -10)" />
            <path class="snow-6"
                d="M69,109.37c-4.53,5.78-15.92,8.5-23.09,5.63a2.77,2.77,0,0,1-2.1-2.61c-.09-2.31,1.55-2.43,3.37-3,6.63-1.9,14.19.09,20.16-4.48C71.05,105.31,70,107.35,69,109.37Z" transform="translate(55 -10)" />
            <path class="snow-7"
                d="M66.21,91.87c-.81,3.47-1.42,7.46-7,7.43s-9.95-3.9-9.81-8.93c.15-5.23,3.24-8.16,8.45-8.53C62.3,81.53,66.31,86.43,66.21,91.87Z" transform="translate(55 -10)" />
            <path class="snow-8"
                d="M60.35,66c.07-2.81.38-4.87,4.47-4.56,6.24.48,8.69,3.73,8.8,9.28.08,3.68-1.83,6-5.58,6.57-4,.6-7.82,0-9.2-4.26-.75-2.33-1.83-5.27,1.52-7,1.84,1.56,1.28,4.16,2.74,5.88S66,74,67.2,71.59C68.74,65.36,63.17,67.23,60.35,66Z" transform="translate(55 -10)" />
            <path class="snow-9"
                d="M43.43,73a14.59,14.59,0,0,1-.12-7.25c3.51-3.12,7-4.45,10.34.18l0-.06c1.73,2.3,2.26,4.68.55,7.21C50.59,73.49,47,72.46,43.43,73Z" transform="translate(55 -10)" />
            <path class="snow-8"
                d="M52.69,73.26c2.47-2.21.83-4.9.93-7.4,3.88,2.31,3.87,5.42,1.7,8.73-2.37,3.62-5.51,3.84-9,1.43C47.73,73.57,50.47,74,52.69,73.26Z" transform="translate(55 -10)" />
            <path class="snow-10"
                d="M52.69,73.26c-1.09,3.15-4.16,2-6.37,2.76-1.1-.89-2.87-1.19-2.89-3C46.59,71,49.76,68.53,52.69,73.26Z" transform="translate(55 -10)" />
            <path class="snow-8"
                d="M53.65,65.92c-3.4-2.64-6.85-2.25-10.34-.18,1.78-5.53,6.75-4,10.41-3.67C56.58,62.34,53.94,64.56,53.65,65.92Z" transform="translate(55 -10)" />
            <path class="snow-11"
                d="M69,109.37c0-1.65.14-3.38-1.66-4.41,1.31-1.3,2.77-1.42,3.5.31A3,3,0,0,1,69,109.37Z" transform="translate(55 -10)" />
            <path class="snow-12"
                d="M28.09,151.18c0-5.85-.15-11.71,0-17.56.25-7.86,2.32-8.93,10.13-7.79,13.13,1.93,26.36,3.55,39.37-1,2.34-.82,4.53-.61,6.06,1.53s3,4.45,2.31,6.75c-.79,2.81-3.86,1.39-5.86,1.42-10.11.15-20.23,0-30.34.07-9.43,0-9.55.15-9.57,9.59,0,7.81.3,15.63-.15,23.41-.26,4.37-1,8.82-8.23,7.28-3.54-.76-3.82-2-3.78-4.69C28.15,163.86,28.09,157.52,28.09,151.18Z" transform="translate(55 -10)" />
            <path class="snow-13" d="M67.63,27.58a6.43,6.43,0,0,1-7.52,0C62.61,24.39,65.11,22.7,67.63,27.58Z" transform="translate(55 -10)" />
            <path class="snow-14" d="M52.6,27.45Q49.08,31,47.78,26.24C50.08,24.05,51.67,24.53,52.6,27.45Z" transform="translate(55 -10)" />
            <path class="snow-15" d="M59.94,28.92c-2.62,2.29-4.8,2.59-6-1.28Z" transform="translate(55 -10)" />
            <path class="snow-16"
                d="M62.85,91.08c-.51,2.91-3.11,3.68-5.94,3.79C54.3,95,52.34,93.54,52.82,91c.43-2.36.73-5.68,4.72-5.12C60.33,86.24,63,87.12,62.85,91.08Z" transform="translate(55 -10)" />
            <path class="snow-17"
                d="M60.35,66c2.63-1.43,5.64-3.62,8.07-.64,1.58,1.93,3.84,4.86.68,7.66a18,18,0,0,0-7.79.2c-2.37-2.15-1.2-4.74-1-7.22Z" transform="translate(55 -10)" />
            <path class="snow-18" d="M61.31,73.21c2.5-3.33,5.09-3.84,7.79-.2C66.61,76.88,64,76.65,61.31,73.21Z" transform="translate(55 -10)" />
            <path class="snow-19" d="M39.55,129H74.8v.75H38.91Z" transform="translate(55 -10)" />
    
  </svg>
  