
<svg 
id="Layer_1" 
data-name="Layer 1" 
xmlns="http://www.w3.org/2000/svg" 
viewBox="0 0 400 400">
    <defs>
        <style>
            .cls-1{fill:#fafafa;}
            .cls-2{fill:#3b241b;}
        </style></defs>
        <path class="cls-2"
        d="M415.92,467.74c-2.12-4.82-4.87-9.48-10.65-11h0a3.59,3.59,0,0,0-2.33-1.4l-.3.31h0l.3-.31c-1.23-3.78-1.17-7.28,2.05-10.17a2.44,2.44,0,0,0,.61-2.44c-2.33-11.35-3.67-23-7.24-33.95-5-15.43-14.72-28.7-23.08-42.52a10.37,10.37,0,0,0-9.1-5h0a23.47,23.47,0,0,0-8.84-.09.87.87,0,0,1,.11.44h0a.87.87,0,0,0-.11-.44c-1.3-1-1.4-2.52-1.82-3.88-.65-2.13-1.89-3.36-4.21-3.27l-.88-.86h0c-1-1-2.34-.56-3.52-.57-5.9-.07-11.79-.07-17.69-.09-.14-.23-.28-.46-.43-.69q0-20.49,0-41c0-1.31.45-2.75-.61-3.92-.27-1-.22-2.15-1.86-2.29-3.43-.28-6.81-1.14-10.29-.71h0c-1-1.07-2.34-.57-3.54-.66-6.49-.5-12.92.69-19.39.7-4.73,0-5.31.7-5.29,5.53,0,13.45,0,26.9.26,40.34,0,2.23-.45,2.93-2.56,2.89-5.73-.1-11.47,0-17.2-.21-4.38-.17-6.44.93-7.68,5.2-.62,2.11-1.71,2.66-3.8,2.52a19.14,19.14,0,0,0-10.47,2.22,22.48,22.48,0,0,0-5.58,6.54c-.58,1-1.17,1.84-2.42,1.91-2.43,4.71-4.93,9.38-7.27,14.13-3.56,7.21-8.39,13.76-11,21.45-3.88,11.4-5.17,23.43-8.54,34.95-.51,1.75-.44,3.65.91,4.92,2.25,2.12,2.47,4.48,1.59,7.14-9.57,5.5-16.17,14.95-13.39,27.41a6.19,6.19,0,0,0,2.9,5.95l0,0c1.87.19,2.72-.38,3.1-2.52.88-4.89.73-9.78.8-14.68,2.08-5.56,5.92-9.18,11.94-9.55,5.59-.34,10,2.15,12.69,7.21a7.61,7.61,0,0,0,1.27,3.74l.15,1.65c-.22.71.14,1.61-.69,2.13h0c-1.06.76-.69,1.9-.78,2.92-2.78,3.91-3.28,8.48-3.68,13-.17,2,.58,3.5,2.79,2.14,7.59-4.69,11.26-13.83,10.36-21.94-.52-4.75-3.3-8.43-5.05-12.6a1.47,1.47,0,0,1-1.19.26,2.47,2.47,0,0,0,.55-.26c.21-1.18-.08-2.61,1.44-3.14l.07-.8a3.81,3.81,0,0,1-.19-1l4.54-2,.45-.94.15.25q5.51-31.77,11-63.52a15.14,15.14,0,0,0,1.26-5.49c0-1.71,1.12-5.18,1.89-4.66l-13.29,73.72-.6,1.43a1.73,1.73,0,0,1,.28,2.34l.22.11.24-.07h0l-.45,5.44c1.32.77,2.56,1.85,4.28,1.17,2.14,1.67,4.59.61,6.85.62,15.68.06,31.35,0,47,0v.06h15.17c.59.13,1.29.06,1.52.85a1.79,1.79,0,0,1,2.78.2h.87c3.22-1.26,6.49-.73,9.76-.26.71-.29,1.36-.88,2.22-.47,2.75-.19,5.51-.43,8.12.78,1.34-1.15,2.94-1,4.54-1,5.14,0,10.28-.05,15.42-.08H364l3,.25c.78,1,1.9.47,2.87.64l1.63-.57c0-.26,0-.52,0-.78,1,.48,1.2-.15,1.38-.95a15,15,0,0,0-.08-5.79c0-1.47.59-3.28-.06-4.35-2.31-3.84-.56-8.29-2.23-12.14.34-7.16-1.91-13.93-3.3-20.8-2.91-14.46-6-28.88-8.31-43.46q.87,1.28,1.8,2.55c2.16,13.72,5,27.3,7.63,40.91,1.33,6.87,3.51,13.64,3.17,20.8,2.58,3.56,1.95,8.07,3.27,12l.37-.59c1,1.35,2.49,1.7,4.09,1.91l.27,1.4c.25,1.32.51,2.64.76,4a8.68,8.68,0,0,1,.93,4.45h-.52q-2.33,5.38-4.63,10.78c0,1.88-.11,3.76-.17,5.64s-.06,3.88.15,5.78a6.68,6.68,0,0,0,5.45,6c2.88.6,5.5-.65,3.94-2.9.41-2-.71-3.91-.39-5.86a5.44,5.44,0,0,1-.23-.68c0-.51.06-1,.08-1.53a1.78,1.78,0,0,0-.69,0,22.46,22.46,0,0,1,.11-6.65h0c.68-1.52,1.35-3,2-4.55,1.52-2,3.9-2.92,5.76-4.51a49.54,49.54,0,0,1,6.3-.44c7,.36,12.78,8,11.25,16.11-1,2.81.3,8.92,2.27,10.59.76-2.13,3-3.05,3.94-5.21A19.54,19.54,0,0,0,415.92,467.74Zm-10.66-10.95-.26.34h0Zm-23.71,17a4.26,4.26,0,0,0-.49.34A4.26,4.26,0,0,1,381.55,473.83Zm.46-.28.27-.15ZM304.48,304a4.05,4.05,0,0,0-.69,0A4.05,4.05,0,0,1,304.48,304Zm73.89,176.31c.06.24.13.48.2.73l-.27-.33C378.33,480.6,378.35,480.47,378.37,480.33Zm5.76-8.51h0l.16.11Z"
        transform="translate(-125.96 -190)" />
        <path 
            class="cls-1" 
            d="M310.62,362.36s4-.12,5.95.64a13.58,13.58,0,0,1,4,2.55,3.13,3.13,0,0,1,.94,2.51,41,41,0,0,1-.17,5.86c-.24,1.64.06,1.83,1.75,2.12a28.67,28.67,0,0,1,14.76,6.73,18.38,18.38,0,0,1,6,14.17c.06,12.47.21,24.95-.12,37.41-.2,7.61-3.65,12.67-11,15.8a14,14,0,0,1-3.4,1.14.89.89,0,0,0-.83,1.07c.05,2.24.06,4.47.05,6.71a.83.83,0,0,0,.69.92c.51.18,1.23.38,1.21,1.14s-.77.86-1.29,1.07c-1.9.77-4,.75-6,1-2.24.3-4.47.67-6.72.87-1.54.13-3.09.12-4.64.31-2.41.28-4.86.13-7.28.32-3.14.24-6.28-.06-9.41-.07a93.09,93.09,0,0,1-10.93-.78c-2.72-.34-5.47-.51-8.19-.89a8.52,8.52,0,0,1-3.43-1.19c-.82-.51-.78-1.17.13-1.36,2-.4,2.3-1.65,2.16-3.39a45.47,45.47,0,0,1,0-4.67c0-.69-.12-1-.91-1.22-4.78-1.27-8.93-3.54-11.7-7.85a15.75,15.75,0,0,1-2.75-8.64c0-6-.09-12,.11-18,.22-6.64.07-13.27.13-19.9a20.61,20.61,0,0,1,3.78-12,19.06,19.06,0,0,1,8.89-6.58,40.41,40.41,0,0,1,9.26-2.68c.89-.13.8-.81.82-1.35.07-1.72.14-3.44.05-5.15a5,5,0,0,1,2.89-5.19c1.51-.77,3-1.75,4.75-1.76C289.85,362.46,310.62,362.36,310.62,362.36Z" 
            transform="translate(-120 -300)"/>
        </svg>
