<svg id="Layer_1" data-name="Layer 1" xmlns="http://www.w3.org/2000/svg" viewBox="0 0 84.42 109.6"><defs><style>.cls-1{fill:#fefefe;}.cls-2{fill:#fdbb02;}.cls-3{fill:#fddc7f;}.cls-4{fill:#fecb68;}.cls-5{fill:#fded95;}.cls-6{fill:#fdc957;}.cls-7{fill:#febd2a;}.cls-8{fill:#fcc140;}.cls-9{fill:#febf0f;}.cls-10{fill:#febc20;}.cls-11{fill:#e6a905;}.cls-12{fill:#0f0603;}.cls-13{fill:#f7b501;}.cls-14{fill:#675f55;}.cls-15{fill:#d9cab4;}</style></defs><path class="cls-1" d="M312.37,372.37c-.05-.32-.21-.47-.54-.34-1.52-.49-3-1.09-4.57-1.46a8.34,8.34,0,0,0-3.84-.44l-.67-.08a2.48,2.48,0,0,0-2-.18l-.69,0a.85.85,0,0,0-1.18,0h-3.84a.65.65,0,0,0-.95,0A6.28,6.28,0,0,0,292,370a8.76,8.76,0,0,0-2.65.22c-.33-.28-.59-.17-.81.15a15.53,15.53,0,0,0-3,.6,9.76,9.76,0,0,0-5,2.13,3.9,3.9,0,0,0-2.62,3.82c0,2,0,4-.05,6,0,.58.11,1.34-.81,1.47a42.07,42.07,0,0,0-10.64,3.28c-.7.3-1.54.49-2,1.27l-.21.08c-.33-.08-.47.09-.52.39a.86.86,0,0,0-.21.07c-.46,0-.86.13-1,.67a8.14,8.14,0,0,0-2.78,2.53c-1.37,1.63-2.71,3.33-3,5.56a8.05,8.05,0,0,0-1.3,4.39l-.05.5c-.43.38-.25.9-.25,1.35-.1,7.7.05,15.41-.18,23.11-.17,5.59-.07,11.18-.06,16.77,0,.49-.2,1.06.34,1.44l0,.46a7.22,7.22,0,0,0,1.48,4.14,12,12,0,0,0,3.91,5.23.72.72,0,0,0,.68.48,2.65,2.65,0,0,0,1.18.79c0,.45.37.41.67.45l.29.23h0c.08.38.41.48.69.6a27.64,27.64,0,0,0,5.25,1.95c.66.14.85.39.83,1,0,1.92,0,3.83-.06,5.75a4.66,4.66,0,0,1-2.19.78,10.27,10.27,0,0,0-3.83,1.21c-1,.5-1.06,1.06-.15,1.73.52.39.32.53,0,.89-.76.8-.66,1.34.28,1.9a3,3,0,0,1,1.05.77,7.51,7.51,0,0,0,6.84,3.54,5.76,5.76,0,0,1,1.44,0c3.1.68,6.31.28,9.43,1.07a23.27,23.27,0,0,0,5.23.26c8.46.11,16.92.13,25.38-.19a2,2,0,0,0,.59-.08,30.06,30.06,0,0,1,6.05-1.49,13.88,13.88,0,0,0,3.6-1.27c1.09-.51,1.93-1.53,3.27-1.5a.65.65,0,0,0,.58-.37,5.86,5.86,0,0,1,1.48-1.54.79.79,0,0,0,.4-.81c-.19-.73.14-1,.79-1.16.83-.26,1-1.14.38-1.56a6.18,6.18,0,0,0-2.55-1.16c-1.48-.1-2.82-.68-4.26-.82,0-1.84,0-3.68-.08-5.51-.06-1,.37-1.35,1.24-1.48a2.79,2.79,0,0,0,2-.89l.67-.11.23-.16a12.46,12.46,0,0,0,2.19-.91c1.23-.83,2.75-1.3,3.57-2.69a9.21,9.21,0,0,0,3.12-3.84.87.87,0,0,0,.46-1,.48.48,0,0,0,0-.2c.69-.48.71-1.26.87-2l.11-1.36c.27-.09.45-.24.37-.56l.06-.71a7.7,7.7,0,0,0,.47-2.78V428.39q0-11.2,0-22.42l-.08-1.66c.09-.27.13-.53-.15-.73-.59-4.1-1.67-8-4.94-10.87a13.65,13.65,0,0,0-5.13-4,8.51,8.51,0,0,0-2.11-1,2.43,2.43,0,0,0-2.2-1l-.68-.07c-.09-.51-.56-.55-.91-.67a24.15,24.15,0,0,0-4.75-1.13c-1.42-.18-1.77-.48-1.55-1.92a47.71,47.71,0,0,0,.19-5.73c0-.35.08-.73-.25-1l-.06-.47a1.68,1.68,0,0,0-1.35-1.67l-.68-.53a.79.79,0,0,0-1.05-.64.33.33,0,0,0-.17,0c-.08-.59-.55-.51-.95-.52Z" transform="translate(-254.78 -369.58)"/><path class="cls-2" d="M300.1,369.84l.69,0a1.83,1.83,0,0,0,2,.18l.67.08c0,.38.71.18.63.76a2.53,2.53,0,0,0-1.54-.07c.57.52,1.27.32,1.91.4l.27.44c.38.36.31,1,.92,1.24v1.4a8.33,8.33,0,0,0,0,4.32c.09.88-.26,1.8.22,2.65v1.2c-.18.59-1.09.25-1.2.93l-1.9.12-3.86-.08a2.2,2.2,0,0,0-2.15,0l-2.85-.08c0-.81-.74-.7-1.22-.89v-1a.76.76,0,0,0,.23-.64c.16-3.06.32-6.12.24-9.19h0a5.28,5.28,0,0,0,1-.3c.31-.17.94-.05.83-.62s-.59-.26-.92-.28-.94,0-1.41,0-.63,0-.69-.45a6.28,6.28,0,0,1,2.16-.21.66.66,0,0,0,.95,0h3.84A1,1,0,0,0,300.1,369.84Z" transform="translate(-254.78 -369.58)"/><path class="cls-3" d="M336.82,451.56a9.21,9.21,0,0,1-3.12,3.84.94.94,0,0,1,.36-.72c.77-.78.08-.84-1-.93,1.08-.36,1.1-1,1.3-1.55.67-1.88.71-4,1.93-5.68.14-.2.35-.48,0-.72-.11-1.37.41-2.7.24-4.07-.11-1.12.28-2.27-.24-3.36v-6c.19-3.54-.36-7.06-.24-10.6a2.17,2.17,0,0,0,0-.36c-.13-2.76-.82-5.46-.7-8.25,0-.79,0-1.59,0-2.38.25-2.61-.29-5.16-.46-7.74-.07-1.15.3-2.41-1.07-3.11-.09-.05-.08-.29-.12-.44a5.45,5.45,0,0,0,.69.2c1.2.24,1.34.05,1-1.14a8.4,8.4,0,0,1-.08-1.43c0-.38.17-.86-.19-1.13-.88-.69-.59-2-1.41-2.69-.18-.15,0-.45.25-.59,3.27,2.89,4.35,6.77,4.94,10.87-.32.32-.28.57.15.73,0,.56.06,1.11.08,1.66-.93.85-.82,2.33-1.87,3.12-.06,0,0,.24,0,.35.75,2.22-.59,4.58.46,6.78,0,7.58-.06,15.16.21,22.75,0,1.31-.45,2.66.27,3.93.51.91.07,2,.47,2.9l-.06.71c-.33.05-.43.26-.37.56,0,.46-.07.91-.11,1.36-.87.4-.6,1.3-.87,2a.48.48,0,0,1,0,.2C336.79,450.76,336.43,451,336.82,451.56Z" transform="translate(-254.78 -369.58)"/><path class="cls-3" d="M255.16,445.8c-.54-.38-.34-.95-.34-1.44,0-5.59-.11-11.18.06-16.77.23-7.7.08-15.41.18-23.11,0-.45-.18-1,.25-1.35.3.28.21.66.18,1-.07.75.29,1,1,.9q0,16.55,0,33.09c-.91.36-1,1-.21,1.94v1.43c-.33,0-.43.23-.49.54a8.2,8.2,0,0,0-.24,3.78Z" transform="translate(-254.78 -369.58)"/><path class="cls-4" d="M256.46,405c-.68.08-1-.15-1-.9,0-.33.12-.71-.18-1,0-.17,0-.33.05-.5.33-.11.89-.23.79-.58-.41-1.37.47-2.53.51-3.81.31-2.23,1.65-3.93,3-5.56a8.14,8.14,0,0,1,2.78-2.53c.43-.07.84-.16,1-.67a.86.86,0,0,1,.21-.07.44.44,0,0,0,.52-.39l.21-.08a2,2,0,0,0,1-.26c1.59-.68,3.22-1.27,4.83-1.91,1.38-.55,2.86-.35,4.25-.88a8.08,8.08,0,0,1,2.61-.8,1,1,0,0,0,1.44,0H279c.8,0,1.66.2,2.17-.7.79-.24,1.76.5,2.4-.46.59-.48,1.29-.13,1.93-.26l.46,0c.13.94-.42,1.11-1.2,1.19-2,.22-4,.47-6,.77-.36.05-.92.05-1,.66a4.58,4.58,0,0,1-2.62.5,20.27,20.27,0,0,0-2.34.33,18.87,18.87,0,0,0-8,3.74c-1.76,1.53-3.68,2.84-5,4.84-.85,1.31-2,2.59-1.91,4.17s-.53,2.73-.81,4.09A1.35,1.35,0,0,1,256.46,405Z" transform="translate(-254.78 -369.58)"/><path class="cls-5" d="M338.73,445.8c-.4-.93,0-2-.47-2.9-.72-1.27-.23-2.62-.27-3.93-.27-7.59-.2-15.17-.21-22.75-1-2.2.29-4.56-.46-6.78,0-.11-.06-.31,0-.35,1.05-.79.94-2.27,1.87-3.12q0,11.2,0,22.42V443A7.7,7.7,0,0,1,338.73,445.8Z" transform="translate(-254.78 -369.58)"/><path class="cls-2" d="M336.33,445.8c.35.24.14.52,0,.72-1.22,1.7-1.26,3.8-1.93,5.68-.2.54-.22,1.19-1.3,1.55,1,.09,1.73.15,1,.93a.94.94,0,0,0-.36.72c-.82,1.39-2.34,1.86-3.57,2.69a12.46,12.46,0,0,1-2.19.91l-.23.16-.67.11a23.94,23.94,0,0,0-3.05.5c-.7.2-1.63,0-2,.91-.24,0-.53,0-.64-.22s.26-.39.42-.58c.56-.67,1.49-.09,2-.55,1-.91,2.24-1,3.28-1.57,1.41-.8,3-1.62,3.47-3.36a29.23,29.23,0,0,1,4-7.8,1.41,1.41,0,0,0,.2-.79h1.67Z" transform="translate(-254.78 -369.58)"/><path class="cls-5" d="M334,392.71c-.22.14-.43.44-.25.59.82.72.53,2,1.41,2.69.36.27.17.75.19,1.13a8.4,8.4,0,0,0,.08,1.43c.3,1.19.16,1.38-1,1.14a5.45,5.45,0,0,1-.69-.2l-1.21-1.68a1.53,1.53,0,0,0-.36-1,43.89,43.89,0,0,0-3.49-4.55c-.22-1-1.25-1.84-.71-3.09.66.53,1.06.49.94-.48A13.53,13.53,0,0,1,334,392.71Z" transform="translate(-254.78 -369.58)"/><path class="cls-6" d="M255.16,445.8h.33c.41,0,.8.72,1.21,0a3.57,3.57,0,0,1,.95,2.35c.2,1.13.22,2.54,1,3.22,1.17,1.09,1.68,2.84,3.36,3.4.19.07.5.22.4.51-.19.58.2.56.56.63a37.66,37.66,0,0,1,9.74,3.83c.44.24.3.59.34.92l-.23,0c-.83-.06-.72.53-.72,1a27.21,27.21,0,0,1-.54,7.42c-.42-.13-.86-.25-.94-.79.46-2.49.38-5,.72-7.52,0-.35.1-.71-.37-.87-.81-.29-1.53-.87-2.47-.72a.59.59,0,0,0-.49-.59,11.82,11.82,0,0,1-2.33-1.08c-.95-.34-1.81-.87-2.76-1.18-.67-.22-.33.31-.43.51a2.65,2.65,0,0,1-1.18-.79c0-.45-.33-.48-.68-.48a12,12,0,0,1-3.91-5.23,19.11,19.11,0,0,0-1.48-4.14Zm1.48,2.2a.42.42,0,0,0,0-.1l-.08,0a.38.38,0,0,0,0,.1S256.61,448,256.64,448Z" transform="translate(-254.78 -369.58)"/><path class="cls-5" d="M316.63,376.24c.33.28.26.66.25,1a47.71,47.71,0,0,1-.19,5.73c-.22,1.44.13,1.74,1.55,1.92A24.15,24.15,0,0,1,323,386c.35.12.82.16.91.67a.49.49,0,0,1-.58.3c-1.91-.54-3.9-.53-5.81-.93s-4.05-.95-6.12-1.21H310c-.45-.93-1.29-.28-1.92-.48v-.46h2.39a4.12,4.12,0,0,0,2.17.24l.49,0c1-.08.61-.88.73-1.42l.29-.12-.29-.14a27.84,27.84,0,0,1,.19-4.56c.51.07.53.37.37.77s-.2.73.2.94.61.85.78,1.29c1.26-.48,1.05-1.5,1.08-2.45C316.47,377.71,316.21,376.94,316.63,376.24Z" transform="translate(-254.78 -369.58)"/><path class="cls-3" d="M311.39,384.86c2.07.26,4.09.79,6.12,1.21s3.9.39,5.81.93a.49.49,0,0,0,.58-.3l.68.07a5.1,5.1,0,0,0,2.2,1,8.51,8.51,0,0,1,2.11,1c.12,1-.28,1-.94.49-.54,1.25.49,2.07.71,3.09a1.59,1.59,0,0,0-1-.24c-1-1.62-2.77-2.16-4.33-2.86a51.83,51.83,0,0,0-8.63-2.91c-.25-.85-.95-.31-1.43-.47l-1,0h-.93v-1Z" transform="translate(-254.78 -369.58)"/><path class="cls-4" d="M310.43,383.91H308a.51.51,0,0,0-.48-.25c-.12-1-.87-.66-1.44-.72a.47.47,0,0,0-.25-.47v-1.2a1.08,1.08,0,0,0,1.16-1.11c.21-2.67.67-5.33.28-8,.37-.4.26-.66-.25-.7a13.46,13.46,0,0,0-1.42,0h0l-.23-.24a.57.57,0,0,0-1,0c-.64-.08-1.34.12-1.91-.4a2.53,2.53,0,0,1,1.54.07c.08-.58-.59-.38-.63-.76a8.34,8.34,0,0,1,3.84.44c1.55.37,3.05,1,4.57,1.46a.45.45,0,0,0,.54.34h0c0,.16,0,.33,0,.49-.55.09-1-.3-1.43-.4-.64-.13-1.63-1.43-2,.36,0,0-.29,0-.45.05-.08-.28.2-.7-.32-.84-.23.43-.22.74.32.84a7.19,7.19,0,0,1,0,1.54,20.74,20.74,0,0,0-.2,5.28,6.83,6.83,0,0,1,.19,1.87c-.29,1.32-.08,1.61,1.22,1.85.26,0,.56,0,.74.26Z" transform="translate(-254.78 -369.58)"/><path class="cls-5" d="M279,385.08h-.46a1.14,1.14,0,0,0-1.44,0,8.08,8.08,0,0,0-2.61.8c-1.39.53-2.87.33-4.25.88-1.61.64-3.24,1.23-4.83,1.91a2,2,0,0,1-1,.26c.42-.78,1.26-1,2-1.27A42.07,42.07,0,0,1,277,384.39c.92-.13.79-.89.81-1.47.05-2,0-4,.05-6a3.9,3.9,0,0,1,2.62-3.82c-.41.47-.81.95-1.21,1.42a2.09,2.09,0,0,0-.92,1.71c0,2.44,0,4.88.06,7.32,0,.43.38.3.63.33.48,0,1,.57,1.44,0l3.11,0c-.64,1-1.61.22-2.4.46S279.45,384,279,385.08Z" transform="translate(-254.78 -369.58)"/><path class="cls-6" d="M279.24,374.54c.4-.47.8-1,1.21-1.42a9.76,9.76,0,0,1,5-2.13c0,.36-.34.42-.49.64a6.31,6.31,0,0,0-3.58,1.67,1.27,1.27,0,0,0-.51,1c-.05,3.2-.52,6.39-.46,9.6-.48.57-1,0-1.44,0A81.21,81.21,0,0,0,279.24,374.54Z" transform="translate(-254.78 -369.58)"/><path class="cls-3" d="M316.63,376.24c-.42.7-.16,1.47-.19,2.2,0,.95.18,2-1.08,2.45-.17-.44-.24-1-.78-1.29s-.34-.59-.2-.94.14-.7-.37-.77v-.68a.6.6,0,0,0,0-1c-.51-.81,0-1.81-.48-2.63l1,0,.68.53a2.2,2.2,0,0,0,1.35,1.67Z" transform="translate(-254.78 -369.58)"/><path class="cls-3" d="M268.45,459.24c.94-.15,1.66.43,2.47.72.47.16.42.52.37.87-.34,2.5-.26,5-.72,7.52l-.44-.28c0-.39,0-.78,0-1.17,0-1.92,0-3.83.06-5.75,0-.62-.17-.87-.83-1a27.64,27.64,0,0,1-5.25-1.95c-.28-.12-.61-.22-.69-.6.34,0,.6.17.89.27C265.67,458.31,266.91,459.24,268.45,459.24Z" transform="translate(-254.78 -369.58)"/><path class="cls-7" d="M285,371.63c.15-.22.52-.28.49-.64a15.53,15.53,0,0,1,3-.6c.3.08.59.15.81-.15A8.76,8.76,0,0,1,292,370c.06.42.36.46.69.45s.95,0,1.41,0,.83-.17.92.28-.52.45-.83.62a5.28,5.28,0,0,1-1,.3c.16-.41.45-.85-.4-.74a12.68,12.68,0,0,1-1.51,0,4.66,4.66,0,0,0-1.06,0c-1.7.4-3.62.16-5,1.66a1.15,1.15,0,0,0,0,1.45l-.24,2.64c-.57-.1-.45-.55-.46-.92A9.94,9.94,0,0,1,285,371.63Z" transform="translate(-254.78 -369.58)"/><path class="cls-3" d="M322,460.68c.41-.9,1.34-.71,2-.91a23.94,23.94,0,0,1,3.05-.5,2.79,2.79,0,0,1-2,.89c-.87.13-1.3.48-1.24,1.48.1,1.83.06,3.67.08,5.51,0,.23,0,.46-.05.69l-.4.06-.06-1C323.73,464.65,322.52,462.74,322,460.68Z" transform="translate(-254.78 -369.58)"/><path class="cls-4" d="M268.45,459.24c-1.54,0-2.78-.93-4.18-1.38-.29-.1-.55-.32-.89-.27h0l-.29-.23c-.3,0-.65,0-.67-.45.1-.2-.24-.73.43-.51.95.31,1.81.84,2.76,1.18a11.82,11.82,0,0,0,2.33,1.08A.59.59,0,0,1,268.45,459.24Z" transform="translate(-254.78 -369.58)"/><path class="cls-3" d="M256.66,398.24c0,1.28-.92,2.44-.51,3.81.1.35-.46.47-.79.58A8.05,8.05,0,0,1,256.66,398.24Z" transform="translate(-254.78 -369.58)"/><path class="cls-3" d="M255.19,446.26a19.11,19.11,0,0,1,1.48,4.14A7.22,7.22,0,0,1,255.19,446.26Z" transform="translate(-254.78 -369.58)"/><path class="cls-5" d="M316.57,375.77a2.2,2.2,0,0,1-1.35-1.67A1.68,1.68,0,0,1,316.57,375.77Z" transform="translate(-254.78 -369.58)"/><path class="cls-5" d="M326.78,387.72a5.1,5.1,0,0,1-2.2-1A2.43,2.43,0,0,1,326.78,387.72Z" transform="translate(-254.78 -369.58)"/><path class="cls-4" d="M302.75,370.05a1.83,1.83,0,0,1-2-.18A2.48,2.48,0,0,1,302.75,370.05Z" transform="translate(-254.78 -369.58)"/><path class="cls-5" d="M337.32,450.4c.27-.67,0-1.57.87-2C338,449.14,338,449.92,337.32,450.4Z" transform="translate(-254.78 -369.58)"/><path class="cls-5" d="M314.54,373.57l-1,0-.26-.24,0-.31a.22.22,0,0,0,.18-.11A.79.79,0,0,1,314.54,373.57Z" transform="translate(-254.78 -369.58)"/><path class="cls-4" d="M300.1,369.84a1,1,0,0,1-1.18,0A.85.85,0,0,1,300.1,369.84Z" transform="translate(-254.78 -369.58)"/><path class="cls-5" d="M336.82,451.56c-.39-.58,0-.8.46-1A.87.87,0,0,1,336.82,451.56Z" transform="translate(-254.78 -369.58)"/><path class="cls-5" d="M263.43,389.48c-.13.51-.54.6-1,.67C262.57,389.61,263,389.5,263.43,389.48Z" transform="translate(-254.78 -369.58)"/><path class="cls-4" d="M295.08,369.79a.66.66,0,0,1-.95,0A.65.65,0,0,1,295.08,369.79Z" transform="translate(-254.78 -369.58)"/><path class="cls-5" d="M312.36,372.86c0-.16,0-.33,0-.49.4,0,.87-.07.95.52V373l-1-.11Z" transform="translate(-254.78 -369.58)"/><path class="cls-5" d="M339.11,404.31c-.43-.16-.47-.41-.15-.73C339.24,403.78,339.2,404,339.11,404.31Z" transform="translate(-254.78 -369.58)"/><path class="cls-4" d="M289.32,370.24c-.22.3-.51.23-.81.15C288.73,370.07,289,370,289.32,370.24Z" transform="translate(-254.78 -369.58)"/><path class="cls-4" d="M260.58,455.63c.35,0,.66,0,.68.48A.72.72,0,0,1,260.58,455.63Z" transform="translate(-254.78 -369.58)"/><path class="cls-5" d="M264.16,389a.44.44,0,0,1-.52.39C263.69,389.11,263.83,388.94,264.16,389Z" transform="translate(-254.78 -369.58)"/><path class="cls-5" d="M338.3,447.07c-.06-.3,0-.51.37-.56C338.75,446.83,338.57,447,338.3,447.07Z" transform="translate(-254.78 -369.58)"/><path class="cls-5" d="M312.37,372.37a.45.45,0,0,1-.54-.34C312.16,371.9,312.32,372.05,312.37,372.37Z" transform="translate(-254.78 -369.58)"/><path class="cls-3" d="M263.11,457.35l.29.23Z" transform="translate(-254.78 -369.58)"/><path class="cls-3" d="M327.71,459.16l.23-.16Z" transform="translate(-254.78 -369.58)"/><path class="cls-6" d="M313.49,372.93a.22.22,0,0,1-.18.11v-.15A.33.33,0,0,1,313.49,372.93Z" transform="translate(-254.78 -369.58)"/><path class="cls-6" d="M307.31,372.15c.39,2.68-.07,5.34-.28,8a1.08,1.08,0,0,1-1.16,1.11c-.48-.85-.13-1.77-.22-2.65a8.12,8.12,0,0,0,0-4.32c0-.47,0-.93,0-1.4s0-.67,0-1A3.25,3.25,0,0,1,307.31,372.15Z" transform="translate(-254.78 -369.58)"/><path class="cls-6" d="M291.25,370.94a12.68,12.68,0,0,0,1.51,0c.85-.11.56.33.4.74h0c-.66.12-.45.64-.47,1a56.59,56.59,0,0,1-.2,6.38,3.32,3.32,0,0,0,.2,2.41v1a2,2,0,0,0,0,.24,3.63,3.63,0,0,1-1.42.24c.25-1.89.88-3.76.25-5.69a.69.69,0,0,1,0-.47,3.54,3.54,0,0,0,0-2.09,3.67,3.67,0,0,1,0-1.89A2.23,2.23,0,0,0,291.25,370.94Z" transform="translate(-254.78 -369.58)"/><path class="cls-4" d="M293.91,383.35l2.85.08a2.3,2.3,0,0,0,2.15,0l3.86.08c0,.28,0,.57,0,.85l-3.85,0h-.71c-.35-.4-.81-.22-1.23-.24-2.85-.18-5.69.25-8.53.23-.52,0-1.1.1-1-.72.31-.35.74-.22,1.12-.23,1.47,0,2.94,0,4.41,0Z" transform="translate(-254.78 -369.58)"/><path class="cls-7" d="M292.69,381.5a3.32,3.32,0,0,1-.2-2.41,56.59,56.59,0,0,0,.2-6.38c0-.4-.19-.92.47-1,.08,3.07-.08,6.13-.24,9.19A.76.76,0,0,1,292.69,381.5Z" transform="translate(-254.78 -369.58)"/><path class="cls-3" d="M302.76,384.37c0-.28,0-.57,0-.85l1.9-.12c.41.47,1,.18,1.44.26h1.45a.51.51,0,0,1,.48.25v.48c-.83,0-1.67,0-2.51,0-.61-.05-1.21-.47-1.8,0Z" transform="translate(-254.78 -369.58)"/><path class="cls-8" d="M305.62,374.3a8.12,8.12,0,0,1,0,4.32A8.33,8.33,0,0,1,305.62,374.3Z" transform="translate(-254.78 -369.58)"/><path class="cls-8" d="M306.11,383.66c-.48-.08-1,.21-1.44-.26.11-.68,1-.34,1.2-.93a.47.47,0,0,1,.25.47C306.12,383.18,306.11,383.42,306.11,383.66Z" transform="translate(-254.78 -369.58)"/><path class="cls-8" d="M298.91,383.44a2.3,2.3,0,0,1-2.15,0A2.2,2.2,0,0,1,298.91,383.44Z" transform="translate(-254.78 -369.58)"/><path class="cls-7" d="M293.91,383.35l-1,.06-.27-.71a2,2,0,0,1,0-.24C293.17,382.65,293.88,382.54,293.91,383.35Z" transform="translate(-254.78 -369.58)"/><path class="cls-8" d="M305.65,371.89c0,.34,0,.67,0,1-.61-.19-.54-.88-.92-1.24h.94C305.64,371.74,305.64,371.82,305.65,371.89Z" transform="translate(-254.78 -369.58)"/><path class="cls-6" d="M305.63,371.67h-.94l-.27-.44a.57.57,0,0,1,1,0l.23.24h0Z" transform="translate(-254.78 -369.58)"/><path class="cls-2" d="M332.51,397.81l1.21,1.68c0,.15,0,.39.12.44,1.37.7,1,2,1.07,3.11.17,2.58.71,5.13.46,7.74-.66.12-.46.64-.46,1,0,2.37,0,4.75,0,7.12a.51.51,0,0,1-.46-.58c0-3.51-.2-7,.1-10.53.15-1.9-.38-3.71-.12-5.57a.43.43,0,0,0-.45-.56.42.42,0,0,0-.47.54c.4,1.88-.91,3.1-1.73,4.49a2,2,0,0,1-2.88.83c-.92-.48-1.67,0-2.25.87s-.63,2.43-2.24,2.39c-.1,0-.28.08-.3.16-.46,1.67-1.82,1.15-2.95,1.24a1.33,1.33,0,0,1-1.52-1.21c-.18-1.05-.2-2.12-.3-3.19-.08-.79.32-1,1-.82s1.15.4,1.67-.12c.85.16,1.35,1,2.39,1.21a6.69,6.69,0,0,0-1.55-2.62,11.36,11.36,0,0,0-3.56-1.87c.24-.09.71.15.54-.46a20.64,20.64,0,0,1-1.08-3.19c0-.24-.39-.2-.62-.21-.07-.62-.88-.67-.95-1.3-.13-1.23-1.1-1.84-1.91-2.55a1,1,0,0,0-1-.94h0a1,1,0,0,0-.95-.95h0v-.49c.24,0,.47.08.7.14.91.24,1.28,1.12,1.88,1.71s1.71,1.18,2.21,2.11a14.69,14.69,0,0,0,3.33,4.24c1.21,1,2.22,2.43,4,2.59a25.4,25.4,0,0,0,3.65.38c1.1-.06,2.42.16,3.16-1.09.7-.1.6-.77.61-1.13,0-.91.58-1.93-.37-2.71-.09-.66-.62-1.2-.5-1.92Z" transform="translate(-254.78 -369.58)"/><path class="cls-6" d="M336.33,445.8h-.95c-.19-3.32-.09-6.63-.35-10a129.72,129.72,0,0,1-.37-14.09c0-.39-.13-.81.23-1.13.22.11.44.26.45.51a60.32,60.32,0,0,1,.11,7.11c-.13,1.45.57,2.65.56,4,0,0,.21.09.32.13v6c-.47.69-.17,1.46-.21,2.19,0,.41-.27,1,.45,1.17C336.74,443.1,336.22,444.43,336.33,445.8Z" transform="translate(-254.78 -369.58)"/><path class="cls-4" d="M336.33,432.37c-.11,0-.32-.09-.32-.13,0-1.36-.69-2.56-.56-4a60.32,60.32,0,0,0-.11-7.11c0-.25-.23-.4-.45-.51,0-.56,0-1.11,0-1.67,0-2.37,0-4.75,0-7.12,0-.4-.2-.92.46-1,0,.79,0,1.59,0,2.38-.12,2.79.57,5.49.7,8.25a2.17,2.17,0,0,1,0,.36C336,425.31,336.52,428.83,336.33,432.37Z" transform="translate(-254.78 -369.58)"/><path class="cls-4" d="M336.57,441.73c-.72-.17-.47-.76-.45-1.17,0-.73-.26-1.5.21-2.19C336.85,439.46,336.46,440.61,336.57,441.73Z" transform="translate(-254.78 -369.58)"/><path class="cls-8" d="M273,460.66c0-.33.1-.68-.34-.92a37.66,37.66,0,0,0-9.74-3.83c-.36-.07-.75-.05-.56-.63.1-.29-.21-.44-.4-.51-1.68-.56-2.19-2.31-3.36-3.4-.73-.68-.75-2.09-1-3.22a3.57,3.57,0,0,0-.95-2.35,5.7,5.7,0,0,1,0-3,1.19,1.19,0,0,0-.45-1.28c0-.48,0-1,0-1.43.42-.42.15-1,.24-1.44.8-.34.7-1.07.7-1.72,0-3.72.19-7.44.21-11.16,0-4.15.38-8.28.29-12.42-.05-2.48,0-4.95,0-7.43,0-1.05-.22-2.17.76-3a1,1,0,0,0,.19-.91,6.17,6.17,0,0,1,1.32-4.75c.39-.53.49-1.55,1.56-1.33-.08.9-.88,1.37-1.24,2.11-.48,1-1.32,1.93-.67,3.17v1c-.51.09-.63.32-.24.72v.72c-.72-.06-.71.42-.71.93v17.38c0,.45,0,.9.48,1.12v1.68c-.51.06-.47.45-.48.81a33.58,33.58,0,0,1-.23,5.84,1.46,1.46,0,0,0,.23,1c.39,4.05-.7,8-.66,12.06,0,.49.1.71.53.91a3.1,3.1,0,0,0,1.8.47c0,.73.36.91,1,1,2,.2,2.14.37,2.58,2.22a.77.77,0,0,0,.38.58c.59.27.6.78.57,1.31a4.5,4.5,0,0,0,3.29,5,.82.82,0,0,1,.41.22c1.67,2.05,4.48,1.84,6.49,3.27.64.45.83.63.6,1.27H274C273.65,460.25,273.32,460.77,273,460.66Z" transform="translate(-254.78 -369.58)"/><path class="cls-6" d="M261.49,395.9c-1.07-.22-1.17.8-1.56,1.33a6.17,6.17,0,0,0-1.32,4.75,1,1,0,0,1-.19.91c-1,.82-.76,1.94-.76,3,0,2.48,0,4.95,0,7.43.09,4.14-.28,8.27-.29,12.42,0,3.72-.2,7.44-.21,11.16,0,.65.1,1.38-.7,1.72l0-.5q0-16.55,0-33.09a1.35,1.35,0,0,0,.7-1c.28-1.36.94-2.57.81-4.09s1.06-2.86,1.91-4.17c1.29-2,3.21-3.31,5-4.84a18.87,18.87,0,0,1,8-3.74,20.27,20.27,0,0,1,2.34-.33c-.08.54-.58.61-.91.61a7.75,7.75,0,0,0-2.71.82,4.67,4.67,0,0,0-2.4,1.19h-.24c-1.49.3-2.45,1.5-3.7,2.21-.1.05-.09.28-.14.43q-.79-.07-.72.72a1,1,0,0,0-1.2,1.2c-.87.25-1.59.65-1.67,1.68A1.93,1.93,0,0,1,261.49,395.9Z" transform="translate(-254.78 -369.58)"/><path class="cls-4" d="M256.22,441.48a1.19,1.19,0,0,1,.45,1.28,5.7,5.7,0,0,0,0,3c-.41.72-.8,0-1.21,0a8.2,8.2,0,0,1,.24-3.78C255.79,441.71,255.89,441.51,256.22,441.48Z" transform="translate(-254.78 -369.58)"/><path class="cls-4" d="M256.44,438.11l0,.5c-.09.48.18,1-.24,1.44C255.46,439.1,255.53,438.47,256.44,438.11Z" transform="translate(-254.78 -369.58)"/><path class="cls-9" d="M285,371.63a9.94,9.94,0,0,0-.47,4.16c0,.37-.11.82.46.92v1a3.38,3.38,0,0,0,0,2.63c.17.95-.27,2,.27,2.88l.24.48c-.64.13-1.34-.22-1.93.26l-3.11,0c-.06-3.21.41-6.4.46-9.6a1.27,1.27,0,0,1,.51-1A6.31,6.31,0,0,1,285,371.63Z" transform="translate(-254.78 -369.58)"/><path class="cls-7" d="M271.57,388.23a7.75,7.75,0,0,1,2.71-.82c.33,0,.83-.07.91-.61a4.58,4.58,0,0,0,2.62-.5,14.32,14.32,0,0,0,2.53-.39,78.2,78.2,0,0,1,8.62-1,74.84,74.84,0,0,1,8.47-.28.79.79,0,0,0,.77-.23h.71a.49.49,0,0,0,.57.46c1.82-.11,3.63.18,5.44.23h1c.33.41.79.21,1.2.23l1.42-.19c0,.23,0,.46,0,.69h-.72c-3.6-.24-7.2-.64-10.81-.68s-7,.26-10.47.45a38.64,38.64,0,0,0-5.59.83,43.77,43.77,0,0,0-8.64,2.44,19.67,19.67,0,0,0-2.14,1,19,19,0,0,1-3.85,2.19.94.94,0,0,1,.64-1c.77-.39,1.74-.6,2-1.64h.24A2.6,2.6,0,0,0,271.57,388.23Z" transform="translate(-254.78 -369.58)"/><path class="cls-6" d="M298.2,384.39a.79.79,0,0,1-.77.23,74.84,74.84,0,0,0-8.47.28,78.2,78.2,0,0,0-8.62,1,14.32,14.32,0,0,1-2.53.39c.06-.61.62-.61,1-.66,2-.3,4-.55,6-.77.78-.08,1.33-.25,1.2-1.19l1.45,0c-.06.82.52.72,1,.72,2.84,0,5.68-.41,8.53-.23C297.39,384.17,297.85,384,298.2,384.39Z" transform="translate(-254.78 -369.58)"/><path class="cls-8" d="M287.4,383.66l-1.45,0-.46,0-.24-.48c.72-.1,1.48.24,2.15-.22l3.84,0a3.63,3.63,0,0,0,1.42-.24l.27.71c-1.47,0-2.94,0-4.41,0C288.14,383.44,287.71,383.31,287.4,383.66Z" transform="translate(-254.78 -369.58)"/><path class="cls-3" d="M279,385.08c.46-1.05,1.41-.59,2.17-.7C280.65,385.28,279.79,385.08,279,385.08Z" transform="translate(-254.78 -369.58)"/><path class="cls-3" d="M277.09,385.09a1.14,1.14,0,0,1,1.44,0A1,1,0,0,1,277.09,385.09Z" transform="translate(-254.78 -369.58)"/><path class="cls-8" d="M334.88,418.94c0,.56,0,1.11,0,1.67-.36.32-.22.74-.23,1.13a129.72,129.72,0,0,0,.37,14.09c.26,3.34.16,6.65.35,10H333.7v0c1.33-1.35.95-3.07.95-4.69,0-.51-.21-1-.21-1.52.05-5.7-.14-11.38-.45-17.07-.21-3.9,0-7.82,0-11.73a5.39,5.39,0,0,0-.09-1.07c-.06-.26-.17-.55-.53-.57s-.56.16-.57.35c-.09,1.18-1.34,2.14-.9,3.31.52,1.37-1.67,1.62-1,2.91a1.31,1.31,0,0,1-.34.09c-3.32.26-6.66,1-9.84-.82a2.83,2.83,0,0,1-1.57-1.81c-.21-.92-.39-1.87-.61-2.78a17.83,17.83,0,0,0-.74-3.54c.31-.31,1.07.07,1.06-.7l.12,0,.1.05c.42.49,1,.21,1.48.26v0a1.38,1.38,0,0,0,1.45.49l0,0c-.52.52-1.09.27-1.67.12s-1.09,0-1,.82c.1,1.07.12,2.14.3,3.19a1.33,1.33,0,0,0,1.52,1.21c1.13-.09,2.49.43,2.95-1.24,0-.08.2-.17.3-.16,1.61,0,1.64-1.52,2.24-2.39s1.33-1.35,2.25-.87a2,2,0,0,0,2.88-.83c.82-1.39,2.13-2.61,1.73-4.49a.42.42,0,0,1,.47-.54.43.43,0,0,1,.45.56c-.26,1.86.27,3.67.12,5.57-.3,3.49-.09,7-.1,10.53A.51.51,0,0,0,334.88,418.94Z" transform="translate(-254.78 -369.58)"/><path class="cls-2" d="M333.7,445.81h1a1.41,1.41,0,0,1-.2.79,29.23,29.23,0,0,0-4,7.8c-.49,1.74-2.06,2.56-3.47,3.36-1,.59-2.33.66-3.28,1.57-.49.46-1.42-.12-2,.55-.16.19-.57.21-.42.58s.4.2.64.22c.57,2.06,1.78,4,1.43,6.24-.66.37-1.33.79-1.21-.56a.43.43,0,0,0-.11-.33c-1.11-1.2-1.07-2.68-1.07-4.16,0-.61,0-1.2-.72-1.49-.27-.11-.27-.54,0-.56,1.33-.09,1.83-1.41,2.93-1.92.74-.34,1.77-.31,2.26-1.12a42.21,42.21,0,0,1,3.23-4.49c1.6-2,2.46-4.58,4.83-6C333.62,446.26,333.63,446,333.7,445.81Z" transform="translate(-254.78 -369.58)"/><path class="cls-4" d="M332.51,397.81H332c-.46,0-.62-.4-.73-.69-.67-1.59-2-2.61-3.16-3.76-.33-.33-.78-.55-.9-1.06a.53.53,0,0,0,.5-.25,1.59,1.59,0,0,1,1,.24,43.89,43.89,0,0,1,3.49,4.55A1.53,1.53,0,0,1,332.51,397.81Z" transform="translate(-254.78 -369.58)"/><path class="cls-10" d="M273,460.66c.32.11.65-.41,1,0,0,2.31,0,4.63,0,6.95a2.79,2.79,0,0,1-.74,2.17h-.6a.76.76,0,0,1-.68-.41c1.4-1.46,1.13-3.35,1.2-5.1a23.32,23.32,0,0,0-.4-3.61Z" transform="translate(-254.78 -369.58)"/><path class="cls-8" d="M272.77,460.68a23.32,23.32,0,0,1,.4,3.61c-.07,1.75.2,3.64-1.2,5.1l-.46-.25a27.21,27.21,0,0,0,.54-7.42C272.05,461.21,271.94,460.62,272.77,460.68Z" transform="translate(-254.78 -369.58)"/><path class="cls-4" d="M256.64,448s-.08,0-.09,0a.38.38,0,0,1,0-.1l.08,0A.42.42,0,0,1,256.64,448Z" transform="translate(-254.78 -369.58)"/><path class="cls-3" d="M308.51,372.87c.16,0,.44,0,.45-.05.34-1.79,1.33-.49,2-.36.47.1.88.49,1.43.4h0a.73.73,0,0,0,.49.73c.38,1,0,2.12.46,3.12.05,2.47-.39,4.94-.21,7.42l-.49,0c-.55-.95-1.45-.28-2.17-.48-.18-.28-.48-.21-.74-.26-1.3-.24-1.51-.53-1.22-1.85a6.83,6.83,0,0,0-.19-1.87,20.74,20.74,0,0,1,.2-5.28,7.19,7.19,0,0,0,0-1.54Z" transform="translate(-254.78 -369.58)"/><path class="cls-8" d="M313.09,384.13c-.18-2.48.26-4.95.21-7.42.21.18.43.52.66,0l.05.49v.68a27.92,27.92,0,0,0-.19,4.57v.25C313.7,383.25,314.1,384.05,313.09,384.13Z" transform="translate(-254.78 -369.58)"/><path class="cls-4" d="M311.39,384.86v.72c-.33,0-.68,0-.73.45h-.46c-.06-.61-1.08-.4-1-1.15l.72,0Z" transform="translate(-254.78 -369.58)"/><path class="cls-6" d="M310.43,383.67c.72.2,1.62-.47,2.17.48a4.12,4.12,0,0,1-2.17-.24Z" transform="translate(-254.78 -369.58)"/><path class="cls-3" d="M310,384.85l-.72,0h-.73a.45.45,0,0,1-.48-.48v0C308.67,384.57,309.51,383.92,310,384.85Z" transform="translate(-254.78 -369.58)"/><path class="cls-3" d="M313.82,382.71v-.25l.29.13Z" transform="translate(-254.78 -369.58)"/><path class="cls-6" d="M327.71,392.06a.53.53,0,0,1-.5.25,12.77,12.77,0,0,1-1.44-.8,12.26,12.26,0,0,0-5.74-2.34c-.25-.52-.8-.59-1.23-.83-.59-.33-1.34.17-1.89-.37.11-.29.35-.61-.21-.7a11.13,11.13,0,0,0-2.43-.48l0-.45.52,0a51.83,51.83,0,0,1,8.63,2.91C324.94,389.9,326.71,390.44,327.71,392.06Z" transform="translate(-254.78 -369.58)"/><path class="cls-9" d="M314.23,386.34l0,.45c-.06.55.8.4.73,1a1.5,1.5,0,0,0,0,.22l-1.42.23v0c0-.19-.09-.37-.33-.39s-.37.18-.41.42h-.47c-.44-.39-.77-.29-1.45.46l-.47,0c-.47-.49-.91,0-1.3.1a3.92,3.92,0,0,1-1.81.4c.08-.48.19-.88.8-1,1.44-.21,1.72-.58,1.83-2.12l.25-.08h.46c.27,0,.54.09.73-.19h.93l0,.46c.37.76.78.72,1.21.05v0Z" transform="translate(-254.78 -369.58)"/><path class="cls-4" d="M314.23,386.34h-.66c-.09-.17-.17-.34-.25-.51.48.16,1.18-.38,1.43.47Z" transform="translate(-254.78 -369.58)"/><path class="cls-6" d="M313.32,385.82c.08.17.16.34.25.51v0l-1.21-.05,0-.46Z" transform="translate(-254.78 -369.58)"/><path class="cls-6" d="M311.39,385.84c-.19.28-.46.23-.73.19,0-.47.4-.44.73-.45Z" transform="translate(-254.78 -369.58)"/><path class="cls-3" d="M305.63,371.67v-.24a13.46,13.46,0,0,1,1.42,0c.51,0,.62.3.25.7a3.25,3.25,0,0,0-1.66-.26C305.64,371.82,305.64,371.74,305.63,371.67Z" transform="translate(-254.78 -369.58)"/><path class="cls-6" d="M306.11,383.66c0-.24,0-.48,0-.72.57.06,1.32-.23,1.44.72Z" transform="translate(-254.78 -369.58)"/><path class="cls-3" d="M308.51,372.87c-.54-.1-.55-.41-.32-.84.52.14.24.56.32.84Z" transform="translate(-254.78 -369.58)"/><path class="cls-3" d="M305.63,371.43l-.23-.24Z" transform="translate(-254.78 -369.58)"/><path class="cls-4" d="M279.24,374.54a81.21,81.21,0,0,1-.23,9.36c-.25,0-.62.1-.63-.33,0-2.44-.09-4.88-.06-7.32A2.09,2.09,0,0,1,279.24,374.54Z" transform="translate(-254.78 -369.58)"/><path class="cls-6" d="M314,376.72c-.23.51-.45.17-.66,0-.46-1-.08-2.12-.46-3.12l.45-.24.26.24c.51.82,0,1.82.48,2.63C314,376.38,314,376.55,314,376.72Z" transform="translate(-254.78 -369.58)"/><path class="cls-5" d="M314,376.72l.07-.5a.6.6,0,0,1,0,1C314,377.05,314,376.88,314,376.72Z" transform="translate(-254.78 -369.58)"/><path class="cls-4" d="M291.24,382.94l-3.84,0c0-.77-1.33-.3-1.18-1.19s-.42-1.15-1-1.48c-.13-.87.28-1.79-.24-2.62v-1l.24-2.64c.48-.48.22-1,0-1.45,1.34-1.5,3.26-1.26,5-1.66a4.66,4.66,0,0,1,1.06,0,2.23,2.23,0,0,1,.29,1.86,3.67,3.67,0,0,0,0,1.89,3.54,3.54,0,0,1,0,2.09.69.69,0,0,0,0,.47C292.12,379.18,291.49,381.05,291.24,382.94Z" transform="translate(-254.78 -369.58)"/><path class="cls-6" d="M285.23,372.62c.22.48.48,1,0,1.45A1.15,1.15,0,0,1,285.23,372.62Z" transform="translate(-254.78 -369.58)"/><path class="cls-8" d="M333.7,445.81c-.07.18-.08.45-.22.53-2.37,1.37-3.23,4-4.83,6a42.21,42.21,0,0,0-3.23,4.49c-.49.81-1.52.78-2.26,1.12-1.1.51-1.6,1.83-2.93,1.92-.23,0-.23.45,0,.56.71.29.71.88.72,1.49,0,1.48,0,3,1.07,4.16a.43.43,0,0,1,.11.33c-.12,1.35.55.93,1.21.56l.06,1a1.41,1.41,0,0,1-1.24,1.45c0-.3.09-.68-.19-.89a5.12,5.12,0,0,1-2-4.69c0-.87,0-1.74,0-2.61l.22-.07s0-.09,0-.09a2.42,2.42,0,0,0-1.47-.3h-4.54c0-.32,0-.64,0-1,.05-1,0-2-1.38-2-.44,0-.58-.42-.53-.81.13-1.05,0-2,1.35-2.72s2.17-2.28,3.63-3a.64.64,0,0,0,.26-.51c-.06-1.09.73-1.29,1.51-1.52a21.29,21.29,0,0,0,4.27-1.31,10.16,10.16,0,0,1,3.26-1.07c.69-.12,1.34.2,2.09-.14a9,9,0,0,1,5-.88Z" transform="translate(-254.78 -369.58)"/><path class="cls-4" d="M313.29,373.35l-.45.24a.73.73,0,0,1-.49-.73l1,.11V373Z" transform="translate(-254.78 -369.58)"/><path class="cls-2" d="M273.25,469.79a2.79,2.79,0,0,0,.74-2.17c-.05-2.32,0-4.64,0-6.95h1.44c.08.57.52.68,1,.72,4.15.33,8.3.85,12.45.92,8.12.15,16.24.05,24.37,0,.19,0,.45.06.58,0a3.66,3.66,0,0,1,2.42-.43c.22.32,1.36.46.2,1.07-.12.06-.17.34-.19.52a4.22,4.22,0,0,0,1,3.56c.85.9,1.32,2.2,2.66,2.64.13,0,.15.42.22.64l-.09,0-.08,0-.39.22-.31,0a.65.65,0,0,0-.66.25h-.31a.64.64,0,0,0-.65.25l-.87.14c0-.56-.28-.93-.89-.89-2.68.21-5.3-.64-8-.49a1.68,1.68,0,0,1-1.05-.17,6.42,6.42,0,0,0-5.33-.34c-1.82.58-3.69.29-5.46,1-2,.76-4.21.26-6.27.59-3.18.5-6.34-.14-9.51.06a18.56,18.56,0,0,1-4.46-.12h-.31a2,2,0,0,0-1.87-.7h-.32A2.64,2.64,0,0,0,273.25,469.79Z" transform="translate(-254.78 -369.58)"/><path class="cls-2" d="M275.77,470.77a18.56,18.56,0,0,0,4.46.12c3.17-.2,6.33.44,9.51-.06,2.06-.33,4.27.17,6.27-.59,1.77-.67,3.64-.38,5.46-1a6.42,6.42,0,0,1,5.33.34,1.68,1.68,0,0,0,1.05.17c2.67-.15,5.29.7,8,.49.61,0,.85.33.89.89a27.4,27.4,0,0,1-5.95,1.05,115,115,0,0,1-16.6.68,101.7,101.7,0,0,1-16.87-1.56A2.63,2.63,0,0,1,275.77,470.77Z" transform="translate(-254.78 -369.58)"/><path class="cls-10" d="M320.07,470.31c-.07-.22-.09-.6-.22-.64-1.34-.44-1.81-1.74-2.66-2.64a4.22,4.22,0,0,1-1-3.56c0-.18.07-.46.19-.52,1.16-.61,0-.75-.2-1.07.39-.41.9-.22,1.35-.23.67,0,1.17-.19,1.27-.95a2.42,2.42,0,0,1,1.47.3s0,.08,0,.09l-.22.07c-.93.28-1.68.49-1.84,1.81a6.21,6.21,0,0,0,1.33,4.35,10.25,10.25,0,0,1,1.52,2.6A1.22,1.22,0,0,1,320.07,470.31Z" transform="translate(-254.78 -369.58)"/><path class="cls-7" d="M321,469.92a10.25,10.25,0,0,0-1.52-2.6,6.21,6.21,0,0,1-1.33-4.35c.16-1.32.91-1.53,1.84-1.81,0,.87,0,1.74,0,2.61a5.12,5.12,0,0,0,2,4.69c.28.21.15.59.19.89A2.2,2.2,0,0,1,321,469.92Z" transform="translate(-254.78 -369.58)"/><path class="cls-11" d="M273.59,470.08a2,2,0,0,1,1.87.7A1.79,1.79,0,0,1,273.59,470.08Z" transform="translate(-254.78 -369.58)"/><path class="cls-11" d="M273.25,469.79a2.64,2.64,0,0,1,0,.29.57.57,0,0,1-.62-.28Z" transform="translate(-254.78 -369.58)"/><path class="cls-11" d="M318.54,470.79a.65.65,0,0,1,.66-.25A.55.55,0,0,1,318.54,470.79Z" transform="translate(-254.78 -369.58)"/><path class="cls-11" d="M317.58,471a.64.64,0,0,1,.65-.25A.5.5,0,0,1,317.58,471Z" transform="translate(-254.78 -369.58)"/><path class="cls-11" d="M319.51,470.52l.39-.22Z" transform="translate(-254.78 -369.58)"/><path class="cls-6" d="M304.92,385.08c-1.81-.05-3.62-.34-5.44-.23a.49.49,0,0,1-.57-.46l3.85,0h1C304,384.88,304.84,384.31,304.92,385.08Z" transform="translate(-254.78 -369.58)"/><path class="cls-4" d="M304.92,385.08c-.08-.77-1-.2-1.2-.7.59-.5,1.19-.08,1.8,0,.84.07,1.68,0,2.51,0a.45.45,0,0,0,.48.48v.26l-1.42.19c-.28-.71-.73-.54-1.2-.23Z" transform="translate(-254.78 -369.58)"/><path class="cls-2" d="M316.91,388c.55.54,1.3,0,1.89.37.43.24,1,.31,1.23.83a6.89,6.89,0,0,0,3.78,4.35,4.27,4.27,0,0,1,1.63.93c1.18,1.29,2.45,2.48,3.52,3.89a3.49,3.49,0,0,0,3.54,1.4c.95.78.41,1.8.37,2.71,0,.36.09,1-.61,1.13a2.7,2.7,0,0,0-3.2-.12,1.23,1.23,0,0,1-1.33-.19,40.37,40.37,0,0,0-4.64-2.67c-1.89-.86-3.68-1.67-4.08-4a1.36,1.36,0,0,0-.51-.65,29.34,29.34,0,0,1-3.61-3.78c-.68-.81-.58-1.77-1-2.6-.24-.47.76-.22.94-.64a3.29,3.29,0,0,0,.16-.69.49.49,0,0,0,.48-.25Z" transform="translate(-254.78 -369.58)"/><path class="cls-2" d="M315,388.23a3.29,3.29,0,0,1-.16.69c-.18.42-1.18.17-.94.64.42.83.32,1.79,1,2.6a29.34,29.34,0,0,0,3.61,3.78,1.36,1.36,0,0,1,.51.65c.4,2.34,2.19,3.15,4.08,4a40.37,40.37,0,0,1,4.64,2.67,1.23,1.23,0,0,0,1.33.19,2.7,2.7,0,0,1,3.2.12c-.74,1.25-2.06,1-3.16,1.09a25.4,25.4,0,0,1-3.65-.38c-1.8-.16-2.81-1.56-4-2.59a14.69,14.69,0,0,1-3.33-4.24c-.5-.93-1.49-1.39-2.21-2.11s-1-1.47-1.88-1.71c-.23-.06-.46-.1-.7-.14l-1.69-1.19a2.87,2.87,0,0,0-.52-1.63c-.17-.25-.28-.58,0-.7.69-.27.43-.82.49-1.28l.71,0c.67.51,1,.13,1.22-.48L315,388Z" transform="translate(-254.78 -369.58)"/><path class="cls-2" d="M332.5,399.74a3.49,3.49,0,0,1-3.54-1.4c-1.07-1.41-2.34-2.6-3.52-3.89a4.27,4.27,0,0,0-1.63-.93,6.89,6.89,0,0,1-3.78-4.35,12.26,12.26,0,0,1,5.74,2.34,12.77,12.77,0,0,0,1.44.8c.12.51.57.73.9,1.06,1.17,1.15,2.49,2.17,3.16,3.76.11.29.27.69.73.69C331.88,398.54,332.41,399.08,332.5,399.74Z" transform="translate(-254.78 -369.58)"/><path class="cls-9" d="M315.25,395.89c.81.71,1.78,1.32,1.91,2.55.07.63.88.68.95,1.3,0,.39-.19.77-.22,1.11-.07.74-.55,1.57.2,2.25a.46.46,0,0,0-.47.28l-.95-.09.24-2.59a.67.67,0,0,0,.4-.87,4.11,4.11,0,0,0-3.82-3.19,1.62,1.62,0,0,1-1.38-.74c-.57-.79-1.12-1.6-1.68-2.39a4.68,4.68,0,0,1,2.87.48h0a1,1,0,0,0,.95.95h0A1,1,0,0,0,315.25,395.89Z" transform="translate(-254.78 -369.58)"/><path d="M319.05,406.18l-.1-.05-.12,0c-.29-.13-.67.05-.91-.27a5,5,0,0,0,.16-2.28l.52-.09.67.09a11.36,11.36,0,0,1,3.56,1.87,6.69,6.69,0,0,1,1.55,2.62c-1-.17-1.54-1-2.39-1.21l0,0a1.87,1.87,0,0,0-1.45-.49v0C320.09,406,319.55,406.23,319.05,406.18Z" transform="translate(-254.78 -369.58)"/><path class="cls-2" d="M319.27,403.6l-.67-.09-.51-.41c-.75-.68-.27-1.51-.2-2.25,0-.34.21-.72.22-1.11.23,0,.59,0,.62.21a20.64,20.64,0,0,0,1.08,3.19C320,403.75,319.51,403.51,319.27,403.6Z" transform="translate(-254.78 -369.58)"/><path class="cls-7" d="M313.3,394a4.68,4.68,0,0,0-2.87-.48h-.23c-.23-.64-.44-1.3-1.23-1.44-.59-.11-.41-.58-.47-.95h0c1.19,0,1.88,1.28,3.1,1.21l1.69,1.19Z" transform="translate(-254.78 -369.58)"/><path class="cls-7" d="M314.26,394.94a1,1,0,0,1-.95-.95A1,1,0,0,1,314.26,394.94Z" transform="translate(-254.78 -369.58)"/><path class="cls-7" d="M315.25,395.89a1,1,0,0,1-1-.94A1,1,0,0,1,315.25,395.89Z" transform="translate(-254.78 -369.58)"/><path class="cls-2" d="M310.2,393.5h.23c.56.79,1.11,1.6,1.68,2.39a1.62,1.62,0,0,0,1.38.74,4.11,4.11,0,0,1,3.82,3.19.67.67,0,0,1-.4.87c-.39-.7-1.06-.63-1.74-.75-1.75-.33-3.94,1.1-5.21-1.24-1.59,0-3-1-4.49-1-1.8,0-3.65.05-5.48.11-.74,0-1.27.24-1.3,1.06a1.36,1.36,0,0,1-.75,1.13c-.32.22-.77.51-.82.82-.16,1-.89.93-1.52.81a37,37,0,0,0-7.13-.45c-1.25,0-2.55.21-3.47-1a1.87,1.87,0,0,1-.48-1.44.49.49,0,0,1,.46-.26,1.52,1.52,0,0,0,1.18-.46,3.15,3.15,0,0,1,1.84-1.21,2.37,2.37,0,0,0,1.33-1.29c.35-.7.71-1.47,1.53-1.72a4.12,4.12,0,0,0,1.9-1.56c.56-.66.46-1.18-.56-1.18a1.76,1.76,0,0,0-.23,0l-.7,0a2.27,2.27,0,0,0-2.18-.93c-.06-.5-.46-.62-.85-.69s-.67-.09-.77-.45c-.2-.66-.66-.57-1.14-.46a7.1,7.1,0,0,1-3.22-.09c-1.37-.32-2.56-.83-4-.28-.62.23-.85.4-.81,1h-.47c-.81-.71-1.23-.05-1.69.48l-.47,0c-.25-.36-.56-.24-.84-.06-1.3.87-2.91,1.26-3.95,2.55-.17.22-.43.45-.71.36-1.41-.46-1.46.6-1.69,1.46a9.53,9.53,0,0,1-.25,1.92c-.84-.06-.69.54-.72,1.05-.14,2.78.14,5.54.05,8.32a93.27,93.27,0,0,0,.63,15.31,3.84,3.84,0,0,0,1,2.06c1.38,1.7,3.17,3.11,4,5.23A1.58,1.58,0,0,0,274.9,429c2-.47,4,.2,6.06.07a2.75,2.75,0,0,0,2.89-2.08c.08-.2.37-.33.44-.53.25-.71,1-1.39.23-2.22,0-.13,0-.27,0-.4l.34-.13c.57.1,1.05.06,1.08-.68h0c.49.05,1,.07,1.32-.36a10,10,0,0,0,1.8-4.52,9,9,0,0,0-.6-3.81c-.17-.5-.53-1.21-1.37-1.06h0c0-.2.08-.47,0-.58-1.11-1.27-.87-2.8-.9-4.28a1,1,0,0,1,.88.28,1.57,1.57,0,0,0,2.12.44c-.24,1.21-.23,2.23,1.22,2.43.3.05.32.31.34.56a14.26,14.26,0,0,0,.52,1.56c.22,1.05.71,2.1.05,3.21s0,2.47.15,3.69a.58.58,0,0,0,.37.43c1.31.08,1.06,1,1.07,1.85s0,1.68,0,2.52c0,.6-.15,1-.85,1s-1.06.44-1.07,1.16.27,1.19,1,1.21.94.45.91,1.1c0,.44,0,.88,0,1.32,0,.83.2,1.42,1.16,1.44.56,0,.76.36.76.87s0,1,0,1.44a1.39,1.39,0,0,0,1.57,1.53h1.44c.71,0,.9.46.81,1-.15,1-1.08.7-1.7.86s-1.73-.41-2,.82c0,.08-.41.17-.53.1-1.05-.63-2.24-.12-3.35-.46a18.51,18.51,0,0,1-4.8-2c-1-.67-2,.17-2.86-.34l0,.47-.15,1c-.11.4,0,.66.46.62l0,0a.27.27,0,0,0,.24.28v0c-.12.77.2,1.1,1,1h0c-.05.79.46.8,1,.75l2,1c-.18.4-.71.05-1.06.57.73-.25,1.09.11,1.51.43a1.68,1.68,0,0,0,2.44-.08l.47.08c-.11.65.23.85.83,1s.68-.38,1.07-.33c.17,0,.43-.15.47.13s-.4.1-.33.33a56.69,56.69,0,0,0,6.63.25c.35,0,.65.07.67.5s.1,1-.34,1c-1.12.08-2,1.11-3.16.88a4,4,0,0,0-1.43,0,1,1,0,0,0-.81,1c0,.46.17.84.67.82,2.31-.11,4.6.41,6.91.24,2.68-.18,5.31-.88,8-.7a.48.48,0,0,1-.45.47,65.94,65.94,0,0,1-10.3.68c-1.83-.11-3.65-.13-5.47-.19a30.77,30.77,0,0,1-3.45-.17c-.68-.1-1.43-.52-2.16-.07h-1.19c-.52-1.2-1.59-.54-2.41-.72a3.32,3.32,0,0,1-1.29-.12c-1.52-.68-3.13-.3-4.7-.36h-.48a1.13,1.13,0,0,0-.85-.39c-2.72-.36-5.35-1.37-8.17-1.07a33.25,33.25,0,0,1-3.46,0h-3.59c-.29-.87-1-.42-1.53-.45-1.38-.08-1.61-.24-1.59-1.63,0-2.15,0-4.28.19-6.43.26-3.37.13-6.76.22-10.14.2-7.21.06-14.44.06-21.65v-1.68c0-.33.11-.7-.22-1v-.71c0-.16,0-.32,0-.47,1.17-.23.92-1.15,1-1.93h0c.66-.15.55-.75.7-1.2s.18-.84.31-1.25c.24-.78,1.16-1.18,1.16-2.1L263,395c1.31-.73,2.19-2,3.34-2.89h0a19,19,0,0,0,3.85-2.19,19.67,19.67,0,0,1,2.14-1,43.77,43.77,0,0,1,8.64-2.44,38.64,38.64,0,0,1,5.59-.83c3.49-.19,7-.49,10.47-.45s7.21.44,10.81.68c.11.53.35.62.73.21l1.43.06c-.11,1.54-.39,1.91-1.83,2.12-.61.09-.72.49-.8,1-.18.27-.46.23-.72.24-.63,0-1,.53-1.35.89-.73.65-.48,1.45.48,1.72C307.24,392.46,308.88,392.46,310.2,393.5ZM289,420c0,.06-.1.14-.08.19s.12.06.19.09.09-.15.07-.19S289.08,420,289,420Z" transform="translate(-254.78 -369.58)"/><path class="cls-7" d="M278.53,447.24H279c.09.07.17.19.27.21a39.07,39.07,0,0,1,5.58,1.62c.1,0,.27.08.34,0,1.31-1,2,.43,2.42,1a5.61,5.61,0,0,0,2.91,2.24c.68.24,1.06,1.39.52,1.57-1,.35-2.06,1.28-3.06.94-1.63-.55-3.24-.29-4.85-.38a3.24,3.24,0,0,1-1.79-.48c-.61-.41-1.41-.59-1.89.37-.2.43-.7.82-1,.3-.79-1.41-2.41-.82-3.47-1.59a5.67,5.67,0,0,0-1.44-.46c-1.11-.33-1.65.14-1.49,1.24s1.41,1.92,1.34,3.21c0,.08.24.19.38.25,1.63.66,3.29,1.25,4.87,2,.44.22,1.11.6,1.07,1.36l-4.09,0c.23-.64,0-.82-.6-1.27-2-1.43-4.82-1.22-6.49-3.27a.82.82,0,0,0-.41-.22,4.5,4.5,0,0,1-3.29-5c0-.53,0-1-.57-1.31a.77.77,0,0,1-.38-.58c-.44-1.85-.61-2-2.58-2.22-.67-.06-1.07-.24-1-1h5.76a.68.68,0,0,0,.66.71,17.28,17.28,0,0,0,4.86.2,5.38,5.38,0,0,1,2.54.3c.79.25,1.48,1.09,2.39.27.05,0,.25,0,.33.11C277.45,447.94,278,447.61,278.53,447.24Z" transform="translate(-254.78 -369.58)"/><path class="cls-2" d="M275.64,460.66l4.09,0c.2.26.49.23.76.24,1.95,0,3.89.15,5.83.18,7.72.13,15.45.06,23.18,0,.38,0,.84.12.94-.46a8.4,8.4,0,0,1,1.42.05,3.39,3.39,0,0,0,2.41-.05h4.54c-.1.76-.6.93-1.27.95-.45,0-1-.18-1.35.23a3.66,3.66,0,0,0-2.42.43c-.13.1-.39,0-.58,0-8.13,0-16.25.11-24.37,0-4.15-.07-8.3-.59-12.45-.92-.44,0-.88-.15-1-.72Z" transform="translate(-254.78 -369.58)"/><path class="cls-10" d="M262.46,445.8h-2.17a3.1,3.1,0,0,1-1.8-.47c-.43-.2-.52-.42-.53-.91,0-4,1.05-8,.66-12.06.66-.12.47-.64.47-1,0-2.21,0-4.43,0-6.64V423c.39-.35.23-.82.23-1.24,0-5,0-10.07,0-15.1,0-.42-.27-1,.46-1.17,0,7.21.14,14.44-.06,21.65-.09,3.38,0,6.77-.22,10.14-.17,2.15-.15,4.28-.19,6.43,0,1.39.21,1.55,1.59,1.63C261.44,445.38,262.17,444.93,262.46,445.8Z" transform="translate(-254.78 -369.58)"/><path class="cls-7" d="M259.81,405.5c-.73.16-.46.75-.46,1.17,0,5,0,10.07,0,15.1,0,.42.16.89-.23,1.24-.51-.22-.48-.67-.48-1.12V404.51c0-.51,0-1,.71-.93a.51.51,0,0,0,.48.24Z" transform="translate(-254.78 -369.58)"/><path class="cls-7" d="M262.71,395.19c0,.92-.92,1.32-1.16,2.1-.13.41-.21.83-.31,1.25-.78.07-.7.66-.7,1.2h0c-.8.16-.34,1.16-1,1.44-.65-1.24.19-2.17.67-3.17.36-.74,1.16-1.21,1.24-2.11a1.93,1.93,0,0,0,0-.24Z" transform="translate(-254.78 -369.58)"/><path class="cls-7" d="M259.1,424.69c0,2.21,0,4.43,0,6.64,0,.4.19.92-.47,1a1.46,1.46,0,0,1-.23-1,33.58,33.58,0,0,0,.23-5.84C258.63,425.14,258.59,424.75,259.1,424.69Z" transform="translate(-254.78 -369.58)"/><path class="cls-10" d="M259.58,401.18c.62-.28.16-1.28,1-1.44,0,.78.22,1.7-1,1.93C259.58,401.5,259.58,401.34,259.58,401.18Z" transform="translate(-254.78 -369.58)"/><path class="cls-10" d="M259.81,403.82a.51.51,0,0,1-.48-.24v-.72h.25C259.92,403.12,259.79,403.49,259.81,403.82Z" transform="translate(-254.78 -369.58)"/><path class="cls-7" d="M259.59,402.85h-.25c-.39-.4-.27-.63.24-.72Z" transform="translate(-254.78 -369.58)"/><path class="cls-8" d="M268.93,389.42c-.26,1-1.23,1.25-2,1.64a.94.94,0,0,0-.64,1h-1.2c.05-.15,0-.38.14-.43C266.48,390.92,267.44,389.72,268.93,389.42Z" transform="translate(-254.78 -369.58)"/><path class="cls-8" d="M262.71,395.19l-1.21.47c.08-1,.8-1.43,1.67-1.68h0c-.08.33-.16.65-.23,1Z" transform="translate(-254.78 -369.58)"/><path class="cls-8" d="M271.57,388.23a2.6,2.6,0,0,1-2.4,1.19A4.67,4.67,0,0,1,271.57,388.23Z" transform="translate(-254.78 -369.58)"/><path class="cls-8" d="M263.17,394a1,1,0,0,1,1.2-1.2h0a2.27,2.27,0,0,1-1.2,1.2Z" transform="translate(-254.78 -369.58)"/><path class="cls-8" d="M264.37,392.78q-.08-.79.72-.72h0a.68.68,0,0,1-.72.71Z" transform="translate(-254.78 -369.58)"/><path class="cls-6" d="M285.23,380.29c.57.33,1.14.63,1,1.48s1.16.42,1.18,1.19c-.67.46-1.43.12-2.15.22-.54-.92-.1-1.93-.27-2.88Z" transform="translate(-254.78 -369.58)"/><path class="cls-7" d="M285.23,380.29H285a3.38,3.38,0,0,1,0-2.63C285.51,378.5,285.1,379.42,285.23,380.29Z" transform="translate(-254.78 -369.58)"/><path class="cls-6" d="M310,386.1l-1.43-.06a1.62,1.62,0,0,0,0-.22c0-.23,0-.46,0-.69v-.26h.73c-.12.75.9.54,1,1.15Z" transform="translate(-254.78 -369.58)"/><path class="cls-6" d="M305.88,385.09c.47-.31.92-.48,1.2.23C306.67,385.3,306.21,385.5,305.88,385.09Z" transform="translate(-254.78 -369.58)"/><path class="cls-9" d="M308.51,385.82a1.62,1.62,0,0,1,0,.22c-.38.41-.62.32-.73-.21Z" transform="translate(-254.78 -369.58)"/><path class="cls-7" d="M314.27,460.69a3.39,3.39,0,0,1-2.41.05,8.4,8.4,0,0,0-1.42-.05c-.6-.5-1.31-.23-2-.23-1,0-1.85,0-2.14-1.2a.61.61,0,0,0-.62-.48,9.35,9.35,0,0,1-3.91-.7c-.64-.21-1-.34-1-1.05s-.13-1.35.88-1.67c1.23-.39,1.52-1.95,2.69-2.54.1-.05,0-.46.06-.69.1-.42.22-.91.73-1a49.25,49.25,0,0,0,5-1.6c.88-.26,2.09-.24,2.63-1.33h.48c.78.39,1.48.48,1.92-.48,1.91-.57,3.88-.8,5.82-1.2a.71.71,0,0,0,.66-.71h3.11c1.43-.25,2.89-.16,4.21-1.05a3.16,3.16,0,0,1,2.85-.43c.53.19,1.37.1,1.41-.51.08-1.15.86-2.18.59-3.33-.77-3.22-.06-6.57-.86-9.8-.22-.89.16-2-1.16-2.29-.13,0-.28-.3-.29-.47a1.15,1.15,0,0,0-1.11-1.17c-.25,0-.67-.28-.67-.42,0-1.17-1.12-1.74-1.35-2.8-.38-1.7-1-2-2.7-1.76a2.08,2.08,0,0,1-1.62-.21,2.32,2.32,0,0,0-1.68-.47,1.26,1.26,0,0,1-1.24-.75c-.81-1.28-1.67-2.52-2.47-3.79a.84.84,0,0,0-.86-.5,3.18,3.18,0,0,0-1.19-2.16v-.48c.29-.07.56.35.87,0a9.53,9.53,0,0,1-.63-3.45,12.39,12.39,0,0,0-.24-3.54.44.44,0,0,0,.48-.5l.77-.08c.24.32.62.14.91.27,0,.77-.75.39-1.06.7a17.83,17.83,0,0,1,.74,3.54c.22.91.4,1.86.61,2.78a2.83,2.83,0,0,0,1.57,1.81c3.18,1.82,6.52,1.08,9.84.82a1.31,1.31,0,0,0,.34-.09c-.69-1.29,1.5-1.54,1-2.91-.44-1.17.81-2.13.9-3.31,0-.19.31-.36.57-.35s.47.31.53.57a5.39,5.39,0,0,1,.09,1.07c0,3.91-.17,7.83,0,11.73.31,5.69.5,11.37.45,17.07,0,.5.21,1,.21,1.52,0,1.62.38,3.34-.95,4.69a9,9,0,0,0-5,.88c-.75.34-1.4,0-2.09.14a10.16,10.16,0,0,0-3.26,1.07,21.29,21.29,0,0,1-4.27,1.31c-.78.23-1.57.43-1.51,1.52a.64.64,0,0,1-.26.51c-1.46.72-2.27,2.32-3.63,3s-1.22,1.67-1.35,2.72c-.05.39.09.8.53.81,1.42,0,1.43,1,1.38,2C314.26,460.05,314.27,460.37,314.27,460.69Z" transform="translate(-254.78 -369.58)"/><path class="cls-6" d="M320.52,406.42a1.87,1.87,0,0,1,1.45.49A1.38,1.38,0,0,1,320.52,406.42Z" transform="translate(-254.78 -369.58)"/><path class="cls-6" d="M319.05,406.18c.5.05,1-.15,1.48.26C320,406.39,319.47,406.67,319.05,406.18Z" transform="translate(-254.78 -369.58)"/><path class="cls-7" d="M316.91,388h-1.44a.49.49,0,0,0-.47-.23c.07-.56-.79-.41-.73-1a11.13,11.13,0,0,1,2.43.48C317.26,387.36,317,387.68,316.91,388Z" transform="translate(-254.78 -369.58)"/><path class="cls-2" d="M311.62,392.31c-1.22.07-1.91-1.2-3.1-1.21-.07-.14-.09-.34-.2-.41-.95-.68-.44-1,.3-1.2a6.37,6.37,0,0,0,1.81-.8l.47,0,.73,0c-.06.46.2,1-.49,1.28-.32.12-.21.45,0,.7A2.87,2.87,0,0,1,311.62,392.31Z" transform="translate(-254.78 -369.58)"/><path class="cls-7" d="M310.43,388.69a6.37,6.37,0,0,1-1.81.8c-.74.24-1.25.52-.3,1.2.11.07.13.27.2.41h0a1.79,1.79,0,0,0-1.22.32c-.41.27-.86-.05-.62-.4.45-.63-.11-1.08-.06-1.6.26,0,.54,0,.72-.24a3.92,3.92,0,0,0,1.81-.4C309.52,388.65,310,388.2,310.43,388.69Z" transform="translate(-254.78 -369.58)"/><path class="cls-7" d="M311.63,388.7l-.73,0c.68-.75,1-.85,1.45-.46v.47Z" transform="translate(-254.78 -369.58)"/><path class="cls-6" d="M312.34,388.68v-.47h.47l.74,0v0C313.33,388.81,313,389.19,312.34,388.68Z" transform="translate(-254.78 -369.58)"/><path class="cls-7" d="M312.35,386.31l1.21.05C313.13,387,312.72,387.07,312.35,386.31Z" transform="translate(-254.78 -369.58)"/><path class="cls-7" d="M313.56,388.17l-.74,0c0-.24.12-.44.41-.42S313.52,388,313.56,388.17Z" transform="translate(-254.78 -369.58)"/><path class="cls-6" d="M315,387.75a.3.3,0,1,1,0,.48V388A1.5,1.5,0,0,1,315,387.75Z" transform="translate(-254.78 -369.58)"/><path class="cls-2" d="M316.67,413.41c0,.16,0,.32,0,.48a.85.85,0,0,1-.51.49c-.1-.12-.22-.23-.31-.36-1.65-2.17-3.8-3-5.91-2.32a5.64,5.64,0,0,0-3.55,5.45c-.06,4.45,4,8.52,8.28,6.18a1.34,1.34,0,0,1-1.72,1.3c-.77-.1-1.48.16-2.23.08-.54-.06-.75.31-.78.83s.12.89.63,1,.87,0,1.3.09.87.17.94.74-.06.95-.63,1.11c-.35.1-.78.2-.76.63.06,1.25-.37,2.54.28,3.74.88,1.62.48,3.38.55,5.09,0,.06-.25.13-.47.11l.08.09a1,1,0,0,0,.08-.23c0-.17,0-.22-.18-.15s0,.14,0,.29a22.86,22.86,0,0,0,.49,2.49,1,1,0,0,1-1.28,1.32c-.57-.15-1,.12-1.5.17s-.49.36-.5.71,0,.55.36.67a6.43,6.43,0,0,0,1.22.45c.68.08,1.5,0,1.65.85s.75,1.19,1,1.83a.49.49,0,0,1-.36.65c-.28.1-.53.19-.54.54h-1.92c-2.7-.18-5.33.52-8,.7-2.31.17-4.6-.35-6.91-.24-.5,0-.67-.36-.67-.82a1,1,0,0,1,.81-1,4,4,0,0,1,1.43,0c1.2.23,2-.8,3.16-.88.44,0,.36-.64.34-1s-.32-.51-.67-.5a56.69,56.69,0,0,1-6.63-.25c-.07-.23.36-.18.33-.33s-.3-.11-.47-.13c-.39-.05-.55.48-1.07.33s-.94-.37-.83-1a.82.82,0,0,1,.74.14c0,.17-.25.4,0,.49s.4-.16.43-.42a39.39,39.39,0,0,0,9.08,0,16.62,16.62,0,0,0,8.21-3.05,6,6,0,0,0,1.59-1.77.75.75,0,0,0,0-.8c-.19-.28-.51-.18-.77-.11a5.2,5.2,0,0,0-.77.32,30.82,30.82,0,0,1-23.11.91c-1.13-.38-2.09-1.21-3.34-1.25l0-.47c.89.51,1.83-.33,2.86.34a18.51,18.51,0,0,0,4.8,2c1.11.34,2.3-.17,3.35.46.12.07.51,0,.53-.1.32-1.23,1.33-.64,2-.82s1.55.18,1.7-.86c.09-.58-.1-1-.81-1h-1.44a1.39,1.39,0,0,1-1.57-1.53q0-.72,0-1.44c0-.51-.2-.85-.76-.87-1,0-1.2-.61-1.16-1.44,0-.44,0-.88,0-1.32,0-.65-.15-1.07-.91-1.1s-1-.51-1-1.21.34-1.14,1.07-1.16.86-.43.85-1c0-.84,0-1.68,0-2.52s.24-1.77-1.07-1.85a.58.58,0,0,1-.37-.43c-.15-1.22-.86-2.47-.15-3.69s.17-2.16-.05-3.21a14.26,14.26,0,0,1-.52-1.56c0-.25,0-.51-.34-.56-1.45-.2-1.46-1.22-1.22-2.43a1.57,1.57,0,0,1-2.12-.44,1,1,0,0,0-.88-.28c-.32-.41-.22-1.07-.9-1.3-.18-.06.22-.13.33-.23a9.24,9.24,0,0,1,2.71.87,1.4,1.4,0,0,0,2.06-.78c.4-1-.23-1.49-1-1.85a15.43,15.43,0,0,0-4.21-1.28l-.18-.23c.11-.28.39-.68.3-.82-.55-.82-.18-1.7-.3-2.54.92,1.17,2.22,1,3.47,1a37,37,0,0,1,7.13.45c.63.12,1.36.23,1.52-.81.05-.31.5-.6.82-.82a1.36,1.36,0,0,0,.75-1.13c0-.82.56-1,1.3-1.06,1.83-.06,3.68-.14,5.48-.11,1.45,0,2.9,1,4.49,1,1.27,2.34,3.46.91,5.21,1.24.68.12,1.35.05,1.74.75l-.24,2.59-.49,0c-.51-.56-1.48-.06-1.92-.86s-1.26-.72-1.91,0c-.58.06-1.33-.27-1.73.15-1.17,1.22-2.72,1.12-4.14,1.23-1,.08-1.29.35-1.08,1.26l-.47.27-.17-.11-.09.31h0l-.21.27a.2.2,0,0,1-.09.2c-.41.17-.62-.43-1.11-.29a2.68,2.68,0,0,1-.08,1.9c.56-.39.66-1.12,1.2-.65a.22.22,0,0,1,.08.2l.2.29v0a.44.44,0,0,0,.48.46h0c.28.79.28.78.87.39.22-.14.64-.37.72-.29.88.84,1.17-.12,1.69-.47a3.28,3.28,0,0,1,1-.36,5,5,0,0,0,2-.76l.05,0,.05,0,1,.22c.44.09.79.05.78-.52l.06,0,0,0c.3.06.61.14.87-.14l1,0c.07.65.58.44,1,.49a3.45,3.45,0,0,0-.05,3.34,1.83,1.83,0,0,1-.08,1.62C315.5,412.35,316.13,412.85,316.67,413.41Zm-20.84,25.48,0,.12h1.34v-.12Zm3.56,0,.28-.11c-.06,0-.12-.11-.18-.11s-.29,0-.31.05S299.27,438.81,299.39,438.85Zm15.27-32c-.07,0-.15-.09-.2-.07s-.06.12-.09.18.15.1.2.08S314.63,406.94,314.66,406.87Z" transform="translate(-254.78 -369.58)"/><path class="cls-12" d="M304.93,405.29l.47-.27a30.56,30.56,0,0,1,7.42-1.73l1,0a9.56,9.56,0,0,0,2.39,0l.49,0,.95.09.46.22a5,5,0,0,1-.16,2.28l-.77.08a4.44,4.44,0,0,0-1.92,0l-1,0a.93.93,0,0,0-.87.14l0,0-.06,0a4,4,0,0,0-1.79.3l-.05,0-.05,0a12.7,12.7,0,0,0-3,.65c-1.09.27-2.08.95-3.27.84h0l-.48-.46v0l-.2-.29a.22.22,0,0,0-.08-.2v-1a.2.2,0,0,0,.09-.2l.21-.27h0Z" transform="translate(-254.78 -369.58)"/><path class="cls-2" d="M318.08,403.6l-.46-.22a.46.46,0,0,1,.47-.28l.51.41Z" transform="translate(-254.78 -369.58)"/><path class="cls-9" d="M306.6,389.43c-.05.52.51,1,.06,1.6-.24.35.21.67.62.4a1.79,1.79,0,0,1,1.22-.32c.06.37-.12.84.47.95.79.14,1,.8,1.23,1.44-1.32-1-3-1-4.47-1.46-1-.27-1.21-1.07-.48-1.72C305.64,390,306,389.45,306.6,389.43Z" transform="translate(-254.78 -369.58)"/><path class="cls-10" d="M312.83,448.2c-.54,1.09-1.75,1.07-2.63,1.33a49.25,49.25,0,0,1-5,1.6c-.51.09-.63.58-.73,1-.06.23,0,.64-.06.69-1.17.59-1.46,2.15-2.69,2.54-1,.32-.84,1-.88,1.67s.33.84,1,1.05a9.35,9.35,0,0,0,3.91.7.61.61,0,0,1,.62.48c.29,1.18,1.17,1.2,2.14,1.2.65,0,1.36-.27,2,.23-.1.58-.56.46-.94.46-7.73,0-15.46.08-23.18,0-1.94,0-3.88-.14-5.83-.18-.27,0-.56,0-.76-.24,0-.76-.63-1.14-1.07-1.36-1.58-.78-3.24-1.37-4.87-2-.14-.06-.38-.17-.38-.25.07-1.29-1.17-2-1.34-3.21s.38-1.57,1.49-1.24a5.67,5.67,0,0,1,1.44.46c1.06.77,2.68.18,3.47,1.59.29.52.79.13,1-.3.48-1,1.28-.78,1.89-.37a3.24,3.24,0,0,0,1.79.48c1.61.09,3.22-.17,4.85.38,1,.34,2-.59,3.06-.94.54-.18.16-1.33-.52-1.57a5.61,5.61,0,0,1-2.91-2.24c-.39-.55-1.11-1.95-2.42-1-.07,0-.24,0-.34,0a39.07,39.07,0,0,0-5.58-1.62c-.1,0-.18-.14-.27-.21,1.57.06,3.18-.32,4.7.36a3.32,3.32,0,0,0,1.29.12c.62.87,1.57.59,2.41.72h1.19c1.11.67,2.59.38,3.57,1.38.06.06.23,0,.35,0a22.37,22.37,0,0,1,5.72-.13,14.79,14.79,0,0,0,3.92.13C305.68,449,309.33,449.11,312.83,448.2Z" transform="translate(-254.78 -369.58)"/><path class="cls-6" d="M275.65,389.67l.47,0a2.24,2.24,0,0,0,1.69-.48h.47c1,.1,2,.05,3,.12,2.38.17,4.7.74,7.08.87.54.76,1.46.61,2.19.94a5.21,5.21,0,0,1-.25,1.92,28.6,28.6,0,0,0-2.67,2.48c-.87,1-2.14,1.68-2.63,3a.49.49,0,0,0-.46.26c-.51.24-.37.62-.35,1.08,0,1.16.72,2.39-.19,3.5a29,29,0,0,0-8.21.23c-2.26.51-4.25,1.42-5.22,3.73-.11.25-.3.55,0,.75s.46-.07.63-.23a6.94,6.94,0,0,1,4.09-1.78c1.64-.15,3.28-.66,4.93-.06-.06.61.31.71.81.7.83,0,1.5.63,2.45.45-1.24.36-1.24,1.1-.88,2s.39,1.7,1.54,1.79a.92.92,0,0,1,.64.78l-.74,0a3.44,3.44,0,0,0-2.93.37,6.55,6.55,0,0,0-3.39,5.24l-.12.53v.57c.13.34-.61.8.15,1l.06.47a1.23,1.23,0,0,1-1.18-.66c-.23-.31-.48-.75-.88-.73-1.17,0-2.18-.72-3.37-.55a1.56,1.56,0,0,1-1.72-1.34,32.44,32.44,0,0,1-.72-4.17,2.55,2.55,0,0,0-.76-1.66,24.9,24.9,0,0,1-.23-4.56c.47-.69.18-1.46.21-2.19,0-.42.27-1-.44-1.18h0a10.21,10.21,0,0,1,.23-3.12c.49-.54.23-1.37.72-1.92.26,0,.59.22.42.42-.66.77-.06,1.44,0,2.17.14,1.06.81,1.26,1.5.81.86-.56,1.83-.44,2.72-.73.48-.15,1,.08,1.49-.3a1.57,1.57,0,0,1,2.08,0c1,.63,1.66.42,2.35-.63a.71.71,0,0,1,.48-.28,3.05,3.05,0,0,0,2.09-2.25c.08-.27.05-.7.33-.72,1.45-.12,2-1.48,3-2.14a1.22,1.22,0,0,0,.48-1.46c-.11-.61-.21-1.5-.95-1.51a22.48,22.48,0,0,1-5.34-.75c-1.21-.32-2.55.14-3.8-.25a.46.46,0,0,0-.61.22c-.33.75-1.09,1-1.66,1.46-1.47,1.21-3.11,2.31-3.48,4.42a1.31,1.31,0,0,1-1.16,1.06l0-.25c.2-1.17,1.26-1.94,1.46-3.11A19.46,19.46,0,0,1,275.65,389.67ZM281.34,407l-.09.2c.07,0,.15.09.2.07s.1-.13.08-.18S281.41,407.06,281.34,407Z" transform="translate(-254.78 -369.58)"/><path class="cls-12" d="M283.33,436.94c1.25,0,2.21.87,3.34,1.25a30.82,30.82,0,0,0,23.11-.91,5.2,5.2,0,0,1,.77-.32c.26-.07.58-.17.77.11a.75.75,0,0,1,0,.8,6,6,0,0,1-1.59,1.77,16.62,16.62,0,0,1-8.21,3.05,39.39,39.39,0,0,1-9.08,0l-.46-.07a.82.82,0,0,0-.74-.14l-.47-.08-2.89-.92-2-1a2.45,2.45,0,0,0-1-.75h0a3,3,0,0,0-1-1v0l-.24-.28,0,0a.8.8,0,0,0-.46-.62Z" transform="translate(-254.78 -369.58)"/><path class="cls-9" d="M284.52,424.2c.78.83,0,1.51-.23,2.22-.07.2-.36.33-.44.53A2.75,2.75,0,0,1,281,429c-2,.13-4-.54-6.06-.07a1.58,1.58,0,0,1-1.75-1.09c-.84-2.12-2.63-3.53-4-5.23a3.84,3.84,0,0,1-1-2.06,93.27,93.27,0,0,1-.63-15.31c.09-2.78-.19-5.54-.05-8.32,0-.51-.12-1.11.72-1.05a9.11,9.11,0,0,1,0,3.53,14.89,14.89,0,0,0,0,2.5c0,.38-.12.85.48.93h0c0,.24,0,.48,0,.72-.59.09-.47.55-.47.93,0,2.59-.11,5.18,0,7.76a24.16,24.16,0,0,0,.68,5v1.68c-.28,1.19.28,3.32,1.16,3.72s1.33,1.17,2,1.74a7.76,7.76,0,0,0,3.16,2.13,39.52,39.52,0,0,0,4.67.77c2.26.29,3.61-.76,3.65-2.6l-.25-.25C283.66,424.08,284.12,424.27,284.52,424.2Z" transform="translate(-254.78 -369.58)"/><path class="cls-12" d="M284,411.67l.74,0a1,1,0,0,0,.75.29l1.59,1.25h0a8.08,8.08,0,0,1,1.37,4.54,10.53,10.53,0,0,1-1.6,4.39l-.06.07a1.75,1.75,0,0,0-.86.75h0a2.61,2.61,0,0,0-1.08.68l-.34.13-.51.06c0-.3-.73.15-.54-.49a14.26,14.26,0,0,0,.49-5.7c1.88-1.46,1.92-3.19.1-4.54C284,412.64,284.74,412.14,284,411.67Z" transform="translate(-254.78 -369.58)"/><path class="cls-9" d="M312.83,448.2c-3.5.91-7.15.81-10.67,1.62a14.79,14.79,0,0,1-3.92-.13,22.37,22.37,0,0,0-5.72.13c-.12,0-.29.06-.35,0-1-1-2.46-.71-3.57-1.38.73-.45,1.48,0,2.16.07a30.77,30.77,0,0,0,3.45.17c1.82.06,3.64.08,5.47.19a65.94,65.94,0,0,0,10.3-.68.48.48,0,0,0,.45-.47h2.88v.48Z" transform="translate(-254.78 -369.58)"/><path class="cls-10" d="M288.34,390.16c-2.38-.13-4.7-.7-7.08-.87-1-.07-2,0-3-.12,0-.6.19-.77.81-1,1.46-.55,2.65,0,4,.28a7.1,7.1,0,0,0,3.22.09c.48-.11.94-.2,1.14.46.1.36.45.38.77.45s.79.19.85.69Z" transform="translate(-254.78 -369.58)"/><path class="cls-9" d="M275.65,389.67a19.46,19.46,0,0,0-4.56,4.31,5,5,0,0,0-1.68,1.85c-.38-.39-.22-.8-.23-1.17,0-.52-.24-.71-.72-.68.23-.86.28-1.92,1.69-1.46.28.09.54-.14.71-.36,1-1.29,2.65-1.68,3.95-2.55C275.09,389.43,275.4,389.31,275.65,389.67Z" transform="translate(-254.78 -369.58)"/><path class="cls-10" d="M278.53,447.24c-.54.37-1.08.7-1.7.15-.08-.07-.28-.15-.33-.11-.91.82-1.6,0-2.39-.27a5.38,5.38,0,0,0-2.54-.3,17.28,17.28,0,0,1-4.86-.2.68.68,0,0,1-.66-.71,33.25,33.25,0,0,0,3.46,0c2.82-.3,5.45.71,8.17,1.07A1.13,1.13,0,0,1,278.53,447.24Z" transform="translate(-254.78 -369.58)"/><path class="cls-10" d="M285,398.52c.49-1.34,1.76-2,2.63-3a28.6,28.6,0,0,1,2.67-2.48c.84.16.86-1.09,1.68-1,.52-.21.48-.56.24-1,1,0,1.12.52.56,1.18a4.12,4.12,0,0,1-1.9,1.56c-.82.25-1.18,1-1.53,1.72a2.37,2.37,0,0,1-1.33,1.29,3.15,3.15,0,0,0-1.84,1.21A1.52,1.52,0,0,1,285,398.52Z" transform="translate(-254.78 -369.58)"/><path class="cls-7" d="M268.46,394c.48,0,.72.16.72.68,0,.37-.15.78.23,1.17a5,5,0,0,1,1.68-1.85c-.2,1.17-1.26,1.94-1.46,3.11a2.33,2.33,0,0,0-.7,2.65,10.21,10.21,0,0,0-.23,3.12c-.6-.08-.48-.55-.48-.93a14.89,14.89,0,0,1,0-2.5,9.11,9.11,0,0,0,0-3.53A9.53,9.53,0,0,0,268.46,394Z" transform="translate(-254.78 -369.58)"/><path class="cls-10" d="M287.11,413.24,285.52,412a11.87,11.87,0,0,1-.89-4.56c0-.34-.1-.62.27-.78a.81.81,0,0,1,.73.2c-.11.1-.51.17-.33.23.68.23.58.89.9,1.3,0,1.48-.21,3,.9,4.28C287.19,412.77,287.11,413,287.11,413.24Z" transform="translate(-254.78 -369.58)"/><path class="cls-11" d="M285.94,423a1.75,1.75,0,0,1,.86-.75c.05.05.13.14.14.13s-.06-.13-.08-.2a10.53,10.53,0,0,0,1.6-4.39,8.08,8.08,0,0,0-1.37-4.54c.84-.15,1.2.56,1.37,1.06a9,9,0,0,1,.6,3.81,10,10,0,0,1-1.8,4.52C287,423.06,286.43,423,285.94,423Z" transform="translate(-254.78 -369.58)"/><path class="cls-10" d="M284,403.36c.91-1.11.23-2.34.19-3.5,0-.46-.16-.84.35-1.08a1.87,1.87,0,0,0,.48,1.44c.12.84-.25,1.72.3,2.54.09.14-.19.54-.3.82a.17.17,0,0,0,0,.19l-.39-.09Z" transform="translate(-254.78 -369.58)"/><path class="cls-13" d="M287.88,441.49l2.89.92a1.68,1.68,0,0,1-2.44.08c-.42-.32-.78-.68-1.51-.43C287.17,441.54,287.7,441.89,287.88,441.49Z" transform="translate(-254.78 -369.58)"/><path class="cls-7" d="M264.38,392.78a.68.68,0,0,0,.72-.71h1.19c-1.15.92-2,2.16-3.34,2.89.07-.32.15-.64.23-1A2.27,2.27,0,0,0,264.38,392.78Z" transform="translate(-254.78 -369.58)"/><path class="cls-8" d="M292,392.06c-.82-.13-.84,1.12-1.68,1a5.21,5.21,0,0,0,.25-1.92l.74,0,.7,0C292,391.42,292,391.74,292,392.06Z" transform="translate(-254.78 -369.58)"/><path class="cls-7" d="M291.27,391.07l-.74,0c-.73-.33-1.65-.18-2.19-.94l.75,0A2.27,2.27,0,0,1,291.27,391.07Z" transform="translate(-254.78 -369.58)"/><path class="cls-9" d="M287.41,448.44c-.84-.13-1.79.15-2.41-.72C285.82,447.9,286.89,447.24,287.41,448.44Z" transform="translate(-254.78 -369.58)"/><path class="cls-11" d="M284,423.86l.51-.06c0,.13,0,.27,0,.4-.4.07-.86-.12-1.2.24-.56-.07-1.15.19-1.67-.21Z" transform="translate(-254.78 -369.58)"/><path class="cls-10" d="M277.81,389.17a2.24,2.24,0,0,1-1.69.48C276.58,389.12,277,388.46,277.81,389.17Z" transform="translate(-254.78 -369.58)"/><path class="cls-10" d="M260.54,399.74c0-.54-.08-1.13.7-1.2C261.09,399,261.2,399.59,260.54,399.74Z" transform="translate(-254.78 -369.58)"/><path class="cls-13" d="M283.85,438.79a3,3,0,0,1,1,1C284.05,439.89,283.73,439.56,283.85,438.79Z" transform="translate(-254.78 -369.58)"/><path class="cls-11" d="M284.87,423.67A2.61,2.61,0,0,1,286,423C285.92,423.73,285.44,423.77,284.87,423.67Z" transform="translate(-254.78 -369.58)"/><path class="cls-13" d="M284.82,439.74a2.45,2.45,0,0,1,1,.75C285.28,440.54,284.77,440.53,284.82,439.74Z" transform="translate(-254.78 -369.58)"/><path class="cls-7" d="M292,392.06c0-.32,0-.64,0-1a1.76,1.76,0,0,1,.23,0C292.44,391.5,292.48,391.85,292,392.06Z" transform="translate(-254.78 -369.58)"/><path class="cls-11" d="M289,420c.06,0,.16,0,.18.09s0,.12-.07.19-.17,0-.19-.09S289,420.05,289,420Z" transform="translate(-254.78 -369.58)"/><path class="cls-13" d="M283.18,437.93a.8.8,0,0,1,.46.62C283.16,438.59,283.07,438.33,283.18,437.93Z" transform="translate(-254.78 -369.58)"/><path class="cls-13" d="M283.62,438.53l.24.28A.27.27,0,0,1,283.62,438.53Z" transform="translate(-254.78 -369.58)"/><path class="cls-2" d="M313.31,447.72h-1c0-.35.26-.44.54-.54a.49.49,0,0,0,.36-.65c-.27-.64-.89-1-1-1.83s-1-.77-1.65-.85a6.43,6.43,0,0,1-1.22-.45c-.34-.12-.37-.38-.36-.67s.13-.67.5-.71.93-.32,1.5-.17a1,1,0,0,0,1.28-1.32,12.69,12.69,0,0,1-.41-2.4c.14-.07.4-.14.39-.2-.07-1.71.33-3.47-.55-5.09-.65-1.2-.22-2.49-.28-3.74,0-.43.41-.53.76-.63.57-.16.7-.58.63-1.11s-.49-.68-.94-.74-.87,0-1.3-.09-.66-.49-.63-1,.24-.89.78-.83c.75.08,1.46-.18,2.23-.08a1.34,1.34,0,0,0,1.72-1.3,10.71,10.71,0,0,0,2-2.48l.61-.25c.25.35-.15.68,0,1,.3.25.47-.39.72-.09s0,.45-.12.63c-.3.38-.11.63.24.72a5.2,5.2,0,0,1,3.31,2.32c.15.25.53.14.78.23a2.23,2.23,0,0,1,1.67,1.93c.08.82.26,1.65.29,2.47.06,1.65.92,3.21.44,4.91a2.42,2.42,0,0,0,.2,1.28,8.56,8.56,0,0,1-.31,4.65,2.8,2.8,0,0,0-.2,1.58,2.54,2.54,0,0,1-1.39,2.84c-.31.17-.7.25-.71.71h-.48c-.71,0-1.58-.24-2.12.08-1.68,1-3.58.89-5.36,1.34-.32.08-.65.06-.68.49Z" transform="translate(-254.78 -369.58)"/><path class="cls-9" d="M322.19,445.8c0-.46.4-.54.71-.71a2.54,2.54,0,0,0,1.39-2.84,2.8,2.8,0,0,1,.2-1.58,8.56,8.56,0,0,0,.31-4.65,2.42,2.42,0,0,1-.2-1.28c.48-1.7-.38-3.26-.44-4.91,0-.82-.21-1.65-.29-2.47a2.23,2.23,0,0,0-1.67-1.93c-.25-.09-.63,0-.78-.23a5.2,5.2,0,0,0-3.31-2.32c-.35-.09-.54-.34-.24-.72.15-.18.32-.41.12-.63s-.42.34-.72.09c-.11-.34.29-.67,0-1l-.61.25a1.94,1.94,0,0,1,.34-1.26l.13.15c.14-.14-.07-.13-.09-.2a10,10,0,0,0-.91-5.16.85.85,0,0,0,.51-.49,3.18,3.18,0,0,1,1.19,2.16c-.49.85-.16,1.75-.21,2.74.41-.53,0-1.1.36-1.54.2,2,.2,2,2,3.75a3,3,0,0,0,2.56,1,2.27,2.27,0,0,1,2.16.71c.52,1,1.51,1.21,2.24,1.82.94.76.59,1.81.69,2.77,0,.42-.27,1.06.46,1.17,1.11.16,1.16.95.9,1.69-.56,1.6.47,2.8.89,4.14a5.73,5.73,0,0,1,.47,3.56,6.23,6.23,0,0,0-.32,2.59c.25,2.17-1.86,2.94-2.65,4.49-.07.15-.6,0-.91.11-.61.14-1.37,0-1.73.71Z" transform="translate(-254.78 -369.58)"/><path class="cls-10" d="M324.82,445.8c.36-.76,1.12-.57,1.73-.71.31-.07.84,0,.91-.11.79-1.55,2.9-2.32,2.65-4.49a6.23,6.23,0,0,1,.32-2.59,5.73,5.73,0,0,0-.47-3.56c-.42-1.34-1.45-2.54-.89-4.14.26-.74.21-1.53-.9-1.69-.73-.11-.42-.75-.46-1.17-.1-1,.25-2-.69-2.77-.73-.61-1.72-.8-2.24-1.82a2.27,2.27,0,0,0-2.16-.71,3,3,0,0,1-2.56-1c-1.84-1.78-1.84-1.77-2-3.75-.36.44.05,1-.36,1.54,0-1-.28-1.89.21-2.74a.84.84,0,0,1,.86.5c.8,1.27,1.66,2.51,2.47,3.79a1.26,1.26,0,0,0,1.24.75,2.32,2.32,0,0,1,1.68.47,2.08,2.08,0,0,0,1.62.21c1.68-.27,2.32.06,2.7,1.76.23,1.06,1.37,1.63,1.35,2.8,0,.14.42.39.67.42a1.15,1.15,0,0,1,1.11,1.17c0,.17.16.44.29.47,1.32.32.94,1.4,1.16,2.29.8,3.23.09,6.58.86,9.8.27,1.15-.51,2.18-.59,3.33,0,.61-.88.7-1.41.51a3.16,3.16,0,0,0-2.85.43C327.71,445.64,326.25,445.55,324.82,445.8Z" transform="translate(-254.78 -369.58)"/><path class="cls-9" d="M316.67,413.41c-.54-.56-1.17-1.06-.61-2a1.83,1.83,0,0,0,.08-1.62,3.45,3.45,0,0,1,.05-3.34h.48a12.39,12.39,0,0,1,.24,3.54,9.53,9.53,0,0,0,.63,3.45C317.23,413.76,317,413.34,316.67,413.41Z" transform="translate(-254.78 -369.58)"/><path class="cls-9" d="M313.55,447.72c0-.43.36-.41.68-.49,1.78-.45,3.68-.36,5.36-1.34.54-.32,1.41-.07,2.12-.08a.71.71,0,0,1-.66.71c-1.94.4-3.91.63-5.82,1.2Z" transform="translate(-254.78 -369.58)"/><path class="cls-10" d="M313.55,447.72h1.68c-.44,1-1.14.87-1.92.48v-.48Z" transform="translate(-254.78 -369.58)"/><path class="cls-2" d="M316.67,406.46h-.48c-.38,0-.89.16-1-.49a4.44,4.44,0,0,1,1.92,0A.44.44,0,0,1,316.67,406.46Z" transform="translate(-254.78 -369.58)"/><path class="cls-12" d="M317,419.59a1.94,1.94,0,0,0-.34,1.26,10.71,10.71,0,0,1-2,2.48c-4.29,2.34-8.34-1.73-8.28-6.18A5.64,5.64,0,0,1,310,411.7c2.11-.7,4.26.15,5.91,2.32.09.13.21.24.31.36a10,10,0,0,1,.91,5.16Zm-3.22-4.16a2.27,2.27,0,0,0-2.36-2.33,2.09,2.09,0,0,0-2,2.15,2.36,2.36,0,0,0,2.41,2.44A2.15,2.15,0,0,0,313.82,415.43Z" transform="translate(-254.78 -369.58)"/><path class="cls-12" d="M284.64,403.68l.39.09.06.05h.09a15.43,15.43,0,0,1,4.21,1.28c.78.36,1.41.88,1,1.85a1.4,1.4,0,0,1-2.06.78,9.24,9.24,0,0,0-2.71-.87.81.81,0,0,0-.73-.2l-.37-.24A4.88,4.88,0,0,0,284.64,403.68Z" transform="translate(-254.78 -369.58)"/><path class="cls-2" d="M312.82,403.29A30.56,30.56,0,0,0,305.4,405c-.21-.91.05-1.18,1.08-1.26,1.42-.11,3,0,4.14-1.23.4-.42,1.15-.09,1.73-.15C312.26,402.81,312.53,403.06,312.82,403.29Z" transform="translate(-254.78 -369.58)"/><path class="cls-2" d="M305.15,407.91c1.19.11,2.18-.57,3.27-.84a12.7,12.7,0,0,1,3-.65,5,5,0,0,1-2,.76,3.28,3.28,0,0,0-1,.36c-.52.35-.81,1.31-1.69.47-.08-.08-.5.15-.72.29C305.43,408.69,305.43,408.7,305.15,407.91Z" transform="translate(-254.78 -369.58)"/><path class="cls-2" d="M316.18,403.27a9.56,9.56,0,0,1-2.39,0c.11-1.26-.84-.79-1.44-.88.65-.69,1.5-.7,1.91,0S315.67,402.71,316.18,403.27Z" transform="translate(-254.78 -369.58)"/><path class="cls-2" d="M304.36,406v1c-.54-.47-.64.26-1.2.65a2.68,2.68,0,0,0,.08-1.9C303.74,405.54,304,406.14,304.36,406Z" transform="translate(-254.78 -369.58)"/><path class="cls-2" d="M311.5,406.42a4,4,0,0,1,1.79-.3c0,.57-.34.61-.78.52Z" transform="translate(-254.78 -369.58)"/><path class="cls-2" d="M295.83,438.89h1.35V439h-1.34Z" transform="translate(-254.78 -369.58)"/><path class="cls-2" d="M292,442.63l.46.07c0,.26-.13.51-.43.42S292,442.8,292,442.63Z" transform="translate(-254.78 -369.58)"/><path class="cls-2" d="M299.39,438.85c-.12,0-.28,0-.21-.17s.2-.06.31-.05.12.07.18.11Z" transform="translate(-254.78 -369.58)"/><path class="cls-2" d="M314.66,406.87c0,.07-.05.17-.09.19s-.13-.05-.2-.08,0-.17.09-.18S314.59,406.84,314.66,406.87Z" transform="translate(-254.78 -369.58)"/><path class="cls-11" d="M304.66,407.45l.48.46A.44.44,0,0,1,304.66,407.45Z" transform="translate(-254.78 -369.58)"/><path class="cls-2" d="M313.4,406.15a.93.93,0,0,1,.87-.14C314,406.29,313.7,406.21,313.4,406.15Z" transform="translate(-254.78 -369.58)"/><path class="cls-2" d="M311.7,438c0-.06,0-.17.07-.2s.22,0,.18.15a1,1,0,0,1-.08.23Z" transform="translate(-254.78 -369.58)"/><path class="cls-11" d="M304.93,405.29l-.26.2.09-.31Z" transform="translate(-254.78 -369.58)"/><path class="cls-11" d="M304.66,405.5l-.21.27Z" transform="translate(-254.78 -369.58)"/><path class="cls-11" d="M304.45,407.13l.2.29Z" transform="translate(-254.78 -369.58)"/><path class="cls-14" d="M285.18,403.81h-.09l-.06-.05a.17.17,0,0,1,0-.19Z" transform="translate(-254.78 -369.58)"/><path class="cls-13" d="M312.35,402.38c.6.09,1.55-.38,1.44.88l-1,0C312.53,403.06,312.26,402.81,312.35,402.38Z" transform="translate(-254.78 -369.58)"/><path class="cls-4" d="M269.65,397.34a1.31,1.31,0,0,0,1.16-1.06c.37-2.11,2-3.21,3.48-4.42.57-.47,1.33-.71,1.66-1.46a.46.46,0,0,1,.61-.22c1.25.39,2.59-.07,3.8.25a22.48,22.48,0,0,0,5.34.75c.74,0,.84.9.95,1.51a1.22,1.22,0,0,1-.48,1.46c-1,.66-1.57,2-3,2.14-.28,0-.25.45-.33.72a3.05,3.05,0,0,1-2.09,2.25.71.71,0,0,0-.48.28c-.69,1-1.36,1.26-2.35.63a1.57,1.57,0,0,0-2.08,0c-.46.38-1,.15-1.49.3-.89.29-1.86.17-2.72.73-.69.45-1.36.25-1.5-.81-.1-.73-.7-1.4,0-2.17.17-.2-.16-.39-.42-.42Z" transform="translate(-254.78 -369.58)"/><path d="M284,423.86l-2.37.37-1.85-1a.38.38,0,0,0-.14-.19l-.17-.16c-1.09-.69-1.11-2-1.69-3l-.06-.47a1.31,1.31,0,0,0-.15-1v-.57a.48.48,0,0,0,.12-.53A6.55,6.55,0,0,1,281.1,412a3.44,3.44,0,0,1,2.93-.37c.71.47,0,1,0,1.46-.62.06-1.25-.11-1.84.28a2.54,2.54,0,0,0-1.06,2.9c.39,1.14,1.15,1.51,2.8,1.36a14.26,14.26,0,0,1-.49,5.7C283.29,424,284,423.56,284,423.86Z" transform="translate(-254.78 -369.58)"/><path d="M284.64,403.68a4.88,4.88,0,0,1-.11,2.73l-2.9-.37-.71-.05h-.71c-1.65-.6-3.29-.09-4.93.06a6.94,6.94,0,0,0-4.09,1.78c-.17.16-.4.38-.63.23s-.12-.5,0-.75c1-2.31,3-3.22,5.22-3.73a29,29,0,0,1,8.21-.23Z" transform="translate(-254.78 -369.58)"/><path class="cls-8" d="M277.8,419.89c.58,1,.6,2.27,1.69,3l.17.16a.38.38,0,0,1,.14.19c-.49.41-1.07,0-1.59.17-.24-1.39-1.51-1.07-2.36-1.29-1.14-.3-2.2-.88-3.3-1.14a3.51,3.51,0,0,1-2.48-2.11c-.25-.5-.46-1-1.14-1.1v-.48a9.47,9.47,0,0,0,.12-4.07,3.66,3.66,0,0,1,.12-2.4,2.55,2.55,0,0,1,.76,1.66,32.44,32.44,0,0,0,.72,4.17,1.56,1.56,0,0,0,1.72,1.34c1.19-.17,2.2.59,3.37.55.4,0,.65.42.88.73A1.23,1.23,0,0,0,277.8,419.89Z" transform="translate(-254.78 -369.58)"/><path class="cls-8" d="M281.63,406l2.9.37.37.24c-.37.16-.3.44-.27.78a11.87,11.87,0,0,0,.89,4.56,1,1,0,0,1-.75-.29.92.92,0,0,0-.64-.78c-1.15-.09-1.23-1-1.54-1.79s-.36-1.62.88-2c-1,.18-1.62-.48-2.45-.45-.5,0-.87-.09-.81-.7h.71A.42.42,0,0,0,281.63,406Z" transform="translate(-254.78 -369.58)"/><path class="cls-7" d="M269.17,410.78a3.66,3.66,0,0,0-.12,2.4,9.47,9.47,0,0,1-.12,4.07,24.16,24.16,0,0,1-.68-5c-.14-2.58,0-5.17,0-7.76,0-.38-.12-.84.47-.93.14.88-.28,1.81.25,2.65A24.9,24.9,0,0,0,269.17,410.78Z" transform="translate(-254.78 -369.58)"/><path class="cls-8" d="M268.94,406.22c-.53-.84-.11-1.77-.25-2.65,0-.24,0-.48,0-.72.71.17.47.76.44,1.18C269.12,404.76,269.41,405.53,268.94,406.22Z" transform="translate(-254.78 -369.58)"/><path class="cls-8" d="M269.65,397.34v.48c-.49.55-.23,1.38-.72,1.92a2.33,2.33,0,0,1,.7-2.65A2.11,2.11,0,0,1,269.65,397.34Z" transform="translate(-254.78 -369.58)"/><path class="cls-8" d="M277.59,418.38a1.31,1.31,0,0,1,.15,1C277,419.18,277.72,418.72,277.59,418.38Z" transform="translate(-254.78 -369.58)"/><path class="cls-8" d="M281.34,407c.07,0,.17,0,.19.09s0,.17-.08.18-.13,0-.2-.07Z" transform="translate(-254.78 -369.58)"/><path class="cls-8" d="M277.71,417.28a.48.48,0,0,1-.12.53Z" transform="translate(-254.78 -369.58)"/><path class="cls-10" d="M283.57,424.69c0,1.84-1.39,2.89-3.65,2.6a39.52,39.52,0,0,1-4.67-.77,7.76,7.76,0,0,1-3.16-2.13c-.67-.57-1.12-1.34-2-1.74s-1.44-2.53-1.16-3.72a.81.81,0,0,1,.48.88,1.93,1.93,0,0,0,1,1.76,15.54,15.54,0,0,0,3.91,2.25c1.24.38,2.44.88,3.67,1.21s2.43.83,3.6.11A3.19,3.19,0,0,1,283.57,424.69Z" transform="translate(-254.78 -369.58)"/><path class="cls-7" d="M283.57,424.69a3.19,3.19,0,0,0-1.93.45c-1.17.72-2.47.19-3.6-.11s-2.43-.83-3.67-1.21a15.54,15.54,0,0,1-3.91-2.25,1.93,1.93,0,0,1-1-1.76.81.81,0,0,0-.48-.88v-1.2c.68.06.89.6,1.14,1.1a3.51,3.51,0,0,0,2.48,2.11c1.1.26,2.16.84,3.3,1.14.85.22,2.12-.1,2.36,1.29.52-.14,1.1.24,1.59-.17l1.85,1c.52.4,1.11.14,1.67.21Z" transform="translate(-254.78 -369.58)"/><path class="cls-15" d="M284,417.67c-1.65.15-2.41-.22-2.8-1.36a2.54,2.54,0,0,1,1.06-2.9c.59-.39,1.22-.22,1.84-.28C285.89,414.48,285.85,416.21,284,417.67Z" transform="translate(-254.78 -369.58)"/><path class="cls-2" d="M286.86,422.17c0,.07.23.08.08.2s-.09-.08-.14-.13Z" transform="translate(-254.78 -369.58)"/><path class="cls-2" d="M317.08,419.54c0,.07.23.06.09.2l-.13-.15Z" transform="translate(-254.78 -369.58)"/><path class="cls-15" d="M313.82,415.43a2.15,2.15,0,0,1-2,2.26,2.36,2.36,0,0,1-2.41-2.44,2.09,2.09,0,0,1,2-2.15A2.27,2.27,0,0,1,313.82,415.43Z" transform="translate(-254.78 -369.58)"/><path class="cls-7" d="M279.66,423l-.17-.16Z" transform="translate(-254.78 -369.58)"/><path class="cls-6" d="M281.63,406a.42.42,0,0,1-.71-.05Z" transform="translate(-254.78 -369.58)"/></svg>