
  <svg 
  id="Layer_1" 
  data-name="Layer 1" 
  xmlns="http://www.w3.org/2000/svg" 
  viewBox="0 0 240 400">
      <defs>
          <style>
              .head{fill:#F2CD37;}
              .torso{fill:#958A73;}
              .hand{fill:#F2CD37;}
              .jeans-back{fill: #444444;}
              .jeans-front{fill: #444444;}
              .jeans-dark{fill: #000000;}
              
    
.sad-l-1 {
    fill: #a03a09;
}

.sad-l-2 {
    fill: #d0cbcc;
}

.sad-l-3 {
    fill: #eeeeef;
}

.sad-l-4 {
    fill: #8f2310;
}

    ..love-e-1 {
    fill: #611a07;
}

.love-e-2 {
    fill: #b6311f;
}

.love-e-3 {
    fill: #ba3804;
}

.love-e-4 {
    fill: #f8e3dd;
}

.love-e-5 {
    fill: #a82a14;
}

.love-e-6 {
    fill: #f6bcb2;
};
    
.fred-1 {
    fill: #3f3469;
}

.fred-2 {
    fill: #322d18;
}

.fred-3 {
    fill: #3e336e;
}

.fred-4 {
    fill: #614e5d;
}

.fred-5 {
    fill: #3e2f68;
}

.fred-6 {
    fill: #040b1c;
}

.fred-7 {
    fill: #362f5d;
}

.fred-8 {
    fill: #493b5d;
}

.fred-9 {
    fill: #352a84;
}

.fred-10 {
    fill: #f1f3f3;
}

.fred-11 {
    fill: #464948;
}

.fred-12 {
    fill: #767877;
}

.fred-13 {
    fill: #030c1b;
}

.fred-14 {
    fill: #403269;
}

.fred-15 {
    fill: #06122d;
}

.fred-16 {
    fill: #3f2e85;
}

.fred-17 {
    fill: #848686;
}

.fred-18 {
    fill: #c5c8c7;
}

    
.tung-1 {
    fill: #321004;
}

.tung-2 {
    fill: #b62713;
}

.tung-3 {
    fill: #e5e7e6;
}

.tung-4 {
    fill: #dedcdd;
}

.tung-5 {
    fill: #d2d4d3;
}

.tung-6 {
    fill: #21120b;
}

.tung-7 {
    fill: #44331d;
}

.tung-8 {
    fill: #7d7f7e;
}

.tung-9 {
    fill: #bdc0bd;
}

.tung-10 {
    fill: #c6c3c3;
}

    
.pain-1 {
    opacity: 0.4;
}

.pain-2 {
    fill: #eeedef;
}

    
.stache-1 {
    fill: #713205;
}

.stache-2 {
    fill: #763c05;
}

.stache-3 {
    fill: #7c370e;
}

.stache-4 {
    fill: #855004;
}

.stache-5 {
    fill: #7b4502;
}

.stache-6 {
    fill: #8e5906;
}

.stache-7 {
    fill: #6e300a;
}

.stache-8 {
    fill: #70300e;
}

.stache-9 {
    fill: #712d13;
}

.stache-10 {
    fill: #eff2ed;
}

.stache-11 {
    fill: #bebdc5;
}

    
.av-1 {
    fill: #c0c9c8;
}

.av-2 {
    fill: #a4aab8;
}

.av-3 {
    fill: #a9b0b9;
}

.av-4 {
    fill: #8f9aa4;
}

.av-5 {
    fill: #031011;
}

.av-6 {
    fill: #0e1214;
}

    
.tired-1 {
    fill: #b6b9ba;
}

.tired-2 {
    fill: #b8bab8;
}

    
.xx-1 {
    fill: #040404;
}

    
.snow-1 {
    fill: #040404;
}

.snow-2 {
    fill: #c81010;
}

.snow-3 {
    fill: #383a37;
}

.snow-4 {
    fill: #353837;
}

.snow-5 {
    fill: #1a7d46;
}

.snow-6 {
    fill: #171716;
}

.snow-7 {
    fill: #efa636;
}

.snow-8 {
    fill: #d2d2d0;
}

.snow-9 {
    fill: #2a2a27;
}

.snow-10 {
    fill: #535451;
}

.snow-11 {
    fill: #5c5e58;
}

.snow-12 {
    fill: #dd050c;
}

.snow-13 {
    fill: #2d7a5b;
}

.snow-14 {
    fill: #298963;
}

.snow-15 {
    fill: #1a623c;
}

.snow-16 {
    fill: #f57906;
}

.snow-17 {
    fill: #272524;
}

.snow-18 {
    fill: #565553;
}

.snow-19 {
    fill: #f2222d;
}

    
.lady-1 {
    fill: #080505;
}

.lady-2 {
    fill: #764029;
}

.lady-3 {
    fill: #0b0806;
}

.lady-4 {
    fill: #6e3d2a;
}

.lady-5 {
    fill: #221716;
}

.lady-6 {
    fill: #ad5a33;
}

.lady-7 {
    fill: #ae5834;
}

.lady-8 {
    fill: #ae5a35;
}

.lady-9 {
    fill: #a85c33;
}

.lady-10 {
    fill: #7c3e1f;
}

.lady-11 {
    fill: #923f1f;
}

.lady-12 {
    fill: #954c2a;
}

.lady-13 {
    fill: #b66235;
}

.lady-14 {
    fill: #82401e;
}

.lady-15 {
    fill: #854412;
}

.lady-16 {
    fill: #86411c;
}

.lady-17 {
    fill: #994220;
}

.lady-18 {
    fill: #8d4a16;
}

.lady-19 {
    fill: #c57145;
}

.lady-20 {
    fill: #8f4b1b;
}

.lady-21 {
    fill: #924621;
}

.lady-22 {
    fill: #ae5732;
}

.lady-23 {
    fill: #9a461f;
}

.lady-24 {
    fill: #833e18;
}

.lady-25 {
    fill: #cf2a04;
}

.lady-26 {
    fill: #6e0000;
}

.lady-27 {
    fill: #a32508;
}

.lady-28 {
    fill: #e5ddd3;
}

.lady-29 {
    fill: #e6e8ea;
}

    
.mx-1 {
    fill: #050608;
}

.mx-2 {
    fill: #070b11;
}

.mx-3 {
    fill: #09131e;
}

.mx-4 {
    fill: #4d89ad;
}

.mx-5 {
    fill: #5f8ba6;
}

.mx-6 {
    fill: #503d4e;
}

.mx-7 {
    fill: #111f28;
}

.mx-8 {
    fill: #443b4b;
}

.mx-9 {
    fill: #6796b3;
}

.mx-10 {
    fill: #699bb4;
}

.mx-11 {
    fill: #506b77;
}

.mx-12 {
    fill: #4b94bf;
}

.mx-13 {
    fill: #4a7a8c;
}

.mx-14 {
    fill: #4994c1;
}

.mx-15 {
    fill: #66acd6;
}

.mx-16 {
    fill: #4b94c0;
}

.mx-17 {
    fill: #478fb3;
}

.mx-18 {
    fill: #4c91b4;
}

.mx-19 {
    fill: #2f1626;
}

.mx-20 {
    fill: #271b2b;
}

.mx-21 {
    fill: #4c91b8;
}

.mx-22 {
    fill: #40182c;
}

.mx-23 {
    fill: #db494f;
}

.mx-24 {
    fill: #ce2026;
}

.mx-25 {
    fill: #f6908e;
}

.mx-26 {
    fill: #df95a0;
}

.mx-27 {
    fill: #fa8b9b;
}

.mx-28 {
    fill: #49485c;
}

.mx-29 {
    fill: #cb3a42;
}

.mx-30 {
    fill: #82505e;
}

.mx-31 {
    fill: #5796bc;
}

.mx-32 {
    fill: #2f1e2a;
}

.mx-33 {
    fill: #091629;
}

.mx-34 {
    fill: #5696ca;
}

.mx-35 {
    fill: #34283d;
}

.mx-36 {
    fill: #283533;
}

.mx-37 {
    fill: #4d92bd;
}

.mx-38 {
    fill: #79b7da;
}

.mx-39 {
    fill: #2e101f;
}

.mx-40 {
    fill: #373a45;
}

.mx-41 {
    fill: #6a9cc0;
}

.mx-42 {
    fill: #55a7d7;
}

.mx-43 {
    fill: #4d9dcf;
}

.mx-44 {
    fill: #ad242b;
}

.mx-45 {
    fill: #e77c87;
}

.mx-46 {
    fill: #4d1b2c;
}

.mx-47 {
    fill: #3d152a;
}

.mx-48 {
    fill: #3f1929;
}

.mx-49 {
    fill: #c30f0c;
}

.mx-50 {
    fill: #060d21;
}

.mx-51 {
    fill: #d73c40;
}

.mx-52 {
    fill: #781e28;
}

.mx-53 {
    fill: #d71118;
}

.mx-54 {
    fill: #fe9c9e;
}

.mx-55 {
    fill: #220f1d;
}

.mx-56 {
    fill: #801720;
}

.mx-57 {
    fill: #c55667;
}

.mx-58 {
    fill: #e20915;
}

.mx-59 {
    fill: #ef96a5;
}

.mx-60 {
    fill: #f7a79d;
}

.mx-61 {
    fill: #3d160c;
}

.mx-62 {
    fill: #691d16;
}

.mx-63 {
    fill: #d80c12;
}

.mx-64 {
    fill: #d4313a;
}

.mx-65 {
    fill: #4e1323;
}

.mx-66 {
    fill: #360302;
}

.mx-67 {
    fill: #840e0e;
}

.mx-68 {
    fill: #bd1825;
}

.mx-69 {
    fill: #a91226;
}

.mx-70 {
    fill: #f6878a;
}

.mx-71 {
    fill: #febabd;
}

.mx-72 {
    fill: #feafa2;
}

.mx-73 {
    fill: #f294a0;
}

.mx-74 {
    fill: #f9aeab;
}

.mx-75 {
    fill: #fea8ac;
}

.mx-76 {
    fill: #de4254;
}

.mx-77 {
    fill: #dd3c47;
}

.mx-78 {
    fill: #f38b91;
}

.mx-79 {
    fill: #f79a97;
}

.mx-80 {
    fill: #febcc0;
}

.mx-81 {
    fill: #fca3a4;
}

.mx-82 {
    fill: #d9515e;
}

.mx-83 {
    fill: #fac3b1;
}

.mx-84 {
    fill: #f78d8d;
}

.mx-85 {
    fill: #df0814;
}

.mx-86 {
    fill: #fe8a96;
}

.mx-87 {
    fill: #c53e41;
}

.mx-88 {
    fill: #e34d53;
}

.mx-89 {
    fill: #e84a55;
}

.mx-90 {
    fill: #df5454;
}

.mx-91 {
    fill: #fa7671;
}

.mx-92 {
    fill: #fb7a80;
}

.mx-93 {
    fill: #420e1b;
}

.mx-94 {
    fill: #fe8b97;
}

.mx-95 {
    fill: #fea0a5;
}

.mx-96 {
    fill: #ed9892;
}

.mx-97 {
    fill: #531e14;
}

.mx-98 {
    fill: #f0545f;
}

.mx-99 {
    fill: #501e08;
}

.mx-100 {
    fill: #ae292e;
}

.mx-101 {
    fill: #f09ba0;
}

.mx-102 {
    fill: #dc050d;
}

.mx-103 {
    fill: #451202;
}

.mx-104 {
    fill: #a42129;
}

.mx-105 {
    fill: #590400;
}

.mx-106 {
    fill: #f8747d;
}

.mx-107 {
    fill: #fec3c3;
}

.mx-108 {
    fill: #febbb6;
}

.mx-109 {
    fill: #feb4bc;
}

.mx-110 {
    fill: #f69593;
}

.mx-111 {
    fill: #db161f;
}

.mx-112 {
    fill: #feb3c5;
}

.mx-113 {
    fill: #febbb9;
}

.mx-114 {
    fill: #521104;
}

.mx-115 {
    fill: #c61115;
}

.mx-116 {
    fill: #e13744;
}

.mx-117 {
    fill: #fea6a5;
}

.mx-118 {
    fill: #fe96a2;
}

.mx-119 {
    fill: #de8987;
}

.mx-120 {
    fill: #f98b8e;
}

.mx-121 {
    fill: #fe9ea4;
}

.mx-122 {
    fill: #fe8a8f;
}

.mx-123 {
    fill: #feafa0;
}

.mx-124 {
    fill: #9a494f;
}

.mx-125 {
    fill: #fba0a2;
}

.mx-126 {
    fill: #fec3c7;
}

.mx-127 {
    fill: #e28b8f;
}

.mx-128 {
    fill: #bb5c65;
}

.mx-129 {
    fill: #fa869a;
}

.mx-130 {
    fill: #fea9b9;
}

.mx-131 {
    fill: #501608;
}

.mx-132 {
    fill: #3d0d04;
}

.mx-133 {
    fill: #4c1103;
}

.mx-134 {
    fill: #dc8085;
}

.mx-135 {
    fill: #161315;
}

.mx-136 {
    fill: #1c1816;
}

.mx-137 {
    fill: #311a15;
}

.mx-138 {
    fill: #3b220a;
}

.mx-139 {
    fill: #351717;
}

.mx-140 {
    fill: #bfc1c6;
}

.mx-141 {
    fill: #b7c1c4;
}
              
    
.happy-1 {
    fill: #babab6;
}

.happy-2 {
    fill: #edecea;
}

.happy-3 {
    fill: #ac2b29;
}

.happy-4 {
    fill: #522808;
}

.happy-5 {
    fill: #cbc7c2;
}
              
    
.sad-1 {
    opacity: 0.4;
}

.sad-2 {
    fill: #7994b3;
}

.sad-3 {
    fill: #c6c6c0;
}

.sad-4 {
    fill: #c0bec0;
}
              
    
.angry-1 {
    fill: #e7e8e5;
}

.angry-2 {
    fill: #e4e7e6;
}

.angry-3 {
    fill: #bfc4bf;
}

.angry-4 {
    fill: #e1ece3;
}
              
    
.smug-1 {
    fill: #c6cec7;
}

.smug-2 {
    fill: #ccd0cc;
}

.smug-3 {
    fill: #100b07;
}

.smug-4 {
    fill: #e5e3e3;
}
              
    
.wink-1 {
    fill: #d5d7d8;
}
              
    
.chad-1 {
    fill: #77442c;
}

.chad-2 {
    fill: #7a422b;
}

.chad-3 {
    fill: #7c4824;
}

.chad-4 {
    fill: #88491f;
}

.chad-5 {
    fill: #b05a33;
}

.chad-6 {
    fill: #824225;
}

.chad-7 {
    fill: #804629;
}

.chad-8 {
    fill: #c57249;
}

.chad-9 {
    fill: #8f4a29;
}

.chad-10 {
    fill: #8e4f18;
}

.chad-11 {
    fill: #aa5933;
}

.chad-12 {
    fill: #954c2f;
}

.chad-13 {
    fill: #884224;
}

.chad-14 {
    fill: #aa5938;
}

.chad-15 {
    fill: #c37147;
}

.chad-16 {
    fill: #994a24;
}

.chad-17 {
    fill: #cfcfc4;
}

.chad-18 {
    fill: #a3998d;
}

.chad-19 {
    fill: #c5bcb7;
}
  
    
.bald-1 {
    fill: #f7d021;
}

.bald-2 {
    fill: #8f8b84;
}

.bald-3 {
    fill: #efc529;
}

.bald-4 {
    fill: #95948c;
}

.bald-5 {
    fill: #94938c;
}

.bald-6 {
    fill: #837970;
}

.bald-7 {
    fill: #c3a84d;
}

.bald-8 {
    fill: #696556;
}

.bald-9 {
    fill: #717270;
}

.bald-10 {
    fill: #c7b14e;
}

.bald-11 {
    fill: #a0967c;
}

.bald-12 {
    fill: #645c57;
}

.bald-13 {
    fill: #c4af5f;
}

.bald-14 {
    fill: #b29b4f;
}

.bald-15 {
    fill: #f7d949;
}

.bald-16 {
    fill: #d9a904;
}

.bald-17 {
    fill: #86817c;
}

.bald-18 {
    fill: #d0ae40;
}

.bald-19 {
    fill: #ab984c;
}

.bald-20 {
    fill: #c0ad2e;
}

.bald-21 {
    fill: #8d8c86;
}

.bald-22 {
    fill: #272007;
}

.bald-23 {
    fill: #231f20;
}

.bald-24 {
    fill: #898060;
}

.bald-25 {
    fill: #1c1703;
}

.bald-26 {
    fill: #f1ce2e;
}

.bald-27 {
    fill: #efc217;
}

.bald-28 {
    fill: #f4cf26;
}

.bald-29 {
    fill: #ddc842;
}

.bald-30 {
    fill: #e9d453;
}

.bald-31 {
    fill: #85837e;
}

.bald-32 {
    fill: #b6a25a;
}

.bald-33 {
    fill: #9c8e5f;
}

.bald-34 {
    fill: #221a09;
}

.bald-35 {
    fill: #161002;
}

.bald-36 {
    fill: #120b00;
}

.bald-37 {
    fill: #9a8e59;
}

.bald-38 {
    fill: #483906;
}

.bald-39 {
    fill: #f6d020;
}

.bald-40 {
    fill: #ddb926;
}

.bald-41 {
    fill: #d5ab27;
}

.bald-42 {
    fill: #f6cd2f;
}

.bald-43 {
    fill: #938e78;
}

.bald-44 {
    fill: #251e08;
}

.bald-45 {
    fill: #1c130f;
}

.bald-46 {
    fill: #e0bd45;
}

.bald-47 {
    fill: #c0a119;
}

.bald-48 {
    fill: #d1d4c1;
}
            
          </style>
      </defs>
      
  <path class="jeans-back"
  d="M229.21,519.06c-.23,2.94,2.56,1,3.26,2.44-2.35.41-4.7,0-7.05,0s-2.65-1.48-2.55-3.54c.4-8.94.29-18,1.26-26.81,1.09-10.1.77-20.22,1.36-30.31,1.56-26.6,1.16-53.3,2.88-79.89.45-7,.76-13.94.79-20.93,0-2.26.41-3.61,3-2.91a3.43,3.43,0,0,0,3.63-.61l12.18.47q9.17,0,18.33,0l13.24.13c4.19.89,8.42.16,12.63.4,1.43.09,2.88-.37,4.28.24-.5,1.92-2,1.14-3,1.1-17.36-.67-34.72-.56-52.09-.51a34.77,34.77,0,0,0-7.27.67,4,4,0,0,0-3.24,3.75,44.92,44.92,0,0,0,.49,16.47c-1.27.31-1,1.45-1,2.36.12,2,.34,4.07.52,6.1.5,1.4-1.22,2.8,0,4.22l0,1.15c-2.08,1.8-2.06,4.54-1.46,6.69.81,2.89.45,5.77.87,8.62.21,1.41,1.76,2.45.83,4.16-1.08,2-.65,4.07,0,6a5.32,5.32,0,0,1-.36,4.3,33.31,33.31,0,0,0-2.84,9.19c-1.11,6.59-1.14,13.44-1.25,20.19-.16,9-.27,17.91-1.12,26.83-.08.76-.21,1.62.52,2.18a5,5,0,0,0,.47,3,5.84,5.84,0,0,1,0,1.78c-2,5.16-.56,10.69-1.5,16-.13.72-.28,1.85.76,1.88s.79-1.09.81-1.84a3.69,3.69,0,0,0-.15-.87.76.76,0,0,1,.38-1c.64-.26.82.3.86.78a32,32,0,0,1-.28,8.91c-.09.44-.48,1.77-1.21.66-1.36-2.08-1.16,0-1.44.58-.59,1.32-.3,2.75-.34,4.13,0,1.8-.4,4,2.46,2.7C227.77,517.54,228.4,518.68,229.21,519.06Z"
  transform="translate(-183 -126)"  />
  
  <path class="jeans-back"
  d="M362.82,481.91c-2.34-1.47-1.49-4.2-2-6.36-1.07-4.63.39-9.42-.55-14.12-.86-4.3.18-8.83-.31-13-1.16-9.8,1.16-19.71-1.26-29.37-.34-1.37.49-2.57.37-3.8-.46-5,1.07-9.95.57-14.91s.33-9.84-1.55-14.49a24.27,24.27,0,0,0,.51-4.36c.06-1.88-.65-2.51-2.25-2.21l-2-.13c0-.59-.14-1.46.51-1.51,3.36-.26,3-3.18,3.17-5.49.21-2.77,0-5.57.08-8.36.09-2.59-.5-4.51-3.14-5-.53-.1-.69-.56-.74-1.09a1,1,0,0,1,.26-.11c5.51-.69,5.65-.69,5.49,5.23-.44,16.39,2.09,32.64,1.65,49-.6,22.28.75,44.5,1.36,66.74C363,479.73,362.87,480.82,362.82,481.91Z"
  transform="translate(-183 -126)"  />
  
  <path class="jeans-front"
  d="M361.89,521.37c-1,.94-2.28.53-3.4.54q-26.21.18-52.42.25a12.64,12.64,0,0,1-1.61-.2c-.29-.47-.73-.49-1.19-.53-4.38-.35-4.61-.62-4.68-5.43,0-3,0-5.95-.08-8.92.14-1.77.33-3.53.41-5.29.23-5.23.42-10.45.62-15.67l1.18-.09,0,1.81a6.58,6.58,0,0,0-.56,3.48q0,11.85,0,23.68c0,4.06,0,4.06,3.85,4h45.8l12,0Z"
  transform="translate(-183 -126)"  />
  
  <path class="jeans-back"
  d="M361.89,521.37l-.06-2.3a3.21,3.21,0,0,0,1.9-4c-1.16-2.92.24-5.75-.52-8.81-1.16-4.59,0-9.62-1.49-14.49-.65-2.06-1.43-2.45-2.73-2.67-2.23-.35-4.49-.44-6.74-.62-.8-.07-1.71.13-1.82-1.19,1.08,0,2.16.39,3.24,0a1.27,1.27,0,0,0,2.19,0c1.46-.17,3,.55,4.39-.52l2.26-.08c1.76.24,2.09,1.75,2.16,3.25.4,9.22.71,18.44,1.13,27.66.1,2.11-.68,3.15-2.51,3.4l-.06.12A1.13,1.13,0,0,1,361.89,521.37Z"
  transform="translate(-183 -126)"  />
  
  <path class="jeans-back"
  d="M309,357.07c.86,0,1.95.5,2.14-1.1,0-.19.07-.39.11-.58l.88,1.23c3.83,1.06,7.72.43,11.58.42L340.5,357a51.37,51.37,0,0,0,12.2-.44c.17.35.34.7.5,1.06-.72,1.13-1.82.7-2.76.7-10.73,0-21.46-.15-32.19.12-3.56.09-7.15,0-10.72.42-.79.1-1.71.28-1.91-1C306.71,357.29,308,357.91,309,357.07Z"
  transform="translate(-183 -126)"  />
  
  <path class="jeans-back" d="M304.59,357.83a4.48,4.48,0,0,1-6.61,0A17.92,17.92,0,0,1,304.59,357.83Z"
  transform="translate(-183 -126)"  />
  
  <path class="jeans-back" d="M362,485.1c-.23-.83,0-1.37.83-1.46C363.07,484.49,362.8,485,362,485.1Z"
  transform="translate(-183 -126)"  />
  <polygon class="jeans-front" points="140.37 165.67 140.44 165.56 140.49 165.73 140.37 165.67"  />
  
  <path class="jeans-dark"
  d="M354.32,379.18l2.05.13c-.25,2.57.06,5.34-2.15,7.21-3.32.69-6.61,1.66-10,1.2a48,48,0,0,0-8.31,0c-9.47.4-18.94-.42-28.43,0-4.85.21-4.93.1-5,5.44,0,.39,0,.79.06,1.19,0,3.2,0,6.41,0,9.61q-.07,9.88-.13,19.77c-.34-.14-.82,1.83-1.05-.11a10.28,10.28,0,0,0-.5-1.67,46.41,46.41,0,0,0,.49-4.68c.06-5.84,0-11.68,0-17.51l0-4.22a2.91,2.91,0,0,0,0-.59v-1.2c.08-5.55-.22-5.93-4.65-6h-.54l-8.23.07-.15,9.53q0,12.89-.05,25.78c-.88,1.75-.36,3.65-.52,5.48l-.65,0c-.11-1.62.58-3.33-.44-4.85,1-8.77.3-17.57.41-26.35v-3a10.57,10.57,0,0,0-.28-3.54c-.7-3.5-1.28-4.18-4.46-3.58s-6.24.32-9.35.44c-6,.23-12.1-.08-18.15-.09-4,0-8,.52-11.87,0-2.81-.35-6.24.85-8.36-2.73a20.58,20.58,0,0,1-1.93-5.5l55.63,0c.34.61.71.62,1.1.05h1.08c.55.71,1.1.71,1.64,0l7.63,0c1.82.53,2.44,1.79,2.26,3.85a8.54,8.54,0,0,0,.25,4.11l.73,0v-8Z"
  transform="translate(-183 -126)"  />
  
  <path class="jeans-front"
  d="M358.08,363.82c.09-2.59-.5-4.51-3.14-5-.53-.1-.69-.56-.74-1.09l-1-.15c-.72,1.13-1.82.7-2.76.7-10.73,0-21.46-.15-32.19.12-3.56.09-7.15,0-10.72.42-.79.1-1.71.28-1.91-1h-1a4.48,4.48,0,0,1-6.61,0l-1.58-.05c-.5,1.92-2,1.14-3,1.1-17.36-.67-34.72-.56-52.09-.51a34.77,34.77,0,0,0-7.27.67,4,4,0,0,0-3.24,3.75,44.86,44.86,0,0,0,.49,16.46l.69.11,55.63,0c.4-.64.76-.59,1.1.05h1.08c.54-.82,1.09-.82,1.64,0l7.63,0c1.05-1.22,2.15-.57,3.24-.1l52-.09c0-.59-.14-1.46.51-1.51,3.36-.26,3-3.18,3.17-5.49C358.21,369.41,358,366.61,358.08,363.82Z"
  transform="translate(-183 -126)"  />
  
  <path class="jeans-front"
  d="M302.33,379.27v8l-.73,0a8.54,8.54,0,0,1-.25-4.11c.18-2.06-.44-3.32-2.26-3.85C300.14,378.15,301.24,378.8,302.33,379.27Z"
  transform="translate(-183 -126)"  />
  
  <path class="jeans-front" d="M291.46,379.34c-.54.73-1.09.73-1.64,0C290.36,378.54,290.91,378.54,291.46,379.34Z"
  transform="translate(-183 -126)"  />
  
  <path class="jeans-front" d="M288.74,379.37c-.39.57-.76.56-1.1-.05C288,378.68,288.4,378.73,288.74,379.37Z"
  transform="translate(-183 -126)"  />
  
  <path class="jeans-dark"
  d="M288.86,466.93a119.92,119.92,0,0,1-.19,18c-.59,0-1.2-.13-1.58.56-3.58-.29-7.07,1.4-10.7.6-4.92-1.08-9.88-.47-14.84-.43-2.78,0-5.74,2.05-8.41-.65-.36-.36-1.26-.26-1.86-.1-4.67,1.26-9.34-.2-14,0-2.7.13-5.07-1.35-7.7-1.46-1,0-1.55-.94-1.39-2.15a14.73,14.73,0,0,1,7.31-2.26c6.87-.14,13.59-1.84,20.53-1.53,5.36.24,10.74.65,16.13.65,3.74,0,7.6.73,11.43.68,2.09,0,3.84.08,3.82,3.25,1.28-4,.49-8,.8-11.89C288.31,469.09,287.62,467.77,288.86,466.93Z"
  transform="translate(-183 -126)"  />
  
  <path class="jeans-front"
  d="M289.83,508.94a133,133,0,0,1-.46-15.46c0-2.89-.41-5.72-.7-8.57-.59,0-1.2-.13-1.58.56.19.79.37,1.59.55,2.39h0c-.18-.8-.36-1.6-.55-2.39-3.58-.29-7.07,1.4-10.7.6-4.92-1.08-9.88-.47-14.84-.43-2.78,0-5.74,2.05-8.41-.65-.36-.36-1.26-.26-1.86-.1-4.67,1.26-9.34-.2-14,0-2.7.13-5.07-1.35-7.7-1.46-1,0-1.55-.94-1.39-2.15-.2-.21-.4-.41-.59-.62l-1.6.6a5,5,0,0,0,.47,3,5.84,5.84,0,0,1,0,1.78c-2,5.16-.56,10.69-1.5,16-.13.72-.28,1.85.76,1.88s.79-1.09.81-1.84a3.69,3.69,0,0,0-.15-.87.76.76,0,0,1,.38-1c.64-.26.82.3.86.78a32,32,0,0,1-.28,8.91c-.09.44-.48,1.77-1.21.66-1.36-2.08-1.16,0-1.44.58-.59,1.32-.3,2.75-.34,4.13,0,1.8-.4,4,2.46,2.7,1-.44,1.61.7,2.42,1.08-.23,2.94,2.56,1,3.26,2.44,12,0,23.92.09,35.88,0,6.79-.06,13.58.38,20.36-.36,1-2.36.46-4.85.6-7.28C289.41,512.2,289,510.49,289.83,508.94Z"
  transform="translate(-183 -126)"  />
  
  <path class="jeans-front"
  d="M363.73,515.08c-1.16-2.92.24-5.75-.52-8.81-1.16-4.59,0-9.62-1.49-14.49-.65-2.06-1.43-2.45-2.73-2.67-2.23-.35-4.49-.44-6.74-.62-.8-.07-1.71.13-1.82-1.19-3.9,0-7.8,0-11.69,0-5.56,0-11.11.14-16.67.51-5.33.35-10.69.17-16,0-1.77-.05-3.53-.85-5.29,0a6.58,6.58,0,0,0-.56,3.48q0,11.85,0,23.68c0,4.06,0,4.06,3.84,4h45.81l12,0A3.21,3.21,0,0,0,363.73,515.08Z"
  transform="translate(-183 -126)"  />
  
  <path class="jeans-dark"
  d="M298.79,462.12c0-8.65-.23-17.31.18-26l.77.78c.11,13.39-.64,26.78.43,40.15a2.51,2.51,0,0,0,.23,3c.83,1,1.27-.51,1.93-.8,1.67-.75,3.37-1.92,5.16-1.57,3.49.69,7.11-.79,10.51.91a.58.58,0,0,0,.53,0c3.48-3.11,7.31-.44,10.93-.56a83,83,0,0,1,15.25.6c2.22.33,4.62-.74,7.1-.55,1.87.15,3.28,1.66,5.12,1.37,1,3.82.74,4.15-2.78,4.19-5.94.07-11.87.21-17.81.48-6.91.31-13.85-.28-20.78-.46-4.31-.12-8.61,1.14-12.94,0-1.65-.43-2,.81-1.9,2.32l-1.18.09c-.25-.82-.51-1.64-.77-2.45a.67.67,0,0,0-.06-1c0-1.11,0-2.22,0-3.32a6.19,6.19,0,0,0,0-4.5q0-6.09,0-12.18c.07,0,.2-.11.19-.12A2.87,2.87,0,0,0,298.79,462.12Z"
  transform="translate(-183 -126)"  />
  
  <path class="jeans-front"
  d="M354.22,386.52c-3.64,4.08-7.81,6.43-13.18,4.89a4,4,0,0,0-1.62-.09c-4.76.67-9.6-.05-14.24-.5-3.19-.31-5.86.77-8.77.89a3,3,0,0,1-1.58-.14c-3.17-1.6-6.41.19-9.6-.26-2.13-.3-1.18,2.76-2.78,3,0-.4-.06-.8-.05-1.19.11-5.34.19-5.23,5-5.44,9.49-.42,19,.4,28.43,0a48,48,0,0,1,8.31,0C347.61,388.18,350.9,387.21,354.22,386.52Z"
  transform="translate(-183 -126)"  />
  
  <path class="jeans-front" d="M287.1,428.58c-.08.44-.13,1-.7.81-.42-.16-.25-.57.05-.84Z"
  transform="translate(-183 -126)"  />
  
  <path class="jeans-front" d="M301.25,395.5a3.3,3.3,0,0,1-.19-.43s.13-.1.19-.16A2.91,2.91,0,0,1,301.25,395.5Z"
  transform="translate(-183 -126)"  />
  
  <path class="jeans-dark"
  d="M298.72,435.41a.27.27,0,0,1-.28-.31c-.71-1.22-.07-2.42.07-3.62.61-.34,1.33-.53,1.62-1.33.19-.56.4-1.12,1.07-.92s.57,1,.68,1.66C302.48,433.79,300.37,434.4,298.72,435.41Z"
  transform="translate(-183 -126)"  />
  
  <path class="jeans-front"
  d="M362.82,483.64v-1.73c-2.34-1.47-1.49-4.2-2-6.36-1.07-4.63.39-9.42-.55-14.12-.86-4.3.18-8.83-.31-13-1.16-9.8,1.16-19.71-1.26-29.37-.34-1.37.49-2.57.37-3.8-.46-5,1.07-9.95.57-14.91s.33-9.84-1.55-14.49a5,5,0,0,0-2.11,2.94,5,5,0,0,1,2.11-2.94,24.27,24.27,0,0,0,.51-4.36c.06-1.88-.65-2.51-2.24-2.21-.25,2.57.06,5.34-2.15,7.21-3.64,4.08-7.81,6.43-13.18,4.89a4,4,0,0,0-1.62-.09c-4.76.67-9.6-.05-14.24-.5-3.19-.31-5.86.77-8.77.89a3,3,0,0,1-1.58-.14c-3.17-1.6-6.41.19-9.6-.26-2.13-.3-1.18,2.76-2.78,3v9.61l-.13,19.77h0c-.34-.13-.82,1.83-1.05-.11a10.28,10.28,0,0,0-.5-1.67,46.41,46.41,0,0,0,.49-4.68c.06-5.84,0-11.68,0-17.51,0-1.41,0-2.82,0-4.22a3.3,3.3,0,0,1-.19-.43s.13-.1.19-.16c0-.4,0-.8,0-1.2.08-5.55-.22-5.93-4.65-6h-.54l-8.23.07-.15,9.53q0,12.89-.05,25.78c-.88,1.75-.36,3.65-.52,5.48-.08.44-.13,1-.7.82-.42-.17-.25-.58.05-.85-.11-1.62.58-3.33-.44-4.85a2.11,2.11,0,0,1-.54.07,2.11,2.11,0,0,0,.54-.07c1-8.77.3-17.57.41-26.35,0-1,0-2,0-3a10.57,10.57,0,0,0-.28-3.54c-.7-3.5-1.28-4.18-4.46-3.58s-6.24.32-9.35.44c-6,.23-12.1-.08-18.15-.09-4,0-8,.52-11.87,0-2.81-.35-6.24.85-8.36-2.73a20.58,20.58,0,0,1-1.93-5.5l-.69-.1c-1.27.31-1,1.45-1,2.36.12,2,.34,4.07.52,6.1h0c.5,1.4-1.22,2.8,0,4.22,0,.38,0,.77,0,1.15-2.08,1.8-2.06,4.54-1.46,6.69.81,2.89.45,5.77.87,8.62.21,1.41,1.76,2.45.83,4.16-1.08,2-.65,4.07,0,6a5.32,5.32,0,0,1-.36,4.3,33.31,33.31,0,0,0-2.84,9.19c-1.11,6.59-1.14,13.44-1.25,20.19-.16,9-.27,17.91-1.12,26.83-.08.76-.21,1.62.52,2.18l1.6-.6q.27-.54.51-1.08-.24.54-.51,1.08c.19.21.39.41.59.62a14.73,14.73,0,0,1,7.31-2.26c6.87-.14,13.59-1.84,20.53-1.53,5.36.24,10.74.65,16.13.65,3.74,0,7.6.73,11.43.68,2.09,0,3.84.08,3.82,3.25,1.28-4,.49-8,.8-11.89.09-1.1-.6-2.42.64-3.26.56-5.55.2-11.12.28-16.68.07-4.38,0-8.76.09-13.14,0-.9-.4-2.58,1.21-2.41,2.67.28,5.36-.28,8,.4-.71-1.22-.07-2.42.07-3.62.61-.34,1.33-.53,1.62-1.33.19-.56.4-1.12,1.07-.92s.57,1,.68,1.66h0c.6,2.9-1.51,3.51-3.16,4.52l.25.74.77.78h0c.11,13.39-.64,26.78.43,40.15a2.51,2.51,0,0,0,.23,3c.83,1,1.27-.51,1.93-.8,1.67-.75,3.37-1.92,5.16-1.57,3.49.69,7.11-.79,10.51.91a.58.58,0,0,0,.53,0c3.48-3.11,7.31-.44,10.93-.56a83,83,0,0,1,15.25.6c2.22.33,4.62-.74,7.1-.55,1.87.15,3.28,1.66,5.12,1.37h0c1,3.82.74,4.15-2.78,4.19-5.94.07-11.87.21-17.81.48-6.91.31-13.85-.28-20.78-.46-4.31-.12-8.61,1.14-12.94,0-1.65-.43-2,.81-1.9,2.32l0,1.81c1.76-.89,3.52-.09,5.29,0,5.34.15,10.7.33,16,0,5.56-.37,11.11-.5,16.67-.51,3.89,0,7.79,0,11.69,0,1.08,0,2.16.39,3.24,0a1.27,1.27,0,0,0,2.19,0c1.46-.17,3,.55,4.39-.52l2.26-.08a1.27,1.27,0,0,0-.52-1.53C361.76,484.27,362,483.73,362.82,483.64Zm-74.64-86.33Zm-1,35.78a3,3,0,0,1-1.15-2.26h0c1.18-.24,1.9.75,2.8,1.25C288.73,433.39,288.57,434.49,287.14,433.09Z"
  transform="translate(-183 -126)"  />
  
  <path class="jeans-dark"
  d="M288.79,432.08c-.06,1.31-.22,2.41-1.65,1a3,3,0,0,1-1.15-2.26C287.17,430.59,287.89,431.58,288.79,432.08Z"
  transform="translate(-183 -126)"  />
   />
  <path class="jeans-front" d="M298.74,474.82a6.19,6.19,0,0,1,0,4.5A10.35,10.35,0,0,1,298.74,474.82Z"
  transform="translate(-183 -126)"  />
  
  <path class="jeans-front" d="M298.71,482.64a.67.67,0,0,1,.06,1A.7.7,0,0,1,298.71,482.64Z"
  transform="translate(-183 -126)"  />
  
  <path class="jeans-back" d="M298.79,462.12a2.87,2.87,0,0,1,.18.4s-.12.08-.19.12l-.13-.27Z"
  transform="translate(-183 -126)"  />
      
<path class="hand"
d="M237.44,455.9c-2.86-1.55-5.8-3.13-9-3.56a28.19,28.19,0,0,0-4.11-.13c-2.47,0-4.9.18-7.37.14-1.36,0-1.44-.24-2.23.5-.24.21-.39.78-.67,1.06a5.88,5.88,0,0,1-1.08.66,30.07,30.07,0,0,0-7.5,6.68,23.42,23.42,0,0,0-4.39,19.82A6.21,6.21,0,0,0,204,487l0,0c1.87.18,2.72-.38,3.1-2.52.87-4.89.72-9.78.8-14.68,2.08-5.56,5.92-9.18,11.94-9.55,5.59-.35,10,2.15,12.68,7.21a7.62,7.62,0,0,0,1.28,3.74l.15,1.64c-.22.72.14,1.62-.69,2.12-1.07.76-.69,1.91-.79,2.93-2.78,3.91-3.27,8.47-3.67,13-.17,2,.58,3.51,2.79,2.14,7.59-4.68,11.26-13.82,10.36-21.93-.53-4.75-3.3-8.44-5.06-12.61a1.45,1.45,0,0,1-1.18.27,2.15,2.15,0,0,0,.55-.27"
transform="translate(-195.96 -230)"/>
<path class="torso"
d="M379.43,452.3l.12.64.07.35L402,450.13a6.31,6.31,0,0,1,1.31-3.26,9.72,9.72,0,0,1,1.67-1.66,2.33,2.33,0,0,0,.61-2.44c-2.33-11.35-3.67-23-7.24-33.95-5-15.43-14.72-28.7-23.08-42.52a10.37,10.37,0,0,0-9.1-5,23.47,23.47,0,0,0-8.84-.09c-1.3-1-1.4-2.52-1.82-3.88-.65-2.13-1.89-3.36-4.21-3.27l-.88-.86c-1-1-2.34-.56-3.52-.57-5.9-.07-11.79-.07-17.69-.09-.14-.23-.28-.46-.43-.69q0-20.49,0-41c0-1.31.45-2.75-.61-3.92-.27-1-.22-2.15-1.86-2.29-3.43-.28-6.81-1.14-10.29-.71h0c-1-1.07-2.34-.57-3.54-.66-6.49-.5-12.92.69-19.39.7-4.73,0-5.31.7-5.29,5.53,0,13.45,0,26.9.26,40.34,0,2.23-.45,2.93-2.56,2.89-5.73-.1-11.47,0-17.2-.21-4.38-.17-6.44.93-7.68,5.2-.62,2.11-1.71,2.66-3.8,2.52a19.14,19.14,0,0,0-10.47,2.22,22.48,22.48,0,0,0-5.58,6.54c-.58,1-1.17,1.84-2.42,1.91-2.43,4.71-4.93,9.38-7.27,14.13-3.56,7.21-8.39,13.76-11,21.45-3.88,11.4-5.17,23.43-8.54,34.95-.51,1.75-.44,3.65.91,4.92a7.6,7.6,0,0,1,2.06,4.8,5.85,5.85,0,0,1-.09.83,12.62,12.62,0,0,0,2.93-.25,20.06,20.06,0,0,1,3.1.06,44.59,44.59,0,0,0,5.17,0,10.2,10.2,0,0,1,3.17.12c.69.18,1.33.51,2,.73.47.14,1,.23,1.43.35a19.75,19.75,0,0,1,5.05,2.22l.09-.76a3.81,3.81,0,0,1-.19-1l4.54-2,.45-.94.15.25q5.51-31.77,11-63.52a15.14,15.14,0,0,0,1.26-5.49c0-1.71,1.12-5.18,1.89-4.66l-13.29,73.72-.6,1.43a1.73,1.73,0,0,1,.28,2.34l.22.11.24-.07-.45,5.44c1.32.77,2.56,1.85,4.28,1.17,2.14,1.67,4.59.61,6.85.62,15.68.06,31.35,0,47,0v.06h15.17c.59.13,1.29.06,1.52.85a1.79,1.79,0,0,1,2.78.2h.87c3.22-1.26,6.49-.73,9.76-.26.71-.29,1.36-.88,2.22-.47,2.75-.19,5.51-.43,8.12.78,1.34-1.15,2.94-1,4.54-1,5.14,0,10.28-.05,15.42-.08H364l3,.25c.78,1,1.9.47,2.87.64l1.63-.57c0-.26,0-.52,0-.78,1,.48,1.2-.15,1.38-.95a15,15,0,0,0-.08-5.79c0-1.47.59-3.28-.06-4.35-2.31-3.84-.56-8.29-2.23-12.14.34-7.16-1.91-13.93-3.3-20.8-2.91-14.46-6-28.88-8.31-43.46q.87,1.28,1.8,2.55c2.16,13.72,5,27.3,7.63,40.91,1.33,6.87,3.51,13.64,3.17,20.8,2.58,3.56,1.95,8.07,3.27,12l.37-.59c1,1.35,2.49,1.7,4.09,1.91C379.32,451.73,379.37,452,379.43,452.3Z"
transform="translate(-195.96 -230)"/>
<path class="hand"
d="M416.54,467.53c-2.12-4.82-4.86-9.49-10.64-11a3.57,3.57,0,0,0-2.33-1.39,12.48,12.48,0,0,1-1-4.89l-22.29,3.16c.06.29.1.52.1.52.06.31.37,1.92.53,2.72a7.84,7.84,0,0,1,.76,2.17,17.26,17.26,0,0,1,.17,2.29h-.53l-4.62,10.77c-.06,1.89-.12,3.77-.17,5.65s-.06,3.88.14,5.78a6.7,6.7,0,0,0,5.46,6c2.88.6,5.49-.65,3.93-2.9.42-2-.7-3.91-.38-5.87a5.3,5.3,0,0,1-.23-.67c0-.51,0-1,.08-1.54a2.28,2.28,0,0,0-.69,0,22.47,22.47,0,0,1,.11-6.65c.67-1.51,1.35-3,2-4.55,1.53-2,3.91-2.91,5.76-4.5a51.77,51.77,0,0,1,6.31-.45c7,.37,12.78,8,11.25,16.12-1,2.81.3,8.92,2.27,10.59.76-2.13,3-3,3.94-5.21A19.5,19.5,0,0,0,416.54,467.53Zm-38.21,13.19c0-.14.05-.27.08-.41.06.24.12.49.19.73Zm5.83-8.92h0l.17.11ZM405,457.12h0c.08-.12.17-.23.26-.35Z"
  transform="translate(-195.96 -230)"/>
      
  <path 
  class="head" 
  d="M310.62,362.36s4-.12,5.95.64a13.58,13.58,0,0,1,4,2.55,3.13,3.13,0,0,1,.94,2.51,41,41,0,0,1-.17,5.86c-.24,1.64.06,1.83,1.75,2.12a28.67,28.67,0,0,1,14.76,6.73,18.38,18.38,0,0,1,6,14.17c.06,12.47.21,24.95-.12,37.41-.2,7.61-3.65,12.67-11,15.8a14,14,0,0,1-3.4,1.14.89.89,0,0,0-.83,1.07c.05,2.24.06,4.47.05,6.71a.83.83,0,0,0,.69.92c.51.18,1.23.38,1.21,1.14s-.77.86-1.29,1.07c-1.9.77-4,.75-6,1-2.24.3-4.47.67-6.72.87-1.54.13-3.09.12-4.64.31-2.41.28-4.86.13-7.28.32-3.14.24-6.28-.06-9.41-.07a93.09,93.09,0,0,1-10.93-.78c-2.72-.34-5.47-.51-8.19-.89a8.52,8.52,0,0,1-3.43-1.19c-.82-.51-.78-1.17.13-1.36,2-.4,2.3-1.65,2.16-3.39a45.47,45.47,0,0,1,0-4.67c0-.69-.12-1-.91-1.22-4.78-1.27-8.93-3.54-11.7-7.85a15.75,15.75,0,0,1-2.75-8.64c0-6-.09-12,.11-18,.22-6.64.07-13.27.13-19.9a20.61,20.61,0,0,1,3.78-12,19.06,19.06,0,0,1,8.89-6.58,40.41,40.41,0,0,1,9.26-2.68c.89-.13.8-.81.82-1.35.07-1.72.14-3.44.05-5.15a5,5,0,0,1,2.89-5.19c1.51-.77,3-1.75,4.75-1.76C289.85,362.46,310.62,362.36,310.62,362.36Z" 
  transform="translate(-190 -340)"/>
      
<path class="bald-1"
                d="M80.09,12.94a7.21,7.21,0,0,1,3,3.25c1.9,3.12,3.52,6.19-1.57,8a5,5,0,0,0-4.46,3.36,6.81,6.81,0,0,1-4.56,4.32c-12.44.72-24.89.07-37.33.29-2.75-.41-7.57,1-7.6-2.25,0-4.13,4.55-2,7.26-2.08A5.56,5.56,0,0,0,39.31,26c1.64-2.08,3.95-3.35,6.2-4.73C47.56,20,50.17,18.9,49.87,16c-.28-2.69-2.7-3.71-5-4.68C43,10.59,40,10.58,41.07,7.25a43.83,43.83,0,0,1,22.17-.18,43.38,43.38,0,0,0,6.58,1.25C73.71,8.89,76.7,11.32,80.09,12.94Z" transform="translate(60 20)" />
            <path class="bald-2"
                d="M1.1,41.6C.71,39-1,36.4.79,33.7c5.82-1.62,12.08-1.4,17.69-3.93a4.37,4.37,0,0,1,5.09,2.54c.76,2.18,1,4.58-.53,6.3-3.17,3.65-5.79,7.28-6.89,12.16-.69,3.09-4.21,3.55-7,1.87-3.15-1.87-7.45-3-6.94-8A7.15,7.15,0,0,0,1.1,41.6Z" transform="translate(60 20)" />
            <path class="bald-3"
                d="M70.52,9.75C62.44,8.6,54.44,6.67,46.17,7.57c-1.82.2-3.82-.5-5.32,1.1-2.36,2.11-5.46,3.12-8,5-1.35,1-2.88,1.8-3.67,3.3-1.18,2.2-3.15,4.49-1.5,7,1.51,2.33,4.31,1.7,6.73,1.68,2.17,0,4.46-1.27,6.45.58-1.2,3.74-4.38,3.29-7.36,3.19-1.74-.06-3.47-1.82-5.58.31,1.92,1.6,4.19.53,6.13.91-.88,3.6-3.84,2.22-6.16,2.4a6,6,0,0,1-3.11-1.57c-1.71-1.77-1.47-5-4.52-5.79-2.75-1.57-6.44-2.54-4.84-6.91l1.25-1.39c2.46-3.1,5.92-5.23,8.55-8.17a5.37,5.37,0,0,1,2.45-.69C38,4.07,48.88,4.8,59.73,4.94A17.33,17.33,0,0,1,66,6.29C67.54,7.42,70.42,6.91,70.52,9.75Z" transform="translate(60 20)" />
            <path class="bald-4"
                d="M86.72,20.43c5.24,1.69,10,3.94,11.43,9.73,1.41,2.83,3.7,5.53,1.39,8.89-1.92.09-4,1-5.2-1.56-.7-1.53-2.28-.38-3.45-.5a7.26,7.26,0,0,1-1.54-.16c-4.31-1.38-8.47-3-11.69-6.31C77.88,24.84,83.64,23.75,86.72,20.43Z" transform="translate(60 20)" />
            <path class="bald-5"
                d="M18,30.61c-2.12,4.15-6.93,1.63-10.18,3.53C7,34.65,3,35.82.79,33.7c1.3-6.94,6.11-10.74,12.62-13C20.47,25.78,20.74,26.37,18,30.61Z" transform="translate(60 20)" />
            <path class="bald-6"
                d="M1.1,41.6C2.81,45.48,4.66,49,9,51.16c3.72,1.88,5.82,1.56,6.32-2.34s1.61-6.92,5.15-9.08c2.65-1.61,2.18-4.4,2.15-6.93a1.25,1.25,0,0,1,1.67.24c1.43,2.24,1.18,4.58.45,7-2.59,3.08-6.12,5.73-5.38,10.41A14.28,14.28,0,0,1,17.54,55c-3.32,1.93-1.79,5.77-3.55,8.32-1.81,1.14-2.66-.34-2.65-1.42,0-5.4-3.73-7.58-8.12-9.33C1.79,49,1.62,45.29,1.1,41.6Z" transform="translate(60 20)" />
            <path class="bald-7"
                d="M86.72,20.43c-2,4-7.21,5.48-8.26,10.14-.72,1.92-.48,3.94-.63,5.92-.45,2.61,1.74,3.66,3.2,5.24,2.34,2.55,4.88,5.24,1.83,8.9a2.66,2.66,0,0,1-1.58.08c-1.74-2.39-2-5.8-5.17-7.2-2.37-1.85-2.67-4.59-3.39-7.15a8.56,8.56,0,0,1,0-3.23,4.31,4.31,0,0,1,.67-1.44c3.36-2.19,2.92-7.41,7.45-8.68,5.25-.86,2.35-4.29,2.31-6.82C85,17.09,85.66,18.91,86.72,20.43Z" transform="translate(60 20)" />
            <path class="bald-8"
                d="M13.83,64.68c-.17.59-.35,1.18-.52,1.77-5.86-3-8-8.44-10.09-13.9,1.83,2.38,2.75-3.37,4-.6s6.53,3.34,5.16,7.9c-.32,1.06.4,2.41.64,3.62A1,1,0,0,1,13.83,64.68Z" transform="translate(60 20)" />
            <path class="bald-9"
                d="M98.94,39.32c1.84-3.22-.25-6.13-.79-9.16,2.48.81,2.85,3.21,2.67,4.88-.7,6.33-.75,12.83-3.8,18.73-2,2.1-4.31-.63-6.36.46a1.81,1.81,0,0,1-1.08-2c3.38-5.23,4-5.46,7-2.73C96.47,45.88,96.24,42.28,98.94,39.32Z" transform="translate(60 20)" />
            <path class="bald-10"
                d="M70.52,9.75,65.91,7.59C65.07,5.42,62.2,6.76,61.1,5c.8-2.67,3.18-1.23,4.82-1.71C72,4.71,76.2,8.59,80.09,12.94,76.56,12.82,73.57,11.2,70.52,9.75Z" transform="translate(60 20)" />
            <path class="bald-11"
                d="M23.66,32.75c-.36,0-.71,0-1.07.06-.87-2-2.61-2.28-4.55-2.2,2.22-4.93-3.47-6.45-4.63-9.92l2-1.92c.06,3.84,3.68,4.58,6,6.43,1.56,1.52,2.94,3.12,2.92,5.43A1.85,1.85,0,0,1,23.66,32.75Z" transform="translate(60 20)" />
            <path class="bald-12"
                d="M91.09,53.67c2-1.08,3.94.92,5.93.1-1.65,4-3.31,8-6.94,10.76,0-.69,0-1.38,0-2.07C91.47,59.65,89.26,56.44,91.09,53.67Z" transform="translate(60 20)" />
            <path class="bald-13"
                d="M65.92,3.32l-4.55,2a2.62,2.62,0,0,1-1.85.56c-5,0-9.93.16-14.89-.11-1-2.89,1.42-2.67,3-2.92,2.56-.41,5.2.07,7.76-.55l1.7-.69c1.51,0,3-.35,4.49.32A6.67,6.67,0,0,1,65.92,3.32Z" transform="translate(60 20)" />
            <path class="bald-14"
                d="M31.37,4.11C39.17.38,47.3-1.09,55.92.86c-2.43,2.77-6,1.07-8.87,2.13-1.47.2-2.95.32-4.41.6-2.6,0-4.94,1-7.37,1.62a5.53,5.53,0,0,1-2.59,0A2.31,2.31,0,0,1,31.37,4.11Z" transform="translate(60 20)" />
            <path class="bald-10"
                d="M31.37,4.11l1.56.3c1.94,1.13,1.6,2.28-.18,3S29,9,27.17,9.75L25,9.86a.94.94,0,0,1-1.35-.11C25.44,6.86,28.52,5.63,31.37,4.11Z" transform="translate(60 20)" />
            <path class="bald-10"
                d="M46.52,2.05c2.91-2,6.32-.38,9.39-1.19,2,0,4-.2,5.69,1.1l-4.84.15A11.06,11.06,0,0,1,46.52,2.05Z" transform="translate(60 20)" />
            <path class="bald-15"
                d="M40.85,26.23c-3.71.44-7.34,1.57-11.14,1.07-3.35-.43-5.19-2.13-4.6-5.49C26.2,15.56,33.88,9.22,40.85,8.67c1.66,1,3.66.74,5.38,1.32,2.91,1,5.35,3,5.87,6S50,20.44,47.78,21.72C45.36,23.09,42.86,24.3,40.85,26.23Z" transform="translate(60 20)" />
            <path class="bald-16"
                d="M74,31.71c0,.38-.09.75-.13,1.13-2.27,3-5.67,3-8.82,2.54-10.77-1.71-21.6-.57-32.4-.93-1.71-.06-3.43,0-5-.91a1.43,1.43,0,0,1-.67-1.78c2.32-.42,4.92.73,7-1.12H73.91c.38.2.52.43.43.68S74.15,31.71,74,31.71Z" transform="translate(60 20)" />
            <path class="bald-3" d="M74,31.71a9.47,9.47,0,0,1-.13-1.07c2.46-2.41,1-8.12,6.9-7.63Z" transform="translate(60 20)" />
            <path class="bald-17"
                d="M12.84,38c-2.07,2.19-2.15,5.65-5.43,7-.81.34-1.71,1.05-2.52.11a1.7,1.7,0,0,1,.25-2.45c2.11-2,4.33-3.79,6.51-5.68Z" transform="translate(60 20)" />
            <path class="bald-18"
                d="M27.17,9.75c.12-2,1.68-1.95,3.15-2.33S34,7,32.93,4.41l2.16-.18c3.21-.71,6.4-1.18,9.21,1.14l16,0q.57.34.39.69c-.12.24-.24.36-.37.36-10.9.27-22.06-1.4-32.3,3.94C27.87,10.45,27.45,10,27.17,9.75Z" transform="translate(60 20)" />
            <path class="bald-19"
                d="M27.05,31.76c0,.34.06.67.11,1,1,1.47.33,2.95.07,4.43-.51,1.5-1.07,3-2.84,3.51l-.75-.3c0-2.55,0-5.11,0-7.66.07-.74.15-1.48.22-2.22.3-.47.65-.53,1.05-.11Z" transform="translate(60 20)" />
            <path class="bald-20" d="M60.28,6.45c0-.35,0-.7,0-1l1.11-.05c1.78,0,3.65-.16,5.17.93s.11,1.1-.63,1.31Z" transform="translate(60 20)" />
            <path class="bald-15"
                d="M24.93,30.42a7.48,7.48,0,0,1-1.05.11c-.81-1.78-1.63-3.56-2.44-5.33C25.12,25.38,24.3,28.35,24.93,30.42Z" transform="translate(60 20)" />
            <path class="bald-21"
                d="M98.94,39.32c-.37,2.82-.73,5.65-1.11,8.47-.09.65-.19,2-.88,1.57-4.22-2.48-4.4,2.84-7.06,3.21-2.68,1.76-5.46,1.22-5.45-1.77A11.65,11.65,0,0,0,78.8,40.24c-1.43-1-1.3-3-2.61-4.16,0-2.15-.3-4.37,2.27-5.51l11.45,5.52c-1.56,2.68.86,4.34,1.77,6.39-.5-2.15-3.09-3.77-1.77-6.39L96,34.16C94.4,37.5,97.79,37.71,98.94,39.32Z" transform="translate(60 20)" />
            <path class="bald-22"
                d="M24.87,57.88l-8.33-3.26c.49-1.39,1-2.77,1.49-4.15a2.13,2.13,0,0,1,1.28-.79,8.34,8.34,0,0,1,3.81,1.08c.76.34,1.48.74,2.22,1.14,4.95,2.56,5.26,3.57,2.33,7.68A2.3,2.3,0,0,1,24.87,57.88Z" transform="translate(60 20)" />
            <path class="bald-19"
                d="M19.2,50.3,18,50.47c-.88-4.77.69-8.28,5.62-10l.32.24C24,44.61,20.53,47,19.2,50.3Z" transform="translate(60 20)" />
            <path class="bald-23"
                d="M73.81,59.08c.07,1.48.14,3,.22,4.43.51,1.77-.65,2.33-2.1,2.69a4,4,0,0,1-2.87-1.4,3.74,3.74,0,0,1-.38-1.5c.3-2,.27-4,.39-6a5.72,5.72,0,0,1,.58-2.07c1.64-1.27-.29-1.29-.73-1.83-2.14-.8-4.38-.35-6.56-.44-1.28,0-2.55,0-3.83,0-3.32-.6-3.46,2.34-4.76,4a2.12,2.12,0,0,1-1.41.32c-1.43-1.32-3-.3-4.59-.32A4.43,4.43,0,0,1,46,52.9a3.78,3.78,0,0,1,1.61-2.59c2.63.07,4.85-1.32,7.29-2a7.59,7.59,0,0,1,1.65.1,47.39,47.39,0,0,0,13.56-.12,5.39,5.39,0,0,1,2.61.31,3.79,3.79,0,0,1,2,3.49C74.76,54.49,73.66,56.7,73.81,59.08Z" transform="translate(60 20)" />
            <path class="bald-24"
                d="M76.19,36.08c3.75,4,10,6.35,9.19,13.31-.37,3.28,2.19,3.18,4.51,3.18l1.2,1.1c-.49,2.92.93,6-1,8.79-.32-3.78.68-8.49-6-7.8-1.4-1-2.7-2.09-2.18-4.07C84.57,46.62,82,44,79,42A5.72,5.72,0,0,1,76.19,36.08Z" transform="translate(60 20)" />
            <path class="bald-25"
                d="M81.91,50.59c1.24,1.1,2.42,2.24,2.18,4.08C80.84,56.5,76.48,56,73.81,59.08a5,5,0,0,1,0-6.56l.72-.13A34.65,34.65,0,0,0,80,50.47l.72-.14Z" transform="translate(60 20)" />
            <path class="bald-26"
                d="M54.52,49c-2.12,1.25-3.71,4.7-6.88,1.52l-.78-.22a21.87,21.87,0,0,0-7.29-2.78c-1.63-.34-3.4-.6-3.87-2.6a2.57,2.57,0,0,1,.55-1.52c1.42-1.1,3.18-1.24,4.86-1.63,4.73,0,9.33,2.67,14.17.64a17,17,0,0,1,2.47-.13c2.08,0,4.22.34,6.24-.11,4.79-1.08,8.52.75,11.93,3.77,1.56-.7.11-2.54,1.44-3.19,2.87,1.82,5.34,3.8,3.39,7.61l.15.33c-2.09,1.32-4.21,2.57-6.89,2l-.16-.16-1.11-3.08c-2-2.43-4.64-2.74-7.65-2.35C61.53,47.56,58.05,48.39,54.52,49Z" transform="translate(60 20)" />
            <path class="bald-27"
                d="M26.12,37.19a7.18,7.18,0,0,1,1-4.42c12.61.53,25.27-.94,37.84,1.07,3,.48,6-.22,8.91-1l0,3.23c-1.27,2.87-2.7,3.84-6.37,2.49-5.17-1.9-10.79-3-16.46-1.31a10.13,10.13,0,0,1-1.72.29c-7.2.38-14.41.35-21.61.3A2.68,2.68,0,0,1,26.12,37.19Z" transform="translate(60 20)" />
            <path class="bald-28"
                d="M51.11,36.09c5.67-3,12.23-1.32,16.59.79,3.65,1.77,4.22-1.55,6.24-.81,1.47,2.06.44,5.31,3.42,6.65-.42,2.21,3.81,4,1.46,5.73s-4.25-1.55-5.75-3C68.35,41,62.88,45,58,43.74c-.61-2.06,2.36-2.05,2.32-3.77C58.4,36.05,53.43,39,51.11,36.09Z" transform="translate(60 20)" />
            <path class="bald-10"
                d="M44.3,5.37c-3.19.53-6.11-1-9.21-1.14a11.81,11.81,0,0,1,7-2.06c4.81,1.4,9.88-.5,14.68,1C53,6,48.07,2.55,44.3,5.37Z" transform="translate(60 20)" />
            <path class="bald-29"
                d="M56.8,3.21c-4.88-.6-9.94,1.19-14.68-1l4.4-.11,10.24.06C56.77,2.48,56.79,2.84,56.8,3.21Z" transform="translate(60 20)" />
            <path class="bald-30"
                d="M26.12,37.19l1,.06A3.48,3.48,0,0,1,28.64,39a3,3,0,0,1,.4,1.56c-.64,2.56.9,2.13,2.47,1.72,1.76,0,3.51,0,4.77,1.49l0,1.16c-2.54,2-6.72,1.58-8,5.26a6.09,6.09,0,0,1-1.1,1.17,4,4,0,0,1-4.67.16L19.2,50.3c-1.46-4.61,2.65-6.67,4.77-9.64C24.69,39.5,25.4,38.34,26.12,37.19Z" transform="translate(60 20)" />
            <path class="bald-31"
                d="M89.91,36.09c1.25,2.16,1.93,4.66,4.35,6.11,1,.6,1.5,1.68.38,2.7-.85.78-1.74.25-2.56-.14-3.31-1.57-4.53-6.48-2.17-8.67Z" transform="translate(60 20)" />
            <path class="bald-23"
                d="M29.49,66.93A7.43,7.43,0,0,1,27,59.25c3.8-4.41-.39-5.24-3.24-6.67,1.14-.77,2.81-.74,3.52-2.17v0a1.12,1.12,0,0,1,1.53-.1,5.6,5.6,0,0,1,1.79,2.75c1.06,2.91-.4,6.29,1.83,9,4.27,2.27,8.81.31,13.19.8a2.11,2.11,0,0,1,1.3,2.95c-1.6,2.67-4.34,2.45-7,2.55-1,0-2,0-2.93,0C34.4,68.36,31.69,68.85,29.49,66.93Z" transform="translate(60 20)" />
            <path class="bald-32" d="M27.26,50.41c.09,2.63-1.81,2.26-3.52,2.17l-1.24-1Z" transform="translate(60 20)" />
            <path class="bald-33"
                d="M54.52,49c3.95-3.85,9.39-3,14.19-3.84,2.32-.41,3.89,1.8,4,4.31l-2.2-.11a47.76,47.76,0,0,1-14.81,0Z" transform="translate(60 20)" />
            <path class="bald-23"
                d="M71.76,65.93c-2.43,2-5.38.67-8.05,1.14-3.2.79-6.42,2-9.59-.1a7.66,7.66,0,0,1-3.24-7.65,3.3,3.3,0,0,1,1.5-2.39l.89,0c2.14,1.18,2,3.77,3.5,5.31,2.25,1.66,4.66.34,7,.35,1.86.2,3.72.37,5.15,1.74A3.73,3.73,0,0,1,71.76,65.93Z" transform="translate(60 20)" />
            <path class="bald-34"
                d="M29.41,52.56,28.3,50.42c0-2.26,1.91-2.61,3.51-2.71,5.46-.33,11-.68,15.92,2.37l-.09.41-1,2-.73.06A10.44,10.44,0,0,1,43,52.08a42.74,42.74,0,0,0-9.92,0,9.75,9.75,0,0,1-1.43.4A6.56,6.56,0,0,1,29.41,52.56Z" transform="translate(60 20)" />
            <path class="bald-35"
                d="M52.38,56.93l-.29,2.66a3.75,3.75,0,0,1-3.24.45,2.22,2.22,0,0,1-1.69-2.49l.41-.72c1.6-.46.86-3.41,3.28-2.94C52.62,54.24,52.07,55.82,52.38,56.93Z" transform="translate(60 20)" />
            <path class="bald-36" d="M55.73,49.31l14.81,0A21.9,21.9,0,0,1,55.73,49.31Z" transform="translate(60 20)" />
            <path class="bald-37"
                d="M54.46,66.16c3,1.27,6.2.34,9.25.91-2.18,1.17-.83,1.8.18,3,3.47,4.24,2.69,5.88-2.74,6.73-1.85.29-3.65.89-5.47,1.35-3,1.84-6.27,1.43-9.53,1a16.91,16.91,0,0,0-6-1.35c-6.78-.51-7.63-1.89-4.78-8a7,7,0,0,0,1.88-2.81l2.54-.12c5.79,3.06-.66,4.09-.93,6.25,4.55-.3,8.77,2.6,13.57,1.94,2.69-.38,7.29.25,7.15-2.55-.15-3.17-4.29-1.12-6.71-1.2-2-.06-4.25.47-5.45-1.85.1-.87.75-1.25,1.47-1.57C50.77,67.41,52.59,66.73,54.46,66.16Z" transform="translate(60 20)" />
            <path class="bald-38" d="M74,52.68l6.89-2C79.11,52.93,77.06,54.39,74,52.68Z" transform="translate(60 20)" />
            <path class="bald-39"
                d="M27.21,39.37c0-.7-.05-1.41-.07-2.12,5.35-2.68,11.1,0,16.6-1.09,2-.39,4.15-.07,6.24-.07.63,1.15-.06,1.91-.83,2.64-1.44,1-3.39.72-4.83,1.74a8.64,8.64,0,0,1-1.24.74c-.8.4-1.92.35-2.21,1.47-1.23,1.54-3,1-4.59,1.1l-5.68,0C29.16,42.51,29.42,40.06,27.21,39.37Z" transform="translate(60 20)" />
            <path class="bald-32"
                d="M47.73,50.08c-6.5-1.2-13-2.61-19.43.34l-.52,0-.53,0c.58-5.56,4.68-5.75,9.07-5.51C39.85,47.23,45.41,45.33,47.73,50.08Z" transform="translate(60 20)" />
            <path class="bald-40"
                d="M43.19,39.39c1.58-1.8,3.75-.83,5.66-1.11,5.13-2.53,9.47-.59,13.67,2.2C62.46,43.47,59,42,58,43.74l-2.27,0c-.63-.61-1.38-1.07-2-1.68-.35-.27-.68-.56-1-.82-2.13-.7-4.23-.2-6.33.11A3,3,0,0,1,43.19,39.39Z" transform="translate(60 20)" />
            <path class="bald-41"
                d="M54.55,41.59a2.27,2.27,0,0,1,1.13,2.12c-5.15,2.41-9.92-.08-14.81-1-.48-.44-1.46-1.09-1.37-1.3.77-1.7,2.4-.54,3.62-.85C46.85,41.69,50.83,40.28,54.55,41.59Z" transform="translate(60 20)" />
            <path class="bald-42"
                d="M62.52,40.48c-4.72.19-8.72-3.69-13.67-2.2L50,36.09h1.13C55.34,36.52,60.57,34.56,62.52,40.48Z" transform="translate(60 20)" />
            <path class="bald-26" d="M27.21,39.37c3.53-.26,3.45,2.07,3.39,4.39C26.5,44.42,28.75,40.54,27.21,39.37Z" transform="translate(60 20)" />
            <path class="bald-43"
                d="M47.69,69.1c2.23,1.68,4.63,1.08,7,.39a8.24,8.24,0,0,1,5.52.08,4,4,0,0,1,2.6,3.27c.38,2.07-1.56,1.7-2.55,2.19-5.18,2.54-10.51,2.23-15.88.59-.35-.11-.67-.4-1-.44-5.1-.56-11-.74-2.31-6.19.83-.52-.94-1.26-1.23-2,2.29-.21,4.81.58,6.67-1.44l.58.37A3.88,3.88,0,0,1,47.69,69.1Z" transform="translate(60 20)" />
            <path class="bald-23"
                d="M45.37,63.5c.3-1.12.6-2.25.91-3.37s.11-2.46,1.29-3.29c.51.84,1,1.68,1.52,2.52,1.53,2.39.48,4.42-1,6.4a1.67,1.67,0,0,1-1.68.26V65.5A1.9,1.9,0,0,0,45.37,63.5Z" transform="translate(60 20)" />
            <path class="bald-44"
                d="M63.53,60.1c-1.87,1.93-3.9,3-6.46,1.06-.52-2.65-1.47-5.33.86-7.67,1.58.44,3.59-.6,4.75,1.27A8.39,8.39,0,0,1,63.53,60.1Z" transform="translate(60 20)" />
            <path class="bald-38" d="M44.28,51.25l-5.79.38-6.76-.32A19.41,19.41,0,0,1,44.28,51.25Z" transform="translate(60 20)" />
            <path class="bald-45"
                d="M37.73,53.8l2-.16A13,13,0,0,1,44.4,57l.36.9c-1.51,2.12-2.48,4.94-6.08,4.4l-1.41-2Q37.5,57,37.73,53.8Z" transform="translate(60 20)" />
            <path class="bald-46"
                d="M54.55,41.59c-4.07,2.17-7.75.53-11.43-1.06,0-.38.05-.76.07-1.14l3.44,1a13.32,13.32,0,0,1,7.88,0C54.52,40.84,54.54,41.21,54.55,41.59Z" transform="translate(60 20)" />
            <path class="bald-47" d="M54.51,40.47l-7.88,0A6.79,6.79,,1,54.51,40.47Z" transform="translate(60 20)" />
            <path class="bald-48"
                d="M61.16,56c-.24.25-.5.73-.9.89a1.06,1.06,0,0,1-1.57-.83c0-.33.42-.93.79-1.09C60.23,54.65,60.85,55,61.16,56Z" transform="translate(60 20)" />  
  </svg>
  