
  <svg 
  id="Layer_1" 
  data-name="Layer 1" 
  xmlns="http://www.w3.org/2000/svg" 
  viewBox="0 0 240 400">
      <defs>
          <style>
              .head{fill:#F6D7B3;}
              .torso{fill:#4B9F4A;}
              .hand{fill:#F6D7B3;}
              .jeans-back{fill: #3a80e2;}
              .jeans-front{fill: #104fc8;}
              .jeans-dark{fill: #042ba7;}
              
    
.sad-l-1 {
    fill: #a03a09;
}

.sad-l-2 {
    fill: #d0cbcc;
}

.sad-l-3 {
    fill: #eeeeef;
}

.sad-l-4 {
    fill: #8f2310;
}

    ..love-e-1 {
    fill: #611a07;
}

.love-e-2 {
    fill: #b6311f;
}

.love-e-3 {
    fill: #ba3804;
}

.love-e-4 {
    fill: #f8e3dd;
}

.love-e-5 {
    fill: #a82a14;
}

.love-e-6 {
    fill: #f6bcb2;
};
    
.fred-1 {
    fill: #3f3469;
}

.fred-2 {
    fill: #322d18;
}

.fred-3 {
    fill: #3e336e;
}

.fred-4 {
    fill: #614e5d;
}

.fred-5 {
    fill: #3e2f68;
}

.fred-6 {
    fill: #040b1c;
}

.fred-7 {
    fill: #362f5d;
}

.fred-8 {
    fill: #493b5d;
}

.fred-9 {
    fill: #352a84;
}

.fred-10 {
    fill: #f1f3f3;
}

.fred-11 {
    fill: #464948;
}

.fred-12 {
    fill: #767877;
}

.fred-13 {
    fill: #030c1b;
}

.fred-14 {
    fill: #403269;
}

.fred-15 {
    fill: #06122d;
}

.fred-16 {
    fill: #3f2e85;
}

.fred-17 {
    fill: #848686;
}

.fred-18 {
    fill: #c5c8c7;
}

    
.tung-1 {
    fill: #321004;
}

.tung-2 {
    fill: #b62713;
}

.tung-3 {
    fill: #e5e7e6;
}

.tung-4 {
    fill: #dedcdd;
}

.tung-5 {
    fill: #d2d4d3;
}

.tung-6 {
    fill: #21120b;
}

.tung-7 {
    fill: #44331d;
}

.tung-8 {
    fill: #7d7f7e;
}

.tung-9 {
    fill: #bdc0bd;
}

.tung-10 {
    fill: #c6c3c3;
}

    
.pain-1 {
    opacity: 0.4;
}

.pain-2 {
    fill: #eeedef;
}

    
.stache-1 {
    fill: #713205;
}

.stache-2 {
    fill: #763c05;
}

.stache-3 {
    fill: #7c370e;
}

.stache-4 {
    fill: #855004;
}

.stache-5 {
    fill: #7b4502;
}

.stache-6 {
    fill: #8e5906;
}

.stache-7 {
    fill: #6e300a;
}

.stache-8 {
    fill: #70300e;
}

.stache-9 {
    fill: #712d13;
}

.stache-10 {
    fill: #eff2ed;
}

.stache-11 {
    fill: #bebdc5;
}

    
.av-1 {
    fill: #c0c9c8;
}

.av-2 {
    fill: #a4aab8;
}

.av-3 {
    fill: #a9b0b9;
}

.av-4 {
    fill: #8f9aa4;
}

.av-5 {
    fill: #031011;
}

.av-6 {
    fill: #0e1214;
}

    
.tired-1 {
    fill: #b6b9ba;
}

.tired-2 {
    fill: #b8bab8;
}

    
.xx-1 {
    fill: #040404;
}

    
.snow-1 {
    fill: #040404;
}

.snow-2 {
    fill: #c81010;
}

.snow-3 {
    fill: #383a37;
}

.snow-4 {
    fill: #353837;
}

.snow-5 {
    fill: #1a7d46;
}

.snow-6 {
    fill: #171716;
}

.snow-7 {
    fill: #efa636;
}

.snow-8 {
    fill: #d2d2d0;
}

.snow-9 {
    fill: #2a2a27;
}

.snow-10 {
    fill: #535451;
}

.snow-11 {
    fill: #5c5e58;
}

.snow-12 {
    fill: #dd050c;
}

.snow-13 {
    fill: #2d7a5b;
}

.snow-14 {
    fill: #298963;
}

.snow-15 {
    fill: #1a623c;
}

.snow-16 {
    fill: #f57906;
}

.snow-17 {
    fill: #272524;
}

.snow-18 {
    fill: #565553;
}

.snow-19 {
    fill: #f2222d;
}

    
.lady-1 {
    fill: #080505;
}

.lady-2 {
    fill: #764029;
}

.lady-3 {
    fill: #0b0806;
}

.lady-4 {
    fill: #6e3d2a;
}

.lady-5 {
    fill: #221716;
}

.lady-6 {
    fill: #ad5a33;
}

.lady-7 {
    fill: #ae5834;
}

.lady-8 {
    fill: #ae5a35;
}

.lady-9 {
    fill: #a85c33;
}

.lady-10 {
    fill: #7c3e1f;
}

.lady-11 {
    fill: #923f1f;
}

.lady-12 {
    fill: #954c2a;
}

.lady-13 {
    fill: #b66235;
}

.lady-14 {
    fill: #82401e;
}

.lady-15 {
    fill: #854412;
}

.lady-16 {
    fill: #86411c;
}

.lady-17 {
    fill: #994220;
}

.lady-18 {
    fill: #8d4a16;
}

.lady-19 {
    fill: #c57145;
}

.lady-20 {
    fill: #8f4b1b;
}

.lady-21 {
    fill: #924621;
}

.lady-22 {
    fill: #ae5732;
}

.lady-23 {
    fill: #9a461f;
}

.lady-24 {
    fill: #833e18;
}

.lady-25 {
    fill: #cf2a04;
}

.lady-26 {
    fill: #6e0000;
}

.lady-27 {
    fill: #a32508;
}

.lady-28 {
    fill: #e5ddd3;
}

.lady-29 {
    fill: #e6e8ea;
}

    
.mx-1 {
    fill: #050608;
}

.mx-2 {
    fill: #070b11;
}

.mx-3 {
    fill: #09131e;
}

.mx-4 {
    fill: #4d89ad;
}

.mx-5 {
    fill: #5f8ba6;
}

.mx-6 {
    fill: #503d4e;
}

.mx-7 {
    fill: #111f28;
}

.mx-8 {
    fill: #443b4b;
}

.mx-9 {
    fill: #6796b3;
}

.mx-10 {
    fill: #699bb4;
}

.mx-11 {
    fill: #506b77;
}

.mx-12 {
    fill: #4b94bf;
}

.mx-13 {
    fill: #4a7a8c;
}

.mx-14 {
    fill: #4994c1;
}

.mx-15 {
    fill: #66acd6;
}

.mx-16 {
    fill: #4b94c0;
}

.mx-17 {
    fill: #478fb3;
}

.mx-18 {
    fill: #4c91b4;
}

.mx-19 {
    fill: #2f1626;
}

.mx-20 {
    fill: #271b2b;
}

.mx-21 {
    fill: #4c91b8;
}

.mx-22 {
    fill: #40182c;
}

.mx-23 {
    fill: #db494f;
}

.mx-24 {
    fill: #ce2026;
}

.mx-25 {
    fill: #f6908e;
}

.mx-26 {
    fill: #df95a0;
}

.mx-27 {
    fill: #fa8b9b;
}

.mx-28 {
    fill: #49485c;
}

.mx-29 {
    fill: #cb3a42;
}

.mx-30 {
    fill: #82505e;
}

.mx-31 {
    fill: #5796bc;
}

.mx-32 {
    fill: #2f1e2a;
}

.mx-33 {
    fill: #091629;
}

.mx-34 {
    fill: #5696ca;
}

.mx-35 {
    fill: #34283d;
}

.mx-36 {
    fill: #283533;
}

.mx-37 {
    fill: #4d92bd;
}

.mx-38 {
    fill: #79b7da;
}

.mx-39 {
    fill: #2e101f;
}

.mx-40 {
    fill: #373a45;
}

.mx-41 {
    fill: #6a9cc0;
}

.mx-42 {
    fill: #55a7d7;
}

.mx-43 {
    fill: #4d9dcf;
}

.mx-44 {
    fill: #ad242b;
}

.mx-45 {
    fill: #e77c87;
}

.mx-46 {
    fill: #4d1b2c;
}

.mx-47 {
    fill: #3d152a;
}

.mx-48 {
    fill: #3f1929;
}

.mx-49 {
    fill: #c30f0c;
}

.mx-50 {
    fill: #060d21;
}

.mx-51 {
    fill: #d73c40;
}

.mx-52 {
    fill: #781e28;
}

.mx-53 {
    fill: #d71118;
}

.mx-54 {
    fill: #fe9c9e;
}

.mx-55 {
    fill: #220f1d;
}

.mx-56 {
    fill: #801720;
}

.mx-57 {
    fill: #c55667;
}

.mx-58 {
    fill: #e20915;
}

.mx-59 {
    fill: #ef96a5;
}

.mx-60 {
    fill: #f7a79d;
}

.mx-61 {
    fill: #3d160c;
}

.mx-62 {
    fill: #691d16;
}

.mx-63 {
    fill: #d80c12;
}

.mx-64 {
    fill: #d4313a;
}

.mx-65 {
    fill: #4e1323;
}

.mx-66 {
    fill: #360302;
}

.mx-67 {
    fill: #840e0e;
}

.mx-68 {
    fill: #bd1825;
}

.mx-69 {
    fill: #a91226;
}

.mx-70 {
    fill: #f6878a;
}

.mx-71 {
    fill: #febabd;
}

.mx-72 {
    fill: #feafa2;
}

.mx-73 {
    fill: #f294a0;
}

.mx-74 {
    fill: #f9aeab;
}

.mx-75 {
    fill: #fea8ac;
}

.mx-76 {
    fill: #de4254;
}

.mx-77 {
    fill: #dd3c47;
}

.mx-78 {
    fill: #f38b91;
}

.mx-79 {
    fill: #f79a97;
}

.mx-80 {
    fill: #febcc0;
}

.mx-81 {
    fill: #fca3a4;
}

.mx-82 {
    fill: #d9515e;
}

.mx-83 {
    fill: #fac3b1;
}

.mx-84 {
    fill: #f78d8d;
}

.mx-85 {
    fill: #df0814;
}

.mx-86 {
    fill: #fe8a96;
}

.mx-87 {
    fill: #c53e41;
}

.mx-88 {
    fill: #e34d53;
}

.mx-89 {
    fill: #e84a55;
}

.mx-90 {
    fill: #df5454;
}

.mx-91 {
    fill: #fa7671;
}

.mx-92 {
    fill: #fb7a80;
}

.mx-93 {
    fill: #420e1b;
}

.mx-94 {
    fill: #fe8b97;
}

.mx-95 {
    fill: #fea0a5;
}

.mx-96 {
    fill: #ed9892;
}

.mx-97 {
    fill: #531e14;
}

.mx-98 {
    fill: #f0545f;
}

.mx-99 {
    fill: #501e08;
}

.mx-100 {
    fill: #ae292e;
}

.mx-101 {
    fill: #f09ba0;
}

.mx-102 {
    fill: #dc050d;
}

.mx-103 {
    fill: #451202;
}

.mx-104 {
    fill: #a42129;
}

.mx-105 {
    fill: #590400;
}

.mx-106 {
    fill: #f8747d;
}

.mx-107 {
    fill: #fec3c3;
}

.mx-108 {
    fill: #febbb6;
}

.mx-109 {
    fill: #feb4bc;
}

.mx-110 {
    fill: #f69593;
}

.mx-111 {
    fill: #db161f;
}

.mx-112 {
    fill: #feb3c5;
}

.mx-113 {
    fill: #febbb9;
}

.mx-114 {
    fill: #521104;
}

.mx-115 {
    fill: #c61115;
}

.mx-116 {
    fill: #e13744;
}

.mx-117 {
    fill: #fea6a5;
}

.mx-118 {
    fill: #fe96a2;
}

.mx-119 {
    fill: #de8987;
}

.mx-120 {
    fill: #f98b8e;
}

.mx-121 {
    fill: #fe9ea4;
}

.mx-122 {
    fill: #fe8a8f;
}

.mx-123 {
    fill: #feafa0;
}

.mx-124 {
    fill: #9a494f;
}

.mx-125 {
    fill: #fba0a2;
}

.mx-126 {
    fill: #fec3c7;
}

.mx-127 {
    fill: #e28b8f;
}

.mx-128 {
    fill: #bb5c65;
}

.mx-129 {
    fill: #fa869a;
}

.mx-130 {
    fill: #fea9b9;
}

.mx-131 {
    fill: #501608;
}

.mx-132 {
    fill: #3d0d04;
}

.mx-133 {
    fill: #4c1103;
}

.mx-134 {
    fill: #dc8085;
}

.mx-135 {
    fill: #161315;
}

.mx-136 {
    fill: #1c1816;
}

.mx-137 {
    fill: #311a15;
}

.mx-138 {
    fill: #3b220a;
}

.mx-139 {
    fill: #351717;
}

.mx-140 {
    fill: #bfc1c6;
}

.mx-141 {
    fill: #b7c1c4;
}
              
    
.happy-1 {
    fill: #babab6;
}

.happy-2 {
    fill: #edecea;
}

.happy-3 {
    fill: #ac2b29;
}

.happy-4 {
    fill: #522808;
}

.happy-5 {
    fill: #cbc7c2;
}
              
    
.sad-1 {
    opacity: 0.4;
}

.sad-2 {
    fill: #7994b3;
}

.sad-3 {
    fill: #c6c6c0;
}

.sad-4 {
    fill: #c0bec0;
}
              
    
.angry-1 {
    fill: #e7e8e5;
}

.angry-2 {
    fill: #e4e7e6;
}

.angry-3 {
    fill: #bfc4bf;
}

.angry-4 {
    fill: #e1ece3;
}
              
    
.smug-1 {
    fill: #c6cec7;
}

.smug-2 {
    fill: #ccd0cc;
}

.smug-3 {
    fill: #100b07;
}

.smug-4 {
    fill: #e5e3e3;
}
              
    
.wink-1 {
    fill: #d5d7d8;
}
              
    
.chad-1 {
    fill: #77442c;
}

.chad-2 {
    fill: #7a422b;
}

.chad-3 {
    fill: #7c4824;
}

.chad-4 {
    fill: #88491f;
}

.chad-5 {
    fill: #b05a33;
}

.chad-6 {
    fill: #824225;
}

.chad-7 {
    fill: #804629;
}

.chad-8 {
    fill: #c57249;
}

.chad-9 {
    fill: #8f4a29;
}

.chad-10 {
    fill: #8e4f18;
}

.chad-11 {
    fill: #aa5933;
}

.chad-12 {
    fill: #954c2f;
}

.chad-13 {
    fill: #884224;
}

.chad-14 {
    fill: #aa5938;
}

.chad-15 {
    fill: #c37147;
}

.chad-16 {
    fill: #994a24;
}

.chad-17 {
    fill: #cfcfc4;
}

.chad-18 {
    fill: #a3998d;
}

.chad-19 {
    fill: #c5bcb7;
}
  
            
          </style>
      </defs>
      
  <path class="jeans-back"
  d="M229.21,519.06c-.23,2.94,2.56,1,3.26,2.44-2.35.41-4.7,0-7.05,0s-2.65-1.48-2.55-3.54c.4-8.94.29-18,1.26-26.81,1.09-10.1.77-20.22,1.36-30.31,1.56-26.6,1.16-53.3,2.88-79.89.45-7,.76-13.94.79-20.93,0-2.26.41-3.61,3-2.91a3.43,3.43,0,0,0,3.63-.61l12.18.47q9.17,0,18.33,0l13.24.13c4.19.89,8.42.16,12.63.4,1.43.09,2.88-.37,4.28.24-.5,1.92-2,1.14-3,1.1-17.36-.67-34.72-.56-52.09-.51a34.77,34.77,0,0,0-7.27.67,4,4,0,0,0-3.24,3.75,44.92,44.92,0,0,0,.49,16.47c-1.27.31-1,1.45-1,2.36.12,2,.34,4.07.52,6.1.5,1.4-1.22,2.8,0,4.22l0,1.15c-2.08,1.8-2.06,4.54-1.46,6.69.81,2.89.45,5.77.87,8.62.21,1.41,1.76,2.45.83,4.16-1.08,2-.65,4.07,0,6a5.32,5.32,0,0,1-.36,4.3,33.31,33.31,0,0,0-2.84,9.19c-1.11,6.59-1.14,13.44-1.25,20.19-.16,9-.27,17.91-1.12,26.83-.08.76-.21,1.62.52,2.18a5,5,0,0,0,.47,3,5.84,5.84,0,0,1,0,1.78c-2,5.16-.56,10.69-1.5,16-.13.72-.28,1.85.76,1.88s.79-1.09.81-1.84a3.69,3.69,0,0,0-.15-.87.76.76,0,0,1,.38-1c.64-.26.82.3.86.78a32,32,0,0,1-.28,8.91c-.09.44-.48,1.77-1.21.66-1.36-2.08-1.16,0-1.44.58-.59,1.32-.3,2.75-.34,4.13,0,1.8-.4,4,2.46,2.7C227.77,517.54,228.4,518.68,229.21,519.06Z"
  transform="translate(-183 -126)"  />
  
  <path class="jeans-back"
  d="M362.82,481.91c-2.34-1.47-1.49-4.2-2-6.36-1.07-4.63.39-9.42-.55-14.12-.86-4.3.18-8.83-.31-13-1.16-9.8,1.16-19.71-1.26-29.37-.34-1.37.49-2.57.37-3.8-.46-5,1.07-9.95.57-14.91s.33-9.84-1.55-14.49a24.27,24.27,0,0,0,.51-4.36c.06-1.88-.65-2.51-2.25-2.21l-2-.13c0-.59-.14-1.46.51-1.51,3.36-.26,3-3.18,3.17-5.49.21-2.77,0-5.57.08-8.36.09-2.59-.5-4.51-3.14-5-.53-.1-.69-.56-.74-1.09a1,1,0,0,1,.26-.11c5.51-.69,5.65-.69,5.49,5.23-.44,16.39,2.09,32.64,1.65,49-.6,22.28.75,44.5,1.36,66.74C363,479.73,362.87,480.82,362.82,481.91Z"
  transform="translate(-183 -126)"  />
  
  <path class="jeans-front"
  d="M361.89,521.37c-1,.94-2.28.53-3.4.54q-26.21.18-52.42.25a12.64,12.64,0,0,1-1.61-.2c-.29-.47-.73-.49-1.19-.53-4.38-.35-4.61-.62-4.68-5.43,0-3,0-5.95-.08-8.92.14-1.77.33-3.53.41-5.29.23-5.23.42-10.45.62-15.67l1.18-.09,0,1.81a6.58,6.58,0,0,0-.56,3.48q0,11.85,0,23.68c0,4.06,0,4.06,3.85,4h45.8l12,0Z"
  transform="translate(-183 -126)"  />
  
  <path class="jeans-back"
  d="M361.89,521.37l-.06-2.3a3.21,3.21,0,0,0,1.9-4c-1.16-2.92.24-5.75-.52-8.81-1.16-4.59,0-9.62-1.49-14.49-.65-2.06-1.43-2.45-2.73-2.67-2.23-.35-4.49-.44-6.74-.62-.8-.07-1.71.13-1.82-1.19,1.08,0,2.16.39,3.24,0a1.27,1.27,0,0,0,2.19,0c1.46-.17,3,.55,4.39-.52l2.26-.08c1.76.24,2.09,1.75,2.16,3.25.4,9.22.71,18.44,1.13,27.66.1,2.11-.68,3.15-2.51,3.4l-.06.12A1.13,1.13,0,0,1,361.89,521.37Z"
  transform="translate(-183 -126)"  />
  
  <path class="jeans-back"
  d="M309,357.07c.86,0,1.95.5,2.14-1.1,0-.19.07-.39.11-.58l.88,1.23c3.83,1.06,7.72.43,11.58.42L340.5,357a51.37,51.37,0,0,0,12.2-.44c.17.35.34.7.5,1.06-.72,1.13-1.82.7-2.76.7-10.73,0-21.46-.15-32.19.12-3.56.09-7.15,0-10.72.42-.79.1-1.71.28-1.91-1C306.71,357.29,308,357.91,309,357.07Z"
  transform="translate(-183 -126)"  />
  
  <path class="jeans-back" d="M304.59,357.83a4.48,4.48,0,0,1-6.61,0A17.92,17.92,0,0,1,304.59,357.83Z"
  transform="translate(-183 -126)"  />
  
  <path class="jeans-back" d="M362,485.1c-.23-.83,0-1.37.83-1.46C363.07,484.49,362.8,485,362,485.1Z"
  transform="translate(-183 -126)"  />
  <polygon class="jeans-front" points="140.37 165.67 140.44 165.56 140.49 165.73 140.37 165.67"  />
  
  <path class="jeans-dark"
  d="M354.32,379.18l2.05.13c-.25,2.57.06,5.34-2.15,7.21-3.32.69-6.61,1.66-10,1.2a48,48,0,0,0-8.31,0c-9.47.4-18.94-.42-28.43,0-4.85.21-4.93.1-5,5.44,0,.39,0,.79.06,1.19,0,3.2,0,6.41,0,9.61q-.07,9.88-.13,19.77c-.34-.14-.82,1.83-1.05-.11a10.28,10.28,0,0,0-.5-1.67,46.41,46.41,0,0,0,.49-4.68c.06-5.84,0-11.68,0-17.51l0-4.22a2.91,2.91,0,0,0,0-.59v-1.2c.08-5.55-.22-5.93-4.65-6h-.54l-8.23.07-.15,9.53q0,12.89-.05,25.78c-.88,1.75-.36,3.65-.52,5.48l-.65,0c-.11-1.62.58-3.33-.44-4.85,1-8.77.3-17.57.41-26.35v-3a10.57,10.57,0,0,0-.28-3.54c-.7-3.5-1.28-4.18-4.46-3.58s-6.24.32-9.35.44c-6,.23-12.1-.08-18.15-.09-4,0-8,.52-11.87,0-2.81-.35-6.24.85-8.36-2.73a20.58,20.58,0,0,1-1.93-5.5l55.63,0c.34.61.71.62,1.1.05h1.08c.55.71,1.1.71,1.64,0l7.63,0c1.82.53,2.44,1.79,2.26,3.85a8.54,8.54,0,0,0,.25,4.11l.73,0v-8Z"
  transform="translate(-183 -126)"  />
  
  <path class="jeans-front"
  d="M358.08,363.82c.09-2.59-.5-4.51-3.14-5-.53-.1-.69-.56-.74-1.09l-1-.15c-.72,1.13-1.82.7-2.76.7-10.73,0-21.46-.15-32.19.12-3.56.09-7.15,0-10.72.42-.79.1-1.71.28-1.91-1h-1a4.48,4.48,0,0,1-6.61,0l-1.58-.05c-.5,1.92-2,1.14-3,1.1-17.36-.67-34.72-.56-52.09-.51a34.77,34.77,0,0,0-7.27.67,4,4,0,0,0-3.24,3.75,44.86,44.86,0,0,0,.49,16.46l.69.11,55.63,0c.4-.64.76-.59,1.1.05h1.08c.54-.82,1.09-.82,1.64,0l7.63,0c1.05-1.22,2.15-.57,3.24-.1l52-.09c0-.59-.14-1.46.51-1.51,3.36-.26,3-3.18,3.17-5.49C358.21,369.41,358,366.61,358.08,363.82Z"
  transform="translate(-183 -126)"  />
  
  <path class="jeans-front"
  d="M302.33,379.27v8l-.73,0a8.54,8.54,0,0,1-.25-4.11c.18-2.06-.44-3.32-2.26-3.85C300.14,378.15,301.24,378.8,302.33,379.27Z"
  transform="translate(-183 -126)"  />
  
  <path class="jeans-front" d="M291.46,379.34c-.54.73-1.09.73-1.64,0C290.36,378.54,290.91,378.54,291.46,379.34Z"
  transform="translate(-183 -126)"  />
  
  <path class="jeans-front" d="M288.74,379.37c-.39.57-.76.56-1.1-.05C288,378.68,288.4,378.73,288.74,379.37Z"
  transform="translate(-183 -126)"  />
  
  <path class="jeans-dark"
  d="M288.86,466.93a119.92,119.92,0,0,1-.19,18c-.59,0-1.2-.13-1.58.56-3.58-.29-7.07,1.4-10.7.6-4.92-1.08-9.88-.47-14.84-.43-2.78,0-5.74,2.05-8.41-.65-.36-.36-1.26-.26-1.86-.1-4.67,1.26-9.34-.2-14,0-2.7.13-5.07-1.35-7.7-1.46-1,0-1.55-.94-1.39-2.15a14.73,14.73,0,0,1,7.31-2.26c6.87-.14,13.59-1.84,20.53-1.53,5.36.24,10.74.65,16.13.65,3.74,0,7.6.73,11.43.68,2.09,0,3.84.08,3.82,3.25,1.28-4,.49-8,.8-11.89C288.31,469.09,287.62,467.77,288.86,466.93Z"
  transform="translate(-183 -126)"  />
  
  <path class="jeans-front"
  d="M289.83,508.94a133,133,0,0,1-.46-15.46c0-2.89-.41-5.72-.7-8.57-.59,0-1.2-.13-1.58.56.19.79.37,1.59.55,2.39h0c-.18-.8-.36-1.6-.55-2.39-3.58-.29-7.07,1.4-10.7.6-4.92-1.08-9.88-.47-14.84-.43-2.78,0-5.74,2.05-8.41-.65-.36-.36-1.26-.26-1.86-.1-4.67,1.26-9.34-.2-14,0-2.7.13-5.07-1.35-7.7-1.46-1,0-1.55-.94-1.39-2.15-.2-.21-.4-.41-.59-.62l-1.6.6a5,5,0,0,0,.47,3,5.84,5.84,0,0,1,0,1.78c-2,5.16-.56,10.69-1.5,16-.13.72-.28,1.85.76,1.88s.79-1.09.81-1.84a3.69,3.69,0,0,0-.15-.87.76.76,0,0,1,.38-1c.64-.26.82.3.86.78a32,32,0,0,1-.28,8.91c-.09.44-.48,1.77-1.21.66-1.36-2.08-1.16,0-1.44.58-.59,1.32-.3,2.75-.34,4.13,0,1.8-.4,4,2.46,2.7,1-.44,1.61.7,2.42,1.08-.23,2.94,2.56,1,3.26,2.44,12,0,23.92.09,35.88,0,6.79-.06,13.58.38,20.36-.36,1-2.36.46-4.85.6-7.28C289.41,512.2,289,510.49,289.83,508.94Z"
  transform="translate(-183 -126)"  />
  
  <path class="jeans-front"
  d="M363.73,515.08c-1.16-2.92.24-5.75-.52-8.81-1.16-4.59,0-9.62-1.49-14.49-.65-2.06-1.43-2.45-2.73-2.67-2.23-.35-4.49-.44-6.74-.62-.8-.07-1.71.13-1.82-1.19-3.9,0-7.8,0-11.69,0-5.56,0-11.11.14-16.67.51-5.33.35-10.69.17-16,0-1.77-.05-3.53-.85-5.29,0a6.58,6.58,0,0,0-.56,3.48q0,11.85,0,23.68c0,4.06,0,4.06,3.84,4h45.81l12,0A3.21,3.21,0,0,0,363.73,515.08Z"
  transform="translate(-183 -126)"  />
  
  <path class="jeans-dark"
  d="M298.79,462.12c0-8.65-.23-17.31.18-26l.77.78c.11,13.39-.64,26.78.43,40.15a2.51,2.51,0,0,0,.23,3c.83,1,1.27-.51,1.93-.8,1.67-.75,3.37-1.92,5.16-1.57,3.49.69,7.11-.79,10.51.91a.58.58,0,0,0,.53,0c3.48-3.11,7.31-.44,10.93-.56a83,83,0,0,1,15.25.6c2.22.33,4.62-.74,7.1-.55,1.87.15,3.28,1.66,5.12,1.37,1,3.82.74,4.15-2.78,4.19-5.94.07-11.87.21-17.81.48-6.91.31-13.85-.28-20.78-.46-4.31-.12-8.61,1.14-12.94,0-1.65-.43-2,.81-1.9,2.32l-1.18.09c-.25-.82-.51-1.64-.77-2.45a.67.67,0,0,0-.06-1c0-1.11,0-2.22,0-3.32a6.19,6.19,0,0,0,0-4.5q0-6.09,0-12.18c.07,0,.2-.11.19-.12A2.87,2.87,0,0,0,298.79,462.12Z"
  transform="translate(-183 -126)"  />
  
  <path class="jeans-front"
  d="M354.22,386.52c-3.64,4.08-7.81,6.43-13.18,4.89a4,4,0,0,0-1.62-.09c-4.76.67-9.6-.05-14.24-.5-3.19-.31-5.86.77-8.77.89a3,3,0,0,1-1.58-.14c-3.17-1.6-6.41.19-9.6-.26-2.13-.3-1.18,2.76-2.78,3,0-.4-.06-.8-.05-1.19.11-5.34.19-5.23,5-5.44,9.49-.42,19,.4,28.43,0a48,48,0,0,1,8.31,0C347.61,388.18,350.9,387.21,354.22,386.52Z"
  transform="translate(-183 -126)"  />
  
  <path class="jeans-front" d="M287.1,428.58c-.08.44-.13,1-.7.81-.42-.16-.25-.57.05-.84Z"
  transform="translate(-183 -126)"  />
  
  <path class="jeans-front" d="M301.25,395.5a3.3,3.3,0,0,1-.19-.43s.13-.1.19-.16A2.91,2.91,0,0,1,301.25,395.5Z"
  transform="translate(-183 -126)"  />
  
  <path class="jeans-dark"
  d="M298.72,435.41a.27.27,0,0,1-.28-.31c-.71-1.22-.07-2.42.07-3.62.61-.34,1.33-.53,1.62-1.33.19-.56.4-1.12,1.07-.92s.57,1,.68,1.66C302.48,433.79,300.37,434.4,298.72,435.41Z"
  transform="translate(-183 -126)"  />
  
  <path class="jeans-front"
  d="M362.82,483.64v-1.73c-2.34-1.47-1.49-4.2-2-6.36-1.07-4.63.39-9.42-.55-14.12-.86-4.3.18-8.83-.31-13-1.16-9.8,1.16-19.71-1.26-29.37-.34-1.37.49-2.57.37-3.8-.46-5,1.07-9.95.57-14.91s.33-9.84-1.55-14.49a5,5,0,0,0-2.11,2.94,5,5,0,0,1,2.11-2.94,24.27,24.27,0,0,0,.51-4.36c.06-1.88-.65-2.51-2.24-2.21-.25,2.57.06,5.34-2.15,7.21-3.64,4.08-7.81,6.43-13.18,4.89a4,4,0,0,0-1.62-.09c-4.76.67-9.6-.05-14.24-.5-3.19-.31-5.86.77-8.77.89a3,3,0,0,1-1.58-.14c-3.17-1.6-6.41.19-9.6-.26-2.13-.3-1.18,2.76-2.78,3v9.61l-.13,19.77h0c-.34-.13-.82,1.83-1.05-.11a10.28,10.28,0,0,0-.5-1.67,46.41,46.41,0,0,0,.49-4.68c.06-5.84,0-11.68,0-17.51,0-1.41,0-2.82,0-4.22a3.3,3.3,0,0,1-.19-.43s.13-.1.19-.16c0-.4,0-.8,0-1.2.08-5.55-.22-5.93-4.65-6h-.54l-8.23.07-.15,9.53q0,12.89-.05,25.78c-.88,1.75-.36,3.65-.52,5.48-.08.44-.13,1-.7.82-.42-.17-.25-.58.05-.85-.11-1.62.58-3.33-.44-4.85a2.11,2.11,0,0,1-.54.07,2.11,2.11,0,0,0,.54-.07c1-8.77.3-17.57.41-26.35,0-1,0-2,0-3a10.57,10.57,0,0,0-.28-3.54c-.7-3.5-1.28-4.18-4.46-3.58s-6.24.32-9.35.44c-6,.23-12.1-.08-18.15-.09-4,0-8,.52-11.87,0-2.81-.35-6.24.85-8.36-2.73a20.58,20.58,0,0,1-1.93-5.5l-.69-.1c-1.27.31-1,1.45-1,2.36.12,2,.34,4.07.52,6.1h0c.5,1.4-1.22,2.8,0,4.22,0,.38,0,.77,0,1.15-2.08,1.8-2.06,4.54-1.46,6.69.81,2.89.45,5.77.87,8.62.21,1.41,1.76,2.45.83,4.16-1.08,2-.65,4.07,0,6a5.32,5.32,0,0,1-.36,4.3,33.31,33.31,0,0,0-2.84,9.19c-1.11,6.59-1.14,13.44-1.25,20.19-.16,9-.27,17.91-1.12,26.83-.08.76-.21,1.62.52,2.18l1.6-.6q.27-.54.51-1.08-.24.54-.51,1.08c.19.21.39.41.59.62a14.73,14.73,0,0,1,7.31-2.26c6.87-.14,13.59-1.84,20.53-1.53,5.36.24,10.74.65,16.13.65,3.74,0,7.6.73,11.43.68,2.09,0,3.84.08,3.82,3.25,1.28-4,.49-8,.8-11.89.09-1.1-.6-2.42.64-3.26.56-5.55.2-11.12.28-16.68.07-4.38,0-8.76.09-13.14,0-.9-.4-2.58,1.21-2.41,2.67.28,5.36-.28,8,.4-.71-1.22-.07-2.42.07-3.62.61-.34,1.33-.53,1.62-1.33.19-.56.4-1.12,1.07-.92s.57,1,.68,1.66h0c.6,2.9-1.51,3.51-3.16,4.52l.25.74.77.78h0c.11,13.39-.64,26.78.43,40.15a2.51,2.51,0,0,0,.23,3c.83,1,1.27-.51,1.93-.8,1.67-.75,3.37-1.92,5.16-1.57,3.49.69,7.11-.79,10.51.91a.58.58,0,0,0,.53,0c3.48-3.11,7.31-.44,10.93-.56a83,83,0,0,1,15.25.6c2.22.33,4.62-.74,7.1-.55,1.87.15,3.28,1.66,5.12,1.37h0c1,3.82.74,4.15-2.78,4.19-5.94.07-11.87.21-17.81.48-6.91.31-13.85-.28-20.78-.46-4.31-.12-8.61,1.14-12.94,0-1.65-.43-2,.81-1.9,2.32l0,1.81c1.76-.89,3.52-.09,5.29,0,5.34.15,10.7.33,16,0,5.56-.37,11.11-.5,16.67-.51,3.89,0,7.79,0,11.69,0,1.08,0,2.16.39,3.24,0a1.27,1.27,0,0,0,2.19,0c1.46-.17,3,.55,4.39-.52l2.26-.08a1.27,1.27,0,0,0-.52-1.53C361.76,484.27,362,483.73,362.82,483.64Zm-74.64-86.33Zm-1,35.78a3,3,0,0,1-1.15-2.26h0c1.18-.24,1.9.75,2.8,1.25C288.73,433.39,288.57,434.49,287.14,433.09Z"
  transform="translate(-183 -126)"  />
  
  <path class="jeans-dark"
  d="M288.79,432.08c-.06,1.31-.22,2.41-1.65,1a3,3,0,0,1-1.15-2.26C287.17,430.59,287.89,431.58,288.79,432.08Z"
  transform="translate(-183 -126)"  />
   />
  <path class="jeans-front" d="M298.74,474.82a6.19,6.19,0,0,1,0,4.5A10.35,10.35,0,0,1,298.74,474.82Z"
  transform="translate(-183 -126)"  />
  
  <path class="jeans-front" d="M298.71,482.64a.67.67,0,0,1,.06,1A.7.7,0,0,1,298.71,482.64Z"
  transform="translate(-183 -126)"  />
  
  <path class="jeans-back" d="M298.79,462.12a2.87,2.87,0,0,1,.18.4s-.12.08-.19.12l-.13-.27Z"
  transform="translate(-183 -126)"  />
      
<path class="hand"
d="M237.44,455.9c-2.86-1.55-5.8-3.13-9-3.56a28.19,28.19,0,0,0-4.11-.13c-2.47,0-4.9.18-7.37.14-1.36,0-1.44-.24-2.23.5-.24.21-.39.78-.67,1.06a5.88,5.88,0,0,1-1.08.66,30.07,30.07,0,0,0-7.5,6.68,23.42,23.42,0,0,0-4.39,19.82A6.21,6.21,0,0,0,204,487l0,0c1.87.18,2.72-.38,3.1-2.52.87-4.89.72-9.78.8-14.68,2.08-5.56,5.92-9.18,11.94-9.55,5.59-.35,10,2.15,12.68,7.21a7.62,7.62,0,0,0,1.28,3.74l.15,1.64c-.22.72.14,1.62-.69,2.12-1.07.76-.69,1.91-.79,2.93-2.78,3.91-3.27,8.47-3.67,13-.17,2,.58,3.51,2.79,2.14,7.59-4.68,11.26-13.82,10.36-21.93-.53-4.75-3.3-8.44-5.06-12.61a1.45,1.45,0,0,1-1.18.27,2.15,2.15,0,0,0,.55-.27"
transform="translate(-195.96 -230)"/>
<path class="torso"
d="M379.43,452.3l.12.64.07.35L402,450.13a6.31,6.31,0,0,1,1.31-3.26,9.72,9.72,0,0,1,1.67-1.66,2.33,2.33,0,0,0,.61-2.44c-2.33-11.35-3.67-23-7.24-33.95-5-15.43-14.72-28.7-23.08-42.52a10.37,10.37,0,0,0-9.1-5,23.47,23.47,0,0,0-8.84-.09c-1.3-1-1.4-2.52-1.82-3.88-.65-2.13-1.89-3.36-4.21-3.27l-.88-.86c-1-1-2.34-.56-3.52-.57-5.9-.07-11.79-.07-17.69-.09-.14-.23-.28-.46-.43-.69q0-20.49,0-41c0-1.31.45-2.75-.61-3.92-.27-1-.22-2.15-1.86-2.29-3.43-.28-6.81-1.14-10.29-.71h0c-1-1.07-2.34-.57-3.54-.66-6.49-.5-12.92.69-19.39.7-4.73,0-5.31.7-5.29,5.53,0,13.45,0,26.9.26,40.34,0,2.23-.45,2.93-2.56,2.89-5.73-.1-11.47,0-17.2-.21-4.38-.17-6.44.93-7.68,5.2-.62,2.11-1.71,2.66-3.8,2.52a19.14,19.14,0,0,0-10.47,2.22,22.48,22.48,0,0,0-5.58,6.54c-.58,1-1.17,1.84-2.42,1.91-2.43,4.71-4.93,9.38-7.27,14.13-3.56,7.21-8.39,13.76-11,21.45-3.88,11.4-5.17,23.43-8.54,34.95-.51,1.75-.44,3.65.91,4.92a7.6,7.6,0,0,1,2.06,4.8,5.85,5.85,0,0,1-.09.83,12.62,12.62,0,0,0,2.93-.25,20.06,20.06,0,0,1,3.1.06,44.59,44.59,0,0,0,5.17,0,10.2,10.2,0,0,1,3.17.12c.69.18,1.33.51,2,.73.47.14,1,.23,1.43.35a19.75,19.75,0,0,1,5.05,2.22l.09-.76a3.81,3.81,0,0,1-.19-1l4.54-2,.45-.94.15.25q5.51-31.77,11-63.52a15.14,15.14,0,0,0,1.26-5.49c0-1.71,1.12-5.18,1.89-4.66l-13.29,73.72-.6,1.43a1.73,1.73,0,0,1,.28,2.34l.22.11.24-.07-.45,5.44c1.32.77,2.56,1.85,4.28,1.17,2.14,1.67,4.59.61,6.85.62,15.68.06,31.35,0,47,0v.06h15.17c.59.13,1.29.06,1.52.85a1.79,1.79,0,0,1,2.78.2h.87c3.22-1.26,6.49-.73,9.76-.26.71-.29,1.36-.88,2.22-.47,2.75-.19,5.51-.43,8.12.78,1.34-1.15,2.94-1,4.54-1,5.14,0,10.28-.05,15.42-.08H364l3,.25c.78,1,1.9.47,2.87.64l1.63-.57c0-.26,0-.52,0-.78,1,.48,1.2-.15,1.38-.95a15,15,0,0,0-.08-5.79c0-1.47.59-3.28-.06-4.35-2.31-3.84-.56-8.29-2.23-12.14.34-7.16-1.91-13.93-3.3-20.8-2.91-14.46-6-28.88-8.31-43.46q.87,1.28,1.8,2.55c2.16,13.72,5,27.3,7.63,40.91,1.33,6.87,3.51,13.64,3.17,20.8,2.58,3.56,1.95,8.07,3.27,12l.37-.59c1,1.35,2.49,1.7,4.09,1.91C379.32,451.73,379.37,452,379.43,452.3Z"
transform="translate(-195.96 -230)"/>
<path class="hand"
d="M416.54,467.53c-2.12-4.82-4.86-9.49-10.64-11a3.57,3.57,0,0,0-2.33-1.39,12.48,12.48,0,0,1-1-4.89l-22.29,3.16c.06.29.1.52.1.52.06.31.37,1.92.53,2.72a7.84,7.84,0,0,1,.76,2.17,17.26,17.26,0,0,1,.17,2.29h-.53l-4.62,10.77c-.06,1.89-.12,3.77-.17,5.65s-.06,3.88.14,5.78a6.7,6.7,0,0,0,5.46,6c2.88.6,5.49-.65,3.93-2.9.42-2-.7-3.91-.38-5.87a5.3,5.3,0,0,1-.23-.67c0-.51,0-1,.08-1.54a2.28,2.28,0,0,0-.69,0,22.47,22.47,0,0,1,.11-6.65c.67-1.51,1.35-3,2-4.55,1.53-2,3.91-2.91,5.76-4.5a51.77,51.77,0,0,1,6.31-.45c7,.37,12.78,8,11.25,16.12-1,2.81.3,8.92,2.27,10.59.76-2.13,3-3,3.94-5.21A19.5,19.5,0,0,0,416.54,467.53Zm-38.21,13.19c0-.14.05-.27.08-.41.06.24.12.49.19.73Zm5.83-8.92h0l.17.11ZM405,457.12h0c.08-.12.17-.23.26-.35Z"
  transform="translate(-195.96 -230)"/>
      
  <path 
  class="head" 
  d="M310.62,362.36s4-.12,5.95.64a13.58,13.58,0,0,1,4,2.55,3.13,3.13,0,0,1,.94,2.51,41,41,0,0,1-.17,5.86c-.24,1.64.06,1.83,1.75,2.12a28.67,28.67,0,0,1,14.76,6.73,18.38,18.38,0,0,1,6,14.17c.06,12.47.21,24.95-.12,37.41-.2,7.61-3.65,12.67-11,15.8a14,14,0,0,1-3.4,1.14.89.89,0,0,0-.83,1.07c.05,2.24.06,4.47.05,6.71a.83.83,0,0,0,.69.92c.51.18,1.23.38,1.21,1.14s-.77.86-1.29,1.07c-1.9.77-4,.75-6,1-2.24.3-4.47.67-6.72.87-1.54.13-3.09.12-4.64.31-2.41.28-4.86.13-7.28.32-3.14.24-6.28-.06-9.41-.07a93.09,93.09,0,0,1-10.93-.78c-2.72-.34-5.47-.51-8.19-.89a8.52,8.52,0,0,1-3.43-1.19c-.82-.51-.78-1.17.13-1.36,2-.4,2.3-1.65,2.16-3.39a45.47,45.47,0,0,1,0-4.67c0-.69-.12-1-.91-1.22-4.78-1.27-8.93-3.54-11.7-7.85a15.75,15.75,0,0,1-2.75-8.64c0-6-.09-12,.11-18,.22-6.64.07-13.27.13-19.9a20.61,20.61,0,0,1,3.78-12,19.06,19.06,0,0,1,8.89-6.58,40.41,40.41,0,0,1,9.26-2.68c.89-.13.8-.81.82-1.35.07-1.72.14-3.44.05-5.15a5,5,0,0,1,2.89-5.19c1.51-.77,3-1.75,4.75-1.76C289.85,362.46,310.62,362.36,310.62,362.36Z" 
  transform="translate(-190 -340)"/>
      
<path class="lady-1"
                d="M2.64,79.9,3.7,78.68A2.1,2.1,0,0,0,4.31,77c-1.38-9.12,3.33-14.88,10.6-19.23L16,56.4c1.15-2.62.72-5.26.07-7.9v.19c1.14-2.93.59-6,.68-9,.24-8.39,5.48-14,10.32-19.92l1.22-1.23c1.17-1.46,2-3.37,4.27-3.45H33l.17-.43c4.91-4.64,9-10.35,16.29-11.75L49.33,3c4.9-3.48,11.18-3.47,15.78-2C73,3.39,80.1,1.31,87.39.36c5.33-.69,10-.61,14.54,2.31l-.08,0c9.58,2.55,14.9,10.31,20.93,17.18l0,0a35.52,35.52,0,0,1,10.5,21.94c.14,1.41-.15,2.86.52,4.2l-.22.43.3.37c2.19,5.74,2.14,11.8,2.45,17.79.15,2.85,1,5.2,3.38,6.82,4.64,3.18,5.5,7.94,4.87,12.91a16.17,16.17,0,0,0,.86,8.29c3.35,8.63-.26,17-1.76,25.2-1.07,5.85-1.85,12.13-5.84,17.13-1.1.87-2.23,1.7-3.3,2.61-1.87,1.57-4,3.45-6.37,1.55s.09-3.94.66-5.9c3.88-6.76,4.36-14.55,6.31-21.86.68-2.54.13-5.58,1.48-8.2a3.86,3.86,0,0,0,.4-2.39c-1.25-6.57-3.87-13-.88-19.84.35-.79-.45-2.09-1.34-2.6-6.88-3.85-6.51-10.88-7.28-17.19-.52-4.23-.83-8.49-1.36-12.73-1.89-15.14-9.82-26.46-21.9-35.2a20.55,20.55,0,0,0-18.63-3A35.59,35.59,0,0,1,65.09,10a17.55,17.55,0,0,0-15.24,2.15C39.56,18.93,29.59,26,25.61,38.61c-1.12,3.56-2.06,7.08-1.65,10.78.91,8.35-2.24,14.72-9.06,19.43-.65.47-1.77.85-1.85,1.5C12.25,77,8.16,82.89,8.5,89.81c.72,1.5,1.52,3,2.28,4.46s1.42,3.08,1.09,4.85a5.39,5.39,0,0,1-1.2,2.15c-.71.78-1.5,1.5-2.17,2.31-.9,1.41-.66,2.94-.43,4.45a12.11,12.11,0,0,0,1.17,2.69c.32.39.61.79.92,1.18a8.19,8.19,0,0,1,2,3.37c-.34,5.88-2.81,11.88,1.08,17.49a11.63,11.63,0,0,0,3,2.82c4,3.61,3.86,4.45-.89,6.75a4.09,4.09,0,0,1-1.74-.52,61.34,61.34,0,0,1-6.82-7.32,5.85,5.85,0,0,1-.66-1.76,25.3,25.3,0,0,1-.58-10.18c.32-2,.69-4.27-.21-6-3.07-5.83-4.2-11.4-1.46-17.91C5.23,95.4.78,92.76.16,89.35-.19,85.89-.22,82.51,2.64,79.9Z" transform="translate(36 0)" />
            <path class="lady-2"
                d="M13.71,67.71c6.37-4.41,9.71-10.07,8.67-18.2-1-7.64,1.91-14.53,6.07-20.75C34.38,19.89,43,14,52.14,8.89,56.25,6.62,61,6.72,65.26,8.23a30.33,30.33,0,0,0,19.82.24c7.31-2.31,14.24-1.3,20.35,3.27,12.23,9.14,20.74,20.65,22.32,36.4.72,7.09,1.82,14.13,2.51,21.21.27,2.73,1.34,4.87,3.61,6,5.79,2.9,5.17,7.45,2.83,11.87-1.39,2.65-1.57,4.39.54,6.45a7.1,7.1,0,0,1,1.61,7.47c-2.54,7.28-1.77,15.25-5.13,22.36-1.54,3.27.28,7.77-3.52,10.36-5.79,4.7-9.66,5.34-13.9.89-4.73-5-9.36-10.16-12.52-16.39.79-3.22,2.9-1.9,4.59-1.17a51.81,51.81,0,0,1,6.14,3.49,8.27,8.27,0,0,1,1.89,1.89,22.64,22.64,0,0,1,1.75,3.21c1.06,2.09,1.34,5.07,4.7,4.77s5.09-2.31,5.76-5.45a17.62,17.62,0,0,1,.67-2.36c1.49-2.21,1.77-4.75,2-7.31a34.19,34.19,0,0,0,.83-5.14c.16-1.76.06-3.56.74-5.25a6.21,6.21,0,0,1,.91-1.47c1.86-1.55,2.72-3.31,1.13-5.57a21.56,21.56,0,0,1-2.35-4.39,12.23,12.23,0,0,1-.94-5,7.49,7.49,0,0,1,2-3.59,2.72,2.72,0,0,0,.19-3.66c-1.19-2-3.58-2.56-5-4.26-3.29-5.11-4.31-10.75-4-16.71.31-4.18-1-8.1-1.88-12.1C120.75,35.15,114,24.79,103.32,17a19.17,19.17,0,0,0-17.44-3c-7.1,2-14.31,3-21.56-.21-3.67-1.6-7.62-1.05-11.24,1-7.36,4.1-14.18,8.84-19.48,15.51-2.17,2.59-3.07,5.82-4.37,8.84-1.74,2.7-1.95,5.75-1.66,8.78.83,8.84-1.23,16.43-8.77,21.91a9.21,9.21,0,0,0-2.16,2.9c-1.87,2.66.22,5.61-.58,8.35-.47,2.4-2,4.14-3.58,5.88C11.52,88,11,89.41,9.56,90,7.05,89.66,7.61,87.41,7,85.88c2.57-3.61,4.44-7.36,3.52-12C10,71.1,12.25,69.56,13.71,67.71Z" transform="translate(36 0)" />
            <path class="lady-3"
                d="M104.42,118c3.8,4.71,7.91,9.13,11.29,14.21,3.92,5.88,9.26,4.43,14.49,1.71.73,1.83-3.23,2.83-1.18,4.41,1.73,1.32,3-1,4.37-2,1.08-.81,2.25-1.49,3.38-2.24a12,12,0,0,1-10.24,7.33c-2.47-1.67-4.94-2.18-7.4,0-5.33-.54-8-4.33-10.19-8.54-2.25-4.42-5.15-6.27-10.52-6.07-14.23.52-28.49.2-42.74.15-2.22,0-5,.42-6.56-.7-5.09-3.76-7.19-.12-9.56,3.18-2.71,3.79-5.29,7.66-7.94,11.49-5.71,3-11.48,4-17.39.54,1.44-.21,3.14-.37,3.56-1.94.62-2.34-2.5-1.61-3-3.16,1.44-1.57,3.28-1.53,5.07-1,4.74,1.33,7.73-.84,10.12-4.62,2.7-4.27,5.1-8.82,9.32-11.88,3.68-2.66,7.49-5.11,12.14-1.89,1.47,2.31,3.64,3,6.27,2.94,13.59-.14,27.18.27,40.76-.23a8.83,8.83,0,0,0,2.52-1.24C102.06,117.84,103.16,117.21,104.42,118Z" transform="translate(36 0)" />
            <path class="lady-4"
                d="M50.18,117c-8.59-.8-12.77,5.13-16.64,11.2-3,4.67-5.33,9.94-12.21,9.29-2.21-.21-4.38-.78-6.57-1.18l-2.51-2.45A20.21,20.21,0,0,1,11.18,119c2.08-3.43,1-5.76-2.52-7.27v0c-1.72-3.89-1.93-7.62,1.14-11l1.26-1.28c1.5-2.08-.34-3.28-1.25-4.73L7.23,91A5.48,5.48,0,0,1,7.39,86l2.44,3.68c6.79,3.49,7.9,6.5,4.42,12.81-1.35,2.43-1.72,4.57.34,6.64,3.09,3.1,3.09,6.68,2.42,10.74-.72,4.31-1.82,9,2.23,12.52,4.22,2.17,7,.44,9-3.34,1.53-2.87,3.12-5.69,4.38-8.71,3.9-9.38,4-9.35,14.26-8.81a5.17,5.17,0,0,1,3.2,1.88C50.69,114.62,51.28,115.79,50.18,117Z" transform="translate(36 0)" />
            <path class="lady-5"
                d="M7.26,134A11.75,11.75,0,0,1,6,131.35c-1.32-7.65,1.25-15.93-3.8-23a3.55,3.55,0,0,1,0-3c2.46-5.43,1.27-10.56-1-15.65,3.76,4,6.8,8,2.82,13.84-.93,1.36-.93,4.59.06,5.86C10.1,117.11,5.79,125.92,7.26,134Z" transform="translate(36 0)" />
            <path class="lady-5"
                d="M7.39,86c0,1.63-.1,3.27-.16,4.91-1.34-4.18,3.25-20.67,6.48-23.24-1.78,3.37-3.36,6.65-2.24,10.75C12.43,82,8.39,83.29,7.39,86Z" transform="translate(36 0)" />
            <path class="lady-3"
                d="M12.29,117.92c-2.13,5.32-1,10.64,0,16C8,129.63,9.56,124.43,10,119.45a42.92,42.92,0,0,1,1.09-5.2C14.05,114.62,12.8,116.4,12.29,117.92Z" transform="translate(36 0)" />
            <path class="lady-3"
                d="M13.53,141.15l-3.39-1.42c-.59-2.1-3-3.3-2.85-5.79C10,135.77,12.8,137.58,13.53,141.15Z" transform="translate(36 0)" />
            <path class="lady-5"
                d="M9.81,100.77a24.5,24.5,0,0,0-1.14,11,2.64,2.64,0,0,1-1.35-2.46,10.16,10.16,0,0,1,.1-7.32Z" transform="translate(36 0)" />
            <path class="lady-5"
                d="M12.29,117.92c-.07-1.33.2-2.78-1.22-3.67a4.09,4.09,0,0,1-2.41-2.5C12.85,112.05,15.11,113.49,12.29,117.92Z" transform="translate(36 0)" />
            <path class="lady-3" d="M7.42,102q-.06,3.66-.1,7.33C5.6,106.86,5.52,104.42,7.42,102Z" transform="translate(36 0)" />
            <path class="lady-5" d="M9.82,94.76c2,1.15,3.64,2.42,1.25,4.73C10.65,97.92,10.24,96.34,9.82,94.76Z" transform="translate(36 0)" />
            <path class="lady-1"
                d="M119.13,141.39c-.74-1.72-.75-3.37,1.48-3.61,2.72-.3,5.26.23,5.92,3.58A7.15,7.15,0,0,1,119.13,141.39Z" transform="translate(36 0)" />
            <path class="lady-6"
                d="M133.88,110.58a7.43,7.43,0,0,1-1.3,4.88c-1,2.42-.19,5.38-2.32,7.43-.25,2,.47,4.17-.79,5.94-1.88,2.65-4.6,3.68-7.86,3.88-3.69.23-3.48-2.63-4.27-4.76-.64-1.7-1.26-3.41-1.89-5.11-3-6.38-1.69-13.09-1.19-19.65.25-3.22,1.38-3.25,7.44-1.39a25.07,25.07,0,0,1-8.09-8.34,10.61,10.61,0,0,1-.88-1.58c-2.57-7.56-6.25-14.74-7.61-22.7a51.23,51.23,0,0,1-1.21-7.83c-.21-7-3.83-11.79-10.12-14.69-1.61-.74-4.09-1-4.06-3.16,0-2.5,2.53-2.83,5-3.48-5.23-.14-9.07,2.38-13.13,4.31-6.36,3-10.28,1.63-13.34-4.6,1-8.28,6.76-10.9,14-11.86A5.23,5.23,0,0,0,87,29.51c15.91-1.15,25.85,7.52,26.34,23.26.1,3.27,1.72.46,2.28,1.14,1.32.92,1.47,3.41,3.42,3.2,5.33-.57,5.57,3,5.58,6.62,0,4.1,1.34,8,1.3,12.15-.05,4,2.21,3,4.37,1.48,2.18.56,4.48,1,5,3.75,1,1.65.1,3.26-.14,4.88l-2.44,2.46c-1.64,1.8-3.83,1.76-6,1.75,2.88.1,5.65.35,7.27,3.21l2.48,3.69c1.45,2.75,0,5-1.24,7.3-.38,0-.76.07-1.15.09A6.47,6.47,0,0,0,133.88,110.58Z" transform="translate(36 0)" />
            <path class="lady-7"
                d="M82.34,28.36C76.93,31,71.22,33.2,68.74,39.42c-2.16,1.75-4.12.94-6-.46-1.78-2.24-1.24-4.54.86-5.83,4.08-2.52,3.9-5.7,2.27-9.4,0-1.53-.89-2-2.3-2.18-9.25-1.34-17.87-.51-24.85,6.64a7.28,7.28,0,0,1-4.21,2.35,3,3,0,0,1-2.41-.95C37.88,21.76,45.82,16.48,54.25,12a12,12,0,0,1,11.25.13c6.15,3.36,12.59,2.39,18.25.48,10.44-3.52,18.7-.2,25.52,6.75C117,27.23,123.83,36,124.11,47.91c1.27,4,.14,8.49,2.36,12.33-.39,6.07,1.26,11.69,3.77,17.12.35,2.08.87,4.15-2.57,3.8-2.41-.25-4.6-.23-3.8-3.77,1.24-5.52-1.65-10.82-1.08-16.35.14-1.37-.21-3.54-2.23-2.37-6.78,3.91-4.58-1.73-5.08-4.55-2.34-2.3-1.73-5.29-1.84-8.08C113,30.27,102.27,22.87,87.47,28,85.8,28.58,84.17,29.82,82.34,28.36Z" transform="translate(36 0)" />
            <path class="lady-8"
                d="M14.73,72.47c.7-1.23,1.09-3,2.15-3.62,9.36-5.48,9.44-14.34,8.91-23.5-.16-2.71.24-5.29,2.46-7.22a3.4,3.4,0,0,1,1.19,2.48,7.54,7.54,0,0,1-.13,1.84c-.91,3.19-.44,6.46-.55,9.68,1.23,3-2.88,7.28,2.29,9.32a3.51,3.51,0,0,1,.76,2.31c.55.51-1,2.29.35,1.64,2.47-1.2,3-4.58,5.48-6.12,1.48-.74,3.39-1,2.94-3.51a5.09,5.09,0,0,1,1.33-4.84c2-1.37,3.07-.25,3.6,1.47A32.57,32.57,0,0,1,47,58.82C44.75,70.35,40.16,81.11,35.89,92c-.71,1.39-1.2,2.89-1.93,4.28-2.81,3.58-6,6.53-10.84,7a4.61,4.61,0,0,1-4-2.31A44.44,44.44,0,0,0,11.4,90.43,3.36,3.36,0,0,1,11,86l3.77-4.93C17,78.2,13.36,75.36,14.73,72.47Z" transform="translate(36 0)" />
            <path class="lady-9"
                d="M11,86c0,.6-.15,1.34.13,1.77C14.62,93.06,19,97.55,23.38,102c.71,1.23.55,2.72,1.25,4,.54,2,.95,4.37-.26,5.93-4.44,5.74-4.1,12-2.77,18.51a5.42,5.42,0,0,1-.43,3.57,2.12,2.12,0,0,1-2.71-.07c-5.94-3.34-4-9-3.22-13.61.69-4.33,1.25-7.89-2.72-10.78-3.22-2.33-2.12-5.35-.13-7.36,4.21-4.25,2.36-7.32-1.13-10.49a12.24,12.24,0,0,1-1.43-2C9.91,88.38,9.71,87,11,86Z" transform="translate(36 0)" />
            <path class="lady-10"
                d="M104.42,118,102,119c-2.55-3-1.94-5.91.35-8.74,1.85-1.54,4.23-2,6.33-3,3.52-1.76,2.26-5.07,2.65-7.88.36-2.63-1.25-6.13,2.91-7.27h0c2.93,3.66,1.57,7.35.79,11.45-1.11,5.86.55,12-.8,18C110.36,122,108.58,116.82,104.42,118Z" transform="translate(36 0)" />
            <path class="lady-11"
                d="M114.24,121.62c.86-7.9-1.65-16,1.52-23.84.58-1.43-2-3.41-1.51-5.59a35.79,35.79,0,0,0,14,11.51c-5.37,1.54-8.6-.67-12.81-2.39v21.53Z" transform="translate(36 0)" />
            <path class="lady-12"
                d="M133.86,93.41c-2.57-2-6.51-.29-9.06-3.28,2.26-2.69,5.27-1.21,7.82-1.68C133,90.1,133.45,91.76,133.86,93.41Z" transform="translate(36 0)" />
            <path class="lady-13"
                d="M28.28,40.63l0-2.5a18,18,0,0,1,3.8-8.54h2.36C34.94,34.69,32.65,38.23,28.28,40.63Z" transform="translate(36 0)" />
            <path class="lady-6" d="M126.47,60.24c-4.53-3.39-1.56-8.22-2.36-12.33A28.84,28.84,0,0,1,126.47,60.24Z" transform="translate(36 0)" />
            <path class="lady-12" d="M135.1,104.4c.41-2.43.83-4.86,1.24-7.3C138.33,99.94,138.29,102.44,135.1,104.4Z" transform="translate(36 0)" />
            <path class="lady-9" d="M14.73,72.47c.25,2.88,2.79,5.73.08,8.63C15.92,78.21,12.05,75.37,14.73,72.47Z" transform="translate(36 0)" />
            <path class="lady-12"
                d="M130.26,122.89c.76-2.48.71-5.22,2.32-7.43C132.52,118.16,133.5,121.18,130.26,122.89Z" transform="translate(36 0)" />
            <path class="lady-12" d="M133.88,110.58c-1.71-2-1.84-4.08.07-6.09Q133.92,107.54,133.88,110.58Z" transform="translate(36 0)" />
            <path class="lady-12" d="M135.06,86c-1.05-1.66,0-3.26.14-4.88C136.73,82.78,136.92,84.41,135.06,86Z" transform="translate(36 0)" />
            <path class="lady-14"
                d="M50.61,114.17c.32,0,.65.08,1,.11,2.1,3.09,4.76,4.08,8.74,4.23,13.48.52,27-.89,40.44.82l-.06,1.22c-2.33,2-5.09.91-7.63.93-12.22.12-24.43,0-36.65.08-3.28,0-6.32,0-6.25-4.53-.34-.92-.67-1.85-1-2.78C49.61,113.55,50.09,113.52,50.61,114.17Z" transform="translate(36 0)" />
            <path class="lady-14"
                d="M23.35,104.54c-1.25-.86-.17-1.69,0-2.53,4-.82,6.53-4.09,9.76-6.19,3-.43,2.41,2.59,3.72,3.78a7.75,7.75,0,0,1,.75,1.53c0,3.85,2.36,6.11,5.42,7.93,1.58.94,4.1,1.12,3.66,4-8-2.17-10.85,2.92-13.19,9.15a49.47,49.47,0,0,1-5,9.74c-2.51,3.8-6.1,4.31-10,2l2.41-.1c7.67-6.19,10.93-13.91,8.25-23.69.19-2.6-.43-4.55-3.62-4.41A5,5,0,0,1,23.35,104.54Z" transform="translate(36 0)" />
            <path class="lady-15"
                d="M46.69,113c-2.09-2.73-5.84-2.67-8.29-5.4-2.14-2.38-2.33-4.14-1.58-6.67l.74-.41c3.81,3.9,7.63,7.77,12.65,10.17.13,1.15.27,2.3.4,3.46l-1.44.08A2.8,2.8,0,0,0,46.69,113Z" transform="translate(36 0)" />
            <path class="lady-16"
                d="M62.66,38.08l6.08,1.34c5,6,6.63,6.32,13.36,2.57,4.34-2.42,8.86-4.27,14-3.78,1.36.13,3.19-.11,3,2-.17,1.62-1.73,1.42-2.92,1.53-1.78.17-3.69-.29-5.7,1.4,3.75,2.34,7.9,3.17,11,6.64,5.1,5.74,3.3,12.83,5.48,19-3,1.53-3.43-.88-4-2.77-1-3.06-1-6.46-3.17-9.11a33.27,33.27,0,0,0-4.21-4.74c-4.56-3.3-9.64-2.8-14.69-1.9-4.18.74-8.12.71-11.72-1.84S61.71,49,58,48.72c-2.23-.19-4.65.59-4.43-3,1.41-2.4,3.82-2.74,6.22-3.05.46-.31,1.88.3,1.06-1.21-1.39-1.06-3.17-1.73-3.46-3.76.61-1.79,2-1.9,3.51-1.56C61.78,36.53,62.09,37.42,62.66,38.08Z" transform="translate(36 0)" />
            <path class="lady-17"
                d="M82.34,28.36c3.58-.61,6-3.69,10-3.83,15.37-.53,23.1,6.73,23.12,22.31,0,2.43,0,4.85,0,7.28-2,1.25-.36,4.06-2.51,5.59-2.12-2.24-1-5-1.14-7.43-.42-10.61-9.53-25.74-25.48-21C84,32,80.37,33.86,82.34,28.36Z" transform="translate(36 0)" />
            <path class="lady-18"
                d="M100.64,55.4c3.23,2.58,2.72,6.58,3.68,10,.46,1.62.41,3.26,2.58,3.47.88,8.26,5.81,15.26,7.33,23.32-2.4,3.67-.81,7.75-1.15,11.63-.24,2.72-.17,5.36-3.9,5.47.14-4.84,1.67-9.73-.55-14.48-4.07-10.69-6.46-21.8-8.35-33C99.93,59.65,98.69,57.41,100.64,55.4Z" transform="translate(36 0)" />
            <path class="lady-6"
                d="M61.41,44.28c-2.59-.39-4.9.77-7.33,1.31-2,3.87-4.67,7.38-6,11.59-.36,1.09-1,2.25-2.56,1.91-.42-2.1-1-4.18-1.23-6.3-.24-2-1.32-1.47-2.47-1.11-.18-.22-.37-.43-.55-.64-.9-4.65,2.62-7.81,3.95-11.82-2.75,2-3.47,5.09-4.71,7.87-1,2.1-1.6,4.33-2.61,6.41-2.63,3.31-1.64,9.09-7.14,10.43V61.49c-4.46-18.3,10.93-39.13,29.4-39.77,2.23-.08,4.53-.21,6.22,1.74,4.1,4,4.79,7.52-1.24,10.3a3.94,3.94,0,0,0-2.45,4.32l-1.24-1.14c-1.53-.55-3.34-2-3.65,1.2l4.83,2.52C64.14,42.5,62.74,43.38,61.41,44.28Z" transform="translate(36 0)" />
            <path class="lady-19"
                d="M66.35,23.46c-8.24-.83-15.74,1.53-22.58,5.82S34.91,40.82,33.46,47.86c-.93,4.51-1.8,9.09-2.73,13.63-1.43.59-1.42,3-3.67,2.9V52.9c1.62-3.55-.37-7.49,1.19-11l0-1.22q3.07-5.52,6.13-11.05c1.53-1.33,3.09-2.64,4.59-4,6.65-6,20.76-8.39,28.52-4.78.84.39,2.36.49,1.56,1.84C68.72,23.24,67.29,23.21,66.35,23.46Z" transform="translate(36 0)" />
            <path class="lady-20"
                d="M45.49,59.09c2.34-4.84,3-10.71,8.59-13.5,2.85,4.11,6.28.32,9.41.55,2.2.16,4.6-1.75,6.39,1-4.23,3.34-10.44,1.06-14.42,5.08a8.94,8.94,0,0,0-2.87,4.92c-1.31,3.54-2.46,7.14-3.52,10.76-1.72,4.54-3,9.25-4.83,13.74-3.19,6.06-4.52,12.82-7.26,19l-.16.23a5.71,5.71,0,0,0-1.17-.19c-.95-2.8-.94-5.74-1.28-8.62Q39.94,75.6,45.49,59.09Z" transform="translate(36 0)" />
            <path class="lady-21"
                d="M30.73,63.93c3.49-2.88,2.92-8,6.13-11,1.36.55-.31,4.33,3,2.81,1,2.15,0,3.52-1.76,4.57C36,63.78,34.17,67.5,29.82,69,28.33,66.72,30.41,65.51,30.73,63.93Z" transform="translate(36 0)" />
            <path class="lady-6"
                d="M38.1,60.26a8.37,8.37,0,0,0,1.23-4.9c-1.35-1.62-.51-2.81.77-3.91a1.38,1.38,0,0,1,1.68.21v0C40.6,54.55,46.05,60.29,38.1,60.26Z" transform="translate(36 0)" />
            <path class="lady-15"
                d="M34.37,92.13c2.37,2.58.8,5.75,1.28,8.62l-2.51-4.93C33.19,94.47,33,93.05,34.37,92.13Z" transform="translate(36 0)" />
            <path class="lady-13" d="M28.25,41.85c-.47,3.68,1.15,7.58-1.19,11C27.53,49.23,25.88,45.32,28.25,41.85Z" transform="translate(36 0)" />
            <path class="lady-22"
                d="M23.35,104.54l2.47,0a54.14,54.14,0,0,1,4.92,4.78c2.17,7.7,1.15,14.78-3.81,21.25-1.6,2.09-3.25,3.62-6.06,3.2-1.45-7.33-5.29-14.72,1.71-21.57C24.49,110.37,23.11,107.14,23.35,104.54Z" transform="translate(36 0)" />
            <path class="lady-9"
                d="M30.74,109.36c-2.76-.45-5.17-1.26-4.92-4.79C31.39,102.13,30.87,105.94,30.74,109.36Z" transform="translate(36 0)" />
            <path class="lady-20"
                d="M61.41,44.28c.39-1.2.79-2.41,1.19-3.62,1.06.55,2.39,1.11,1.92,2.57S62.54,44.16,61.41,44.28Z" transform="translate(36 0)" />
            <path class="lady-20"
                d="M57.77,38.14c-.7-.51-1.14-1.34-.41-1.85a2.78,2.78,0,0,1,4.06.65C60.08,37,58.67,36.78,57.77,38.14Z" transform="translate(36 0)" />
            <path class="lady-23"
                d="M41.78,51.66c-.4,0-.8,0-1.2,0-1.75-1.3-.57-3.38-1.29-4.95.67-3.67,2.05-6.94,5.1-9.32,1.11-.87,2.31-2.29,3.65-1.22,1.73,1.39-.3,2.35-.94,3.44C44.87,43.44,42.61,47.24,41.78,51.66Z" transform="translate(36 0)" />
            <path class="lady-24"
                d="M39.29,46.74c.93-.14,2.39-1.26,2,1.07l-.69,3.88c-.41,1.22-.83,2.44-1.25,3.67-1.37.5-1.24,2.64-3.14,2.76.23-1.78.45-3.51.67-5.24C37.38,50.72,37.69,48.47,39.29,46.74Z" transform="translate(36 0)" />
            <path class="lady-25"
                d="M78.42,92.07c-4.32.07-8.62.09-11-4.5a2.28,2.28,0,0,1,1.7-1c4.21.84,8.86-1.22,12.75,1.85C81.54,90.43,79.43,90.73,78.42,92.07Z" transform="translate(36 0)" />
            <path class="lady-26"
                d="M68.77,87.35l-1.38.22c-.91-.79-2.84-1.13-1.28-3,5.8-1,11.59-1.74,17.35.25a1.86,1.86,0,0,0,.74-.09l-.69,1.31C78.82,89.09,73.77,87.9,68.77,87.35Z" transform="translate(36 0)" />
            <path class="lady-27"
                d="M68.77,87.35c4.92-.33,10,.56,14.74-1.29,0,1.16-.85,1.75-1.67,2.36C77.49,88,73,89.65,68.77,87.35Z" transform="translate(36 0)" />
            <path class="lady-27" d="M83.46,84.84c-5.79.22-11.58,1-17.35-.25C71.94,81.52,77.75,79.92,83.46,84.84Z" transform="translate(36 0)" />
            <path
                d="M86.37,60.41c2.09-.37,4.07-.9,4.86-3.22a1.7,1.7,0,0,0-.14-.45l.14.07a2.84,2.84,0,0,0,3.61.26l-.27-1.71-6,.18.65.3a1.62,1.62,0,0,1-.65-.3c-3.53.88-7.39.79-10.31,3.48,1.06,1.26,2.5,1.21,4,1.15C83.64,59.3,85,60.81,86.37,60.41Z" transform="translate(36 0)" />
            <path
                d="M66.36,56.4l-2.55.5c-.37-1.26-1.45-1.54-2.52-1.85l-.75.22a3.25,3.25,0,0,0-.71.31H57.9a9.74,9.74,0,0,0-2-.27l-.73-.08-2.37,2.56c0,.4,0,.8,0,1.19q.55,0,1.11.12l4.87-1.24h0a3,3,0,0,1,.24,1.1c1.17,1,2.29,1.09,3.37,0a3.31,3.31,0,0,0,.14.36,3.9,3.9,0,0,0,3.81.72c1.83-.08,3.82.6,5.32-1.09A4.17,4.17,0,0,0,66.36,56.4Z" transform="translate(36 0)" />
            <path
                d="M69.32,64l-2.83-1.35a9.83,9.83,0,0,1-.3-1l-1.79-.1a6.08,6.08,0,0,0-4.09-.23l-1.13-.06C57.26,60.58,56,61,56,63.29a1.16,1.16,0,0,0,1.39,1l.42-.42v0l-.2.23c-.41,1.49.75,2.37,1.32,3.48,0,.77.09,1.54.13,2.31l.6.3c1.92,4.74,2.29,5,5.33,4.4l-.16.13C70.65,73,69.2,68.13,69.32,64Z" transform="translate(36 0)" />
            <path
                d="M88.38,62.52h0l-6,.49h0a9.3,9.3,0,0,0-1.17-.13V71a3.07,3.07,0,0,0,1.07.31h0c3.19,3.49,5.48,2.14,7.37-1.38h0a3.77,3.77,0,0,0,.54-1.39c.6-1.55,1.2-3.09,1.81-4.64h0c1.63,0,2.58-.72,2.53-2.46C92.48,61.81,90.18,60.71,88.38,62.52Z" transform="translate(36 0)" />
            <path class="lady-28"
                d="M65.11,65.66c-.24.87-.2,1.88-1.34,1.57A1.67,1.67,0,0,1,62.84,66c-.06-.75.18-1.68,1.26-1.43C64.52,64.68,64.81,65.32,65.11,65.66Z" transform="translate(36 0)" />
            <path class="lady-29"
                d="M85.25,67.42c-.9,0-1.6-.39-1.6-1.35,0-.8.29-1.73,1.35-1.5s2,.51,2,1.76S86,67.26,85.25,67.42Z" transform="translate(36 0)" />
    
  </svg>
  